<svg width="326" height="718" viewBox="0 0 326 718" fill="none" xmlns="http://www.w3.org/2000/svg">
<path fill-rule="evenodd" clip-rule="evenodd" d="M403.281 456.608C403.317 466.036 417.695 476.637 423.837 482.102C435.981 492.913 448.611 502.895 461.125 513.037C473.638 523.18 486.185 533.294 498.117 544.429C505.865 551.657 514.968 559.797 520.223 570.118C531.416 592.113 496.124 588.846 486.982 589.328C463.726 590.557 437.051 589.996 415.252 601.449C402.238 608.287 397.049 619.754 399.844 636.467C400.745 641.902 403.412 648.157 401.153 653.452C398.741 659.107 393.191 662.371 388.585 664.559C371.786 672.532 352.471 673.456 334.697 674.457C315.53 675.556 296.184 675.235 277.153 675.32C269.083 675.356 260.655 678.894 252.971 681.77C242.896 685.539 232.942 689.773 222.951 693.867C200.972 702.851 178.323 712.314 155.069 714.596C140.506 716.026 124.59 714.093 113.277 701.658C107.597 695.415 104.624 686.133 101.34 677.888C97.3653 667.927 93.5478 657.87 89.3159 648.066C75.6833 616.491 56.2197 585.635 24.6279 584.085C19.8487 583.851 15.1551 584.613 10.3984 584.755C7.36918 584.843 4.67328 583.95 3.54717 580.082C0.716144 570.379 9.61463 555.063 13.2632 547.365C21.2518 530.515 30.2607 514.42 38.6997 497.908C44.2829 486.988 53.9472 472.065 54.0485 458.797C54.1386 446.975 41.256 438.43 34.2426 432.607C27.6706 427.155 15.7632 419.526 15.0425 408.435C14.6934 403.057 17.5987 398.601 20.6325 395.142C25.9499 389.094 32.076 384.827 36.8597 377.926C44.7041 366.605 51.2581 351.027 50.1928 335.771C49.454 325.2 44.5127 318.277 38.2268 311.66C35.5849 308.878 33.4408 306.909 33.3012 302.392C33.076 295.219 35.3777 287.628 37.2741 280.978C44.0577 257.177 53.6927 234.163 64.411 212.674C69.7667 201.936 75.5527 191.23 82.6539 182.069C87.3047 176.054 93.5771 168.895 100.672 168.903C108.885 168.903 117.577 172.521 125.561 175.226C140.473 180.282 155.204 186.127 169.878 192.123C203.811 205.996 237.425 220.993 270.72 237.113C294.173 248.487 318.123 259.877 340.172 274.998C344.472 277.968 348.531 281.43 352.293 285.338C356.313 289.443 361.302 291.279 366.361 292.649C397.756 301.147 432.152 294.623 463.679 290.532C471.681 289.495 479.683 288.453 487.707 287.727C494.606 287.103 502.865 285.313 509.57 288.002C522.781 293.295 511.232 312.801 506.349 320.749C489.158 348.734 466.978 372.411 446.42 396.583C436.645 408.094 426.796 419.575 417.553 431.738C412.74 438.061 403.25 448.344 403.281 456.608Z" stroke="#E94560" stroke-opacity="0.8" stroke-width="5"/>
<path fill-rule="evenodd" clip-rule="evenodd" d="M397.357 458.197C402.626 468.173 411.871 475.546 419.545 482.485C430.588 492.474 441.979 501.908 453.198 511.615C463.806 520.793 474.437 530.076 484.262 540.5C490.252 546.856 497.768 554.457 500.606 563.858C506.761 584.235 473.649 581.144 465.474 581.677C445.152 582.996 422.112 583.298 403.311 594.027C391.571 600.727 386.748 611.837 389.252 627.262C390.118 632.599 391.677 637.155 389.703 642.464C387.42 648.609 382.169 652.44 377.355 655.144C362.275 663.616 344.45 665.416 328.103 666.914C311.216 668.461 293.621 669.552 277.277 668.42C270.741 667.969 263.218 670.528 256.749 672.49C246.797 675.513 236.946 679 227.043 682.243C206.917 688.838 186.268 695.192 165.33 695.914C150.214 696.437 134.454 693.606 121.878 682.666C109.133 671.572 103.478 654.375 96.4105 638.026C84.2042 609.762 67.7179 575.397 39.4784 569.426C35.1963 568.519 31.0809 569.011 26.8033 568.788C24.6036 568.676 22.0997 568.318 20.9841 565.672C18.088 558.802 26.0235 546.24 28.6942 540.978C36.073 526.435 44.369 512.604 52.1017 498.341C58.2432 487.017 66.0276 474.433 68.4031 461.009C71.2856 444.718 52.451 433.127 45.8272 421.656C34.3443 401.766 56.0999 390.433 66.8255 380.949C79.1422 370.061 89.3089 350.198 78.2678 333.352C74.0443 326.911 68.8471 323.072 66.9607 314.665C64.0105 301.518 66.2418 286.495 68.6352 273.499C72.2413 253.963 77.9478 234.638 85.7052 216.982C91.263 204.341 100.483 184.519 113.985 186.006C123.075 186.998 132.315 190.623 141.166 193.827C154.418 198.622 167.503 204.088 180.518 209.766C210.563 222.836 240.277 237.246 269.407 253.097C289.282 263.917 344.725 308.13 348.896 309.708C361.335 314.407 375.477 313.58 388.301 312.852C405.36 311.884 422.333 309.378 439.292 307.056C447.365 305.957 455.479 304.613 463.595 304.071C469.371 303.687 476.957 303.357 482.017 307.454C491.893 315.449 480.89 333.74 476.34 341.478C462.4 365.203 444.767 385.747 428.233 406.753C420.12 417.067 411.882 427.364 404.517 438.505C401.546 443.003 394.1 452.036 397.357 458.197Z" stroke="#BDBDBD" stroke-opacity="0.8" stroke-width="5"/>
<path fill-rule="evenodd" clip-rule="evenodd" d="M390.067 463.314C404.457 483.276 424.319 498.122 441.461 514.794C450.064 523.164 458.722 531.763 466.143 541.733C470.003 546.917 474.823 553.473 475.566 560.7C477.554 580.032 447.71 577.418 438.777 578.152C421.507 579.576 401.997 580.656 386.329 590.522C376.756 596.553 372.042 606.452 373.831 619.462C374.624 625.235 375.859 630.138 373.831 635.807C371.776 641.549 367.494 645.601 363.159 648.638C350.7 657.374 335.216 660.167 321.189 662.248C304.733 664.671 288.154 665.618 271.584 665.079C257.072 664.615 242.63 669.84 228.46 673.284C209.689 677.845 190.578 681.828 171.37 681.226C156.2 680.747 140.91 676.99 127.942 667.003C114.764 656.833 106.841 641.609 99.6975 625.182C88.8991 600.349 75.4416 567.072 51.7514 557.64C48.3059 556.266 45.0947 556.115 41.5411 555.876C39.815 555.76 37.5863 555.724 36.73 553.528C34.6704 548.239 42.2847 537.986 44.4097 534.413C51.1925 523.005 58.5454 512.111 65.4973 500.855C71.9871 490.346 79.0561 479.394 83.0875 467.079C89.503 447.466 68.9923 435.998 69.5669 417.309C69.9252 405.706 79.0313 397.385 86.2423 391.629C95.1208 384.551 107.904 379.897 112.348 366.98C115.658 357.359 110.464 351.76 106.465 344.459C99.6862 332.089 99.2243 315.321 99.9296 301.002C100.881 281.653 104.596 262.018 110.922 244.233C113.788 236.171 117.299 227.784 122.468 221.522C127.311 215.653 131.894 214.15 138.366 215.351C158.178 219.034 178.182 229.301 197.181 238.471C221.051 249.995 244.593 262.716 267.431 277.03C283.005 286.791 298.929 297.118 312.599 310.604C316.161 314.12 319.81 317.941 322.415 322.578C324.384 326.064 325.22 328.942 328.539 330.932C338.378 336.828 352.063 335.286 362.604 334.673C379.46 333.697 396.235 331.099 412.987 328.76C422.762 327.386 441.177 323.062 448.983 333.433C455.72 342.389 447.59 357.659 443.437 365.548C432.932 385.499 419.418 403.009 406.88 421.039C401.134 429.302 395.162 437.628 390.416 446.815C389.204 449.157 387.261 452.26 386.928 455.106C386.554 458.366 388.3 460.853 390.067 463.314Z" stroke="#E94560" stroke-opacity="0.8" stroke-width="5"/>
<path fill-rule="evenodd" clip-rule="evenodd" d="M388.83 458.666C402.127 476.317 418.147 490.817 432.422 507.334C438.823 514.739 445.287 522.508 450.164 531.542C452.787 536.4 455.573 542.516 454.849 548.554C452.774 565.885 428.228 564.32 418.311 565.335C403.576 566.826 386.648 568.328 373.619 577.673C365.084 583.794 361.884 592.834 363.477 604.492C365.188 616.998 361.363 626.076 352.659 633.053C341.746 641.793 327.971 645.355 315.301 647.886C300.035 650.921 284.576 652.266 269.112 651.905C254.073 651.553 239.502 654.629 224.562 656.629C204.754 659.278 184.31 660.585 164.725 655.154C147.673 650.425 132.271 640.005 120.725 623.889C108.665 607.07 102.695 585.879 92.9019 567.272C86.7942 555.665 78.2773 540.312 66.8642 535.801C63.0576 534.296 56.1205 536.326 59.1609 528.923C60.8985 524.69 64.1507 520.976 66.72 517.515C70.8714 511.922 75.1603 506.484 79.3816 500.968C88.3786 489.21 98.0135 477.202 104.757 463.28C113.253 445.751 100.623 432.26 102.163 414.486C102.99 404.921 108.439 397.287 114.204 391.29C117.934 387.405 122.016 384.041 126.183 380.902C130.535 377.623 135.685 375.125 139.48 370.886C144.889 364.853 142.541 357.711 141.527 349.913C139.742 336.207 139.35 322.284 140.359 308.461C141.594 291.518 144.491 274.09 150.591 258.693C152.965 252.699 155.971 246.344 160.436 242.325C164.901 238.306 169.519 238.581 174.635 239.791C189.809 243.368 204.952 251.689 219.347 259.576C237.364 269.45 255.026 280.484 271.893 293.036C283.536 301.702 295.218 311.063 304.958 322.813C307.791 326.232 310.487 329.894 312.666 333.982C314.163 336.785 314.965 340.402 317.133 342.51C323.917 349.087 337.536 347.123 345.492 346.741C361.37 345.979 376.998 342.356 392.855 341.475C401.509 340.994 415.064 339.783 421.419 348.776C427.396 357.23 421.983 370.545 418.41 378.69C411.39 394.706 401.958 408.976 393.504 423.864C390.029 429.99 386.22 436.4 383.968 443.396C381.967 449.63 385.422 454.141 388.83 458.666Z" stroke="#BDBDBD" stroke-opacity="0.8" stroke-width="5"/>
<path fill-rule="evenodd" clip-rule="evenodd" d="M385.559 458.378C396.143 473.909 408.903 487.697 419.564 503.481C425.804 512.725 436.55 528.265 431.724 541.297C426.43 555.617 407.975 556.007 397.308 557.161C384.611 558.534 369.701 560.41 358.835 569.352C355.399 572.179 352.471 575.92 351.231 580.848C349.902 586.123 351.354 590.738 351.544 596.017C351.94 607.093 346.522 615.985 339.352 622.092C329.218 630.726 316.546 634.808 304.577 637.654C291.017 640.864 277.231 642.446 263.418 642.379C250.217 642.324 237.156 642.681 223.942 643.093C206.66 643.642 189.135 642.755 172.372 637.154C155.858 631.632 140.845 621.284 129.051 606.063C117.546 591.21 109.784 573.055 102.985 554.562C99.1275 544.066 92.6104 528.38 83.4089 523.078C79.3171 520.719 75.3019 520.881 79.6527 514.744C85.1316 507.017 92.5158 500.817 98.8618 494.207C108.016 484.67 117.4 474.945 125.083 463.605C129.99 456.364 132.177 449.337 131.839 439.962C131.578 432.819 130.394 425.751 130.993 418.582C132.395 401.753 143.257 390.213 152.859 379.467C159.036 372.555 164.677 367.284 167.857 357.452C171.618 345.832 173.196 333.19 175.709 321.126C178.47 307.877 181.659 294.095 187.685 282.426C193.049 272.036 199.573 267.377 209.338 270.177C224.568 274.539 239.579 285.285 253.1 295.227C266.861 305.341 280.387 316.714 291.79 330.617C297.947 338.124 302.149 346.939 307.617 355.005C314.495 365.13 330.053 361.295 339.3 360.438C354.649 359.015 402.946 348.368 398.49 382.854C396.63 397.248 389.304 410.533 383.947 423.235C381.726 428.507 378.513 434.833 378.011 440.874C377.463 447.453 382.377 453.702 385.559 458.378Z" stroke="#BB6BD9" stroke-opacity="0.8" stroke-width="5"/>
<path fill-rule="evenodd" clip-rule="evenodd" d="M379.971 457.059C388.059 471.134 397.739 484.431 404.679 499.632C409.181 509.477 413.602 522.632 407.795 533.048C401.239 544.803 386.785 547.544 376.165 549.041C365.222 550.583 352.159 551.881 343.215 560.794C340.37 563.633 338.024 567.462 337.587 572.046C337.167 576.444 338.355 580.841 337.961 585.318C337.079 595.372 332.084 603.656 325.643 609.664C306.592 627.438 278.237 631.391 255.251 631.855C243.746 632.086 231.905 630.874 220.326 630.005C205.3 628.879 190.251 626.46 175.921 620.63C145.452 608.24 125.03 580.761 110.767 546.568C106.279 535.805 102.843 524.16 95.8087 515.51C92.1822 511.044 92.9746 507.837 96.6821 503.763C102.479 497.398 109.549 492.533 115.983 487.22C125.134 479.665 134.48 471.997 142.573 462.946C148.151 456.707 152.111 450.696 153.313 441.341C154.171 434.67 153.97 427.873 154.486 421.161C155.467 408.411 158.828 395.757 164.778 385.181C169.505 376.799 175.133 369.18 180.95 361.916C188.511 352.458 194.906 342.85 200.649 331.625C208.262 316.767 218.959 289.359 236.892 296.612C256.67 304.616 275.207 324.952 287.897 344.655C292.158 351.271 295.656 359.384 301.403 364.263C310.007 371.555 318.737 371.299 328.97 371.269C344.291 371.227 377.63 367.168 377.99 395.18C378.132 406.278 374.197 416.772 372.313 427.447C370.188 439.403 374.447 447.467 379.971 457.059Z" stroke="#0F3460" stroke-opacity="0.8" stroke-width="5"/>
<path fill-rule="evenodd" clip-rule="evenodd" d="M373.947 455.804C381.947 474.148 399.887 504.291 386.242 524.69C379.035 535.47 366.287 539.521 355.592 541.935C346.986 543.888 336.608 544.621 330.105 552.899C325.326 558.986 327.447 567.843 325.616 575.462C323.343 584.907 318.127 592.636 311.717 598.445C293.804 614.68 268.898 619.662 247.35 620.722C224.97 621.821 200.312 616.682 179.252 606.797C152.995 594.468 133.323 571.123 119.565 541.559C117.027 536.102 114.721 530.501 112.284 524.978C110.646 521.273 108.218 517.689 106.928 513.791C104.779 507.293 107.31 501.981 111.369 497.746C117.207 491.649 124.379 487.309 131.034 482.734C140.136 476.472 149.44 470.322 157.907 462.975C163.596 458.031 169.552 452.706 171.588 444.128C172.977 438.278 173.266 432.082 173.216 426.023C173.108 413.032 173.667 402.527 178.635 390.629C186.811 371.095 199.384 353.531 212.666 338.917C223.09 327.448 239.584 309.631 254.771 317.299C268.398 324.165 276.369 340.601 285.347 353.888C289.712 360.348 294.615 366.248 300.376 370.843C307.64 376.635 314.478 379.066 323.084 380.013C337.569 381.609 359.41 382.024 363.888 403.227C365.541 411.052 364.597 419.157 365.464 427.083C366.597 437.564 369.911 446.551 373.947 455.804Z" stroke="#E94560" stroke-opacity="0.8" stroke-width="5"/>
<path fill-rule="evenodd" clip-rule="evenodd" d="M365.628 455.125C371.325 475.197 378.809 500.493 365.049 518.332C358.384 526.974 349.01 531.805 339.936 535.415C333.438 538.003 323.12 538.764 319.136 546.719C316.21 552.573 315.805 560.648 313.158 566.92C309.52 575.543 304.01 582.645 297.546 588.205C280.705 602.692 258.77 608.29 238.766 609.893C195.302 613.372 151.077 585.67 127.819 540.092C120.884 526.507 111.932 512.047 123.139 498.167C135.375 483.025 153.807 475.931 168.411 465.172C173.991 461.064 181.101 456.126 184.214 448.688C186.087 444.217 186.215 438.608 186.301 433.686C186.526 421.151 187.379 409.878 191.509 398.181C197.888 380.105 208.06 363.429 219.587 349.769C229.639 337.858 243.975 323.859 258.574 332.446C269.768 339.045 276.867 353.052 285.564 363.377C295.243 374.875 307.213 382.624 320.358 386.41C333.145 390.083 347.171 392.561 353.91 408.167C356.221 413.521 358.637 420.452 359.503 426.378C360.902 436.147 362.95 445.762 365.628 455.125V455.125Z" stroke="#BB6BD9" stroke-opacity="0.8" stroke-width="5"/>
<path fill-rule="evenodd" clip-rule="evenodd" d="M356.352 454.983C358.988 475.252 359.281 496.386 347.035 512.361C341.32 519.813 334.096 525.108 326.791 529.905C321.416 533.434 315.866 536.412 311.852 542.198C308.133 547.556 305.305 553.777 301.715 559.275C296.978 566.561 291.311 572.868 284.931 577.955C268.937 590.68 249.481 596.631 230.868 598.696C221.857 599.699 212.083 600.222 203.133 597.486C194.49 594.847 185.943 590.674 177.996 585.808C161.101 575.475 146.459 560.342 135.845 541.209C128.567 528.085 124.631 515.324 134.056 502.011C144.682 487.004 161.343 478.724 175.075 468.984C184.493 462.304 195.049 455.756 196.808 441.56C198.209 430.264 199.347 419.543 202.971 408.866C208.365 393.117 216.297 378.851 226.295 366.913C235.438 356.038 247.005 346.81 260.084 352.619C270.446 357.229 278.486 367.557 287.539 374.94C297.629 383.187 308.714 387.734 320.387 391.391C330.877 394.689 340.755 399.758 347.535 410.521C348.923 412.72 350.381 415.114 351.451 417.575C352.816 420.714 352.71 423.826 352.978 427.345C353.676 436.631 355.161 445.81 356.352 454.983Z" stroke="#0F3460" stroke-opacity="0.8" stroke-width="5"/>
<path fill-rule="evenodd" clip-rule="evenodd" d="M346.125 456.64C345.899 475.892 342.106 494.087 331.715 509.09C327.272 515.508 321.967 520.795 317.079 526.676C313.144 531.418 309.424 535.823 304.898 539.73C294.163 548.982 285.438 560.954 274.029 569.192C258.8 580.206 241.354 586.293 224.044 588.728C215.592 589.917 206.86 590.333 198.309 588.989C190.964 587.835 183.93 583.785 177.405 579.641C164.616 571.524 152.199 559.987 143.895 545.391C125.587 513.212 161.682 489.816 180.208 476.115C188.728 469.812 201.747 462.513 205.237 450.029C207.732 441.111 209.251 432.041 212.464 423.398C221.095 400.186 238.614 372.886 261.961 376.521C271.951 378.073 281.056 384.382 290.382 388.616C299.985 392.978 309.897 395.409 319.878 398.077C329.206 400.569 336.641 404.115 342.666 413.623C345.546 418.163 345.292 423.599 345.548 429.169C345.967 438.319 346.226 447.521 346.125 456.64Z" stroke="#E94560" stroke-opacity="0.8" stroke-width="5"/>
<path fill-rule="evenodd" clip-rule="evenodd" d="M336.812 459.106C333.061 488.165 319.131 519.889 298.648 536.765C274.554 556.617 248.452 573.334 219.665 578.139C206.319 580.368 191.699 581.464 179.105 574.177C169.521 568.635 158.388 560.351 153.114 548.701C140.209 520.205 168.912 497.521 185.266 484.337C194.07 477.24 205.278 470.324 211.914 459.96C215.763 453.951 217.729 446.002 220.837 439.402C230.257 419.402 245.763 403.271 265.078 400.386C274.009 399.053 283.005 400.702 291.868 402.012C300.941 403.353 310.126 404.081 319.142 405.953C326.339 407.447 334.822 409.978 337.472 419.378C340.815 431.223 338.342 447.239 336.812 459.106Z" stroke="#BDBDBD" stroke-opacity="0.8" stroke-width="5"/>
<path fill-rule="evenodd" clip-rule="evenodd" d="M327.679 463.774C322.209 491.094 310.626 517.744 291.152 534.054C280.826 542.702 268.838 548.672 257.329 554.571C244.283 561.256 230.653 566.445 216.731 569.019C199.397 572.225 171.324 575.116 162.268 551.013C153.279 527.088 175.993 505.914 189.425 493.847C198.037 486.117 207.253 479.022 215.481 470.572C219.942 465.99 223.379 460.697 227.155 455.323C237.59 440.435 252.466 428.649 267.629 422.357C282.324 416.258 300.504 413.558 316.017 415.573C322.71 416.439 327.494 419.363 329.519 427.673C332.324 439.225 329.941 452.488 327.679 463.774Z" stroke="#0F3460" stroke-opacity="0.8" stroke-width="5"/>
<path fill-rule="evenodd" clip-rule="evenodd" d="M318.605 471.132C313.171 495.187 301.449 517.158 284.352 531.595C265.187 547.779 240.509 556.772 217.827 561.346C205.771 563.775 179.644 570.361 173.498 551.512C167.353 532.663 185.118 514.088 195.343 503.862C207.753 491.471 221.133 479.507 234.497 468.388C246.108 458.722 258.498 448.838 271.074 441.373C278.167 437.139 285.556 433.681 293.153 431.041C298.778 429.102 305.932 426.211 311.83 427.654C326.706 431.299 321.204 459.631 318.605 471.132Z" stroke="#BB6BD9" stroke-opacity="0.8" stroke-width="5"/>
<path fill-rule="evenodd" clip-rule="evenodd" d="M307.404 478.336C295.48 523.826 257.703 546.199 221.33 553.997C212.878 555.807 189.185 562.334 184.46 548.437C179.882 534.964 194.442 518.986 201.259 511.416C222.381 487.958 248.477 470.565 273.206 453.334C280.925 447.956 294.846 436.284 304.42 441.668C314.816 447.524 309.874 468.903 307.404 478.336Z" stroke="#BDBDBD" stroke-opacity="0.8" stroke-width="5"/>
<path fill-rule="evenodd" clip-rule="evenodd" d="M295.19 487.091C284.821 520.591 254.662 539.805 226.933 546.139C220.141 547.689 202.893 552.514 197.749 543.166C192.988 534.518 204.348 521.987 208.599 517.008C218.06 505.92 229.274 496.786 240.352 488.006C250.594 479.883 260.948 471.557 271.725 464.687C277.402 461.071 288.049 453.355 294.5 458.938C301.445 464.945 297.493 479.652 295.19 487.091Z" stroke="#BDBDBD" stroke-opacity="0.8" stroke-width="5"/>
<path fill-rule="evenodd" clip-rule="evenodd" d="M281.732 496.879C273.829 518.756 252.662 532.962 233.99 537.683C228.966 538.95 218.107 542.238 213.869 536.396C209.967 531.015 216.255 523.127 219.046 519.484C231.416 503.337 249.53 488.914 266.127 480.055C270.299 477.828 277.801 473.457 282.093 477.952C286.496 482.568 283.547 491.856 281.732 496.879Z" stroke="#E94560" stroke-opacity="0.8" stroke-width="5"/>
<path fill-rule="evenodd" clip-rule="evenodd" d="M267.454 506.068C263.001 516.932 251.362 525.128 241.72 527.737C234.935 529.571 226.778 527.986 232.692 518.53C238.567 509.146 249.467 500.576 258.705 496.776C265.754 493.878 271.279 496.737 267.454 506.068Z" stroke="#0F3460" stroke-opacity="0.8" stroke-width="5"/>
<path fill-rule="evenodd" clip-rule="evenodd" d="M173.929 93.9624C192.272 80.3803 213.008 69.169 232.562 57.7736C261.138 41.1229 290.135 24.9199 320.161 12.5163C336.259 5.86812 357.119 -3.71684 374.393 1.49184C380.708 3.39565 386.468 9.15377 392.13 12.8955C399.938 18.0547 407.861 22.9584 415.771 27.8732C431.637 37.7246 447.553 47.4772 463.147 57.9605C470.655 63.0098 477.941 69.3696 485.758 73.6772C490.327 76.1963 495.793 75.0178 500.675 74.8585C511.982 74.4876 523.282 73.7843 534.582 73.1854C548.404 72.4547 562.257 71.6772 576.095 71.9657C582.336 72.0975 597.622 70.7459 601.057 77.3062C602.906 80.8391 598.549 87.2099 596.53 90.1576C592.821 95.5751 588.559 100.457 584.353 105.289C574.627 116.465 564.297 127.107 555.651 139.591C551.209 146.008 545.389 153.849 548.289 162.609C551.216 171.458 556.286 179.12 559.38 187.939C562.942 198.087 564.419 208.647 566.101 219.408C567.346 227.361 570.246 234.407 572.972 241.74C575.985 249.844 579.105 258.017 581.197 266.563C582.579 272.209 584.811 282.365 579.974 285.939C573.103 291.022 560.217 286.906 552.385 285.409C541.559 283.343 530.813 280.711 520.017 278.445C512.18 276.797 504.315 274.989 496.347 274.797C483.502 274.486 470.615 275.56 457.804 276.56C434.082 278.412 410.53 280.923 386.729 280.923C365.876 280.923 317.687 251.481 306.407 246.297C283.892 235.948 260.778 226.138 239.472 212.369C233.708 208.641 224.837 203.674 221.805 196.002C219.934 191.274 220.794 188.54 216.381 185.494C210.36 181.337 202.647 179.705 195.982 177.845C185.25 174.851 174.433 172.315 163.651 169.604C141.843 164.134 120.184 157.947 98.4658 151.994C91.9004 150.195 83.9571 149.796 77.698 146.626C73.6633 144.59 74.0821 142.027 77.2049 138.934C82.6828 133.506 90.3604 130.492 96.8312 127.396C106.312 122.86 115.949 118.814 125.589 114.825C135.23 110.836 144.921 106.97 154.566 102.973C160.938 100.341 168.203 98.2013 173.929 93.9624Z" stroke="#BB6BD9" stroke-opacity="0.8" stroke-width="5"/>
<path fill-rule="evenodd" clip-rule="evenodd" d="M189.023 96.95C208.426 83.3402 229.964 72.4981 250.727 61.92C277.301 48.3735 304.475 35.677 332.474 27.2091C348.914 22.2406 368.31 16.7548 385.107 22.4524C391.1 24.4855 395.577 29.0551 400.714 33.0882C406.569 37.6909 412.649 41.9083 418.729 46.0598C431.246 54.6048 443.894 62.8581 456.675 70.8199C463.445 75.0539 470.896 80.7239 478.544 82.193C484.624 83.3623 491.531 81.6703 497.639 81.1779C508.637 80.292 519.634 79.3786 530.637 78.6028C543.333 77.7087 556.066 76.8834 568.79 77.0264C575.881 77.1062 588.055 75.7884 593.071 81.3815C597.446 86.262 581.516 103.913 578.714 107.267C569.965 117.738 560.764 127.708 552.621 138.905C547.808 145.507 541.948 153.538 539.919 162.289C538.192 169.747 541.525 178.246 543.493 185.14C545.955 193.776 547.941 202.728 550.801 211.182C553.348 218.715 557.402 225.425 560.962 232.272C564.878 239.805 568.844 247.461 571.751 255.679C573.532 260.735 576.48 269.203 572.94 274.023C568.851 279.581 556.244 275.949 551.062 275.157C540.55 273.528 530.119 271.107 519.679 268.939C502.338 265.341 485.807 262.193 468.149 262.947C445.154 263.932 422.182 266.249 399.191 267.531C390.701 268.009 382.076 268.972 373.58 268.452C368.708 268.152 364.999 266.337 362.166 262.24C358.298 256.65 349.387 253.555 343.189 250.347C333.526 245.348 323.741 240.699 313.983 235.989C292.562 225.645 270.73 215.675 250.414 202.296C243.987 198.065 236.628 193.347 231.874 186.356C229.221 182.458 229.89 178.702 228.271 174.559C226.127 169.109 219.078 166.65 214.865 164.867C206.733 161.423 198.268 159.114 189.868 156.952C170.861 152.061 151.809 148.844 132.494 146.476C127.968 145.925 110.143 144.019 119.505 134.83C129.848 124.676 144.783 119.699 156.96 113.977C167.929 108.832 178.907 104.045 189.023 96.95Z" stroke="#E94560" stroke-opacity="0.8" stroke-width="5"/>
<path fill-rule="evenodd" clip-rule="evenodd" d="M215.838 99.4669C234.076 87.4936 254.28 78.561 273.923 70.0156C297.758 59.6464 322.191 50.4034 347.191 45.2257C362.895 41.9762 380.208 39.4794 395.807 44.8796C406.459 48.5658 414.699 58.5312 424.054 65.3873C433.41 72.2433 443.145 78.6791 453.17 84.0436C459.392 87.3727 466.085 90.7266 473.009 90.2871C489.842 89.2213 506.656 86.6805 523.507 85.4472C534.655 84.6232 545.826 83.9447 557.008 84.148C563.75 84.2689 573.014 83.7744 578.983 88.1034C585.582 92.8911 550.447 133.769 547.127 138.37C538.801 149.907 528.719 165.217 530.329 181.624C531.869 197.308 538.542 209.018 546.089 221.307C550.373 228.298 564.109 246.973 559.018 256.065C556.11 261.262 546.525 259.463 541.971 259.109C532.996 258.411 524.071 256.911 515.143 255.609C502.126 253.722 488.751 250.808 475.678 249.954C466.575 249.36 457.417 250.154 448.298 250.171C435.223 250.193 422.147 250.072 409.072 249.929C398.093 249.808 387.021 249.929 376.081 248.643C369.279 247.852 364.117 246.075 359.238 241.054C354.993 236.687 348.588 234.129 343.178 231.352C334.241 226.768 325.188 222.518 316.163 218.2C297.269 209.158 278.159 200.305 260.074 189.005C251.818 183.849 237.938 176.63 236.001 164.13C235.302 159.622 234.788 157.675 231.181 155.112C226.062 151.475 219.93 149.835 214.185 148.41C200.794 145.086 187.015 145.583 173.647 142.298C168.202 140.944 161.094 138.021 167.31 131.33C174.562 123.504 185.119 119.203 193.808 114.368C198.145 111.957 202.614 109.699 206.732 106.754C209.895 104.485 212.603 101.576 215.838 99.4669Z" stroke="#BDBDBD" stroke-opacity="0.8" stroke-width="5"/>
<path fill-rule="evenodd" clip-rule="evenodd" d="M250.381 103.205C267.231 93.4803 285.53 86.4097 303.501 80.0356C323.462 72.965 343.904 67.1086 364.616 64.6168C378.918 62.8904 394.156 62.381 408.037 67.6647C416.815 71.0073 422.766 78.0367 430.32 83.9316C441.721 92.8415 454.055 99.9012 467.752 98.1831C483.107 96.2612 498.512 94.8194 513.968 93.8575C523.291 93.2766 532.65 92.8416 541.984 93.2463C547.886 93.4996 555.489 93.9264 560.624 97.1891C567.493 101.559 541.69 134.808 538.473 139.654C530.496 151.673 524.648 164.283 521.232 179.173C518.445 191.324 524.137 200.875 530.01 209.964C533.661 215.609 545.457 229.805 541.764 237.135C539.738 241.177 533.062 240.967 529.476 241.174C522.643 241.565 515.78 241.157 508.947 240.978C498.856 240.703 488.115 242.595 478.11 241.072C455.937 237.702 433.82 234.783 411.51 232.473C399.211 231.201 386.839 230.045 374.65 227.591C370.275 226.71 365.755 225.777 361.609 223.784C358.942 222.503 357.488 220.323 355.237 218.533C344.505 210.014 330.496 205.631 318.408 200.171C302.34 192.913 286.185 185.768 270.544 177.194C262.318 172.684 250.827 167.502 245.166 158.297C243.456 155.516 244.185 153.292 243.109 150.618C241.871 147.534 238.11 146.615 235.681 145.756C230.169 143.804 207.095 140.852 217.728 129.401C222.802 123.946 229.266 120.447 234.986 116.16C237.056 114.607 239.075 113.046 240.802 110.95C243.69 107.437 246.535 105.433 250.381 103.205Z" stroke="#0F3460" stroke-opacity="0.8" stroke-width="5"/>
<path fill-rule="evenodd" clip-rule="evenodd" d="M287.187 107.416C320.451 91.682 359.435 80.9628 395.7 83.0396C407.76 83.7327 420.736 86.046 431.19 93.9623C437.354 98.6384 442.28 103.917 449.685 105.606C455.031 106.824 460.786 105.441 466.164 104.94C473.952 104.214 481.744 103.565 489.544 103.039C499.213 102.398 508.914 101.903 518.601 102.167C525.523 102.357 535.082 102.143 541.095 106.681C548.274 112.094 530 137.488 527.429 142.013C521.197 152.98 516.828 163.606 515.249 176.822C514.785 180.673 513.219 184.62 513.422 188.501C513.634 192.465 515.635 195.994 517.482 199.111C519.898 203.195 528.279 212.883 525.879 217.864C524.553 220.615 519.575 220.962 516.995 221.545C512.155 222.645 507.245 223.236 502.375 224.111C494.113 225.602 485.91 230.457 477.619 230.319C455.324 229.956 432.706 221.517 410.857 216.882C397.868 214.118 384.791 211.609 371.959 207.866C367.899 206.68 363.718 205.454 359.859 203.443C357.166 202.04 355.436 199.54 352.941 197.969C343.376 191.937 332.376 188.276 322.104 184.216C308.77 178.935 295.39 173.813 282.149 168.191C273.848 164.667 263.176 161.567 256.023 155.032C250.8 150.259 254.37 148.832 257.126 144.387C258.534 142.12 258.209 139.887 258.82 137.32C259.693 133.657 262.161 131.019 264.475 128.648C267.666 125.372 271.918 122.673 274.527 118.657C275.448 117.244 275.405 115.489 276.149 114.256C278.314 110.667 284.059 108.895 287.187 107.416Z" stroke="#BB6BD9" stroke-opacity="0.8" stroke-width="5"/>
<path fill-rule="evenodd" clip-rule="evenodd" d="M322.554 113.021C349.551 103.129 379.59 97.4968 408.127 100.111C418.056 101.022 428.046 103.137 437.295 107.785C441.502 109.893 444.661 112.242 449.272 112.369C459.971 112.661 470.704 111.64 481.401 111.395C489.055 111.219 496.749 111.156 504.386 111.907C509.492 112.407 516.397 113.007 520.58 116.829C526.659 122.396 515.686 141.318 513.452 146.546C509.751 155.216 506.079 164.855 507.547 174.887C507.997 177.955 508.794 180.665 508.898 183.794C508.997 186.482 508.72 188.964 509.501 191.534C510.467 194.72 514.763 199.665 513.286 202.598C512.279 204.601 509.294 204.695 507.308 205.336C504.087 206.376 500.942 207.74 497.906 209.414C494.709 211.186 491.987 213.924 488.675 215.387C483.298 217.759 477.28 217.982 471.629 217.971C449.081 217.927 426.247 212.498 404.27 206.822C392.826 203.867 381.319 200.716 370.197 196.234C366.819 194.872 362.992 193.504 360.022 190.989C358.169 189.424 356.913 187.462 354.808 186.284C336.826 176.23 316.036 172.496 296.946 165.235C291.977 163.344 264.439 153.794 278.837 144.81C287.584 139.351 296.826 136.869 304.808 129.401C307.239 127.131 308.86 125.252 309.81 121.788C310.436 119.482 308.93 120.651 311.033 118.241C313.584 115.343 319.408 114.174 322.554 113.021Z" stroke="#0F3460" stroke-opacity="0.8" stroke-width="5"/>
<path fill-rule="evenodd" clip-rule="evenodd" d="M350.624 118.87C382.232 110.796 415.704 110.412 447.811 117.57C455.905 119.372 464.328 118.942 472.521 119.4C480.482 119.839 494.635 118.925 500.417 126.396C504.61 131.811 500.061 143.32 498.487 149.378C496.482 157.095 494.73 165.068 498.022 172.563C499.95 176.953 502.592 181.131 504.66 185.479C505.648 187.556 507.685 190.739 506.836 192.706C505.432 195.951 498.862 197.318 495.674 198.848C485.485 203.74 474.696 204.988 463.802 204.953C443.682 204.89 423.457 201.532 403.721 196.977C394.64 194.881 385.433 192.645 376.676 189.002C371.72 186.942 368.065 182.966 363.333 180.61C348.096 173.016 331.725 168.958 316.226 162.014C311.74 160.003 294.984 153.309 303.425 145.416C311.598 137.776 323.519 138.684 332.017 131.496C332.978 130.673 334.168 129.688 334.726 128.357C335.055 127.562 334.475 126.047 334.726 125.595C337.336 120.676 346.612 119.894 350.624 118.87Z" stroke="#BDBDBD" stroke-opacity="0.8" stroke-width="5"/>
</svg>
