<svg width="718" height="652" viewBox="0 0 718 652" fill="none" xmlns="http://www.w3.org/2000/svg">
<g opacity="0.9">
<g clip-path="url(#clip0)">
<path fill-rule="evenodd" clip-rule="evenodd" d="M456.608 248.719C466.036 248.683 476.637 234.305 482.102 228.163C492.913 216.019 502.895 203.389 513.037 190.875C523.18 178.362 533.294 165.815 544.429 153.883C551.657 146.135 559.797 137.032 570.118 131.777C592.113 120.584 588.846 155.876 589.328 165.018C590.557 188.274 589.996 214.949 601.449 236.748C608.287 249.762 619.754 254.951 636.467 252.156C641.902 251.255 648.157 248.588 653.452 250.847C659.107 253.259 662.371 258.809 664.559 263.415C672.532 280.214 673.456 299.529 674.457 317.303C675.556 336.47 675.235 355.816 675.32 374.847C675.356 382.917 678.894 391.345 681.77 399.029C685.539 409.104 689.773 419.058 693.867 429.049C702.851 451.028 712.314 473.677 714.596 496.931C716.026 511.494 714.093 527.41 701.658 538.723C695.415 544.403 686.133 547.376 677.888 550.66C667.927 554.635 657.87 558.452 648.066 562.684C616.491 576.317 585.635 595.78 584.085 627.372C583.851 632.151 584.613 636.845 584.755 641.602C584.843 644.631 583.95 647.327 580.082 648.453C570.379 651.284 555.063 642.385 547.365 638.737C530.515 630.748 514.42 621.739 497.908 613.3C486.988 607.717 472.065 598.053 458.797 597.951C446.975 597.861 438.43 610.744 432.607 617.757C427.155 624.329 419.526 636.237 408.435 636.957C403.057 637.307 398.601 634.401 395.142 631.367C389.094 626.05 384.827 619.924 377.926 615.14C366.605 607.296 351.027 600.742 335.771 601.807C325.2 602.546 318.277 607.487 311.66 613.773C308.878 616.415 306.909 618.559 302.392 618.699C295.219 618.924 287.628 616.622 280.978 614.726C257.177 607.942 234.163 598.307 212.674 587.589C201.936 582.233 191.23 576.447 182.069 569.346C176.054 564.695 168.895 558.423 168.903 551.328C168.903 543.115 172.521 534.423 175.226 526.439C180.282 511.527 186.127 496.796 192.123 482.122C205.996 448.189 220.993 414.575 237.113 381.28C248.487 357.827 259.877 333.877 274.998 311.828C277.968 307.528 281.43 303.469 285.338 299.707C289.443 295.687 291.279 290.698 292.649 285.639C301.147 254.244 294.623 219.848 290.532 188.321C289.495 180.319 288.453 172.317 287.727 164.293C287.103 157.394 285.313 149.135 288.002 142.43C293.295 129.219 312.801 140.768 320.749 145.651C348.734 162.842 372.411 185.022 396.583 205.58C408.094 215.355 419.575 225.204 431.738 234.447C438.061 239.26 448.344 248.75 456.608 248.719Z" stroke="url(#paint0_linear)" stroke-width="5"/>
<path fill-rule="evenodd" clip-rule="evenodd" d="M458.197 254.643C468.173 249.374 475.546 240.129 482.485 232.455C492.474 221.412 501.908 210.021 511.615 198.802C520.793 188.194 530.076 177.563 540.5 167.738C546.856 161.748 554.457 154.232 563.858 151.394C584.235 145.239 581.144 178.351 581.677 186.526C582.996 206.848 583.298 229.888 594.027 248.689C600.727 260.429 611.837 265.252 627.262 262.748C632.599 261.882 637.155 260.323 642.464 262.297C648.609 264.58 652.44 269.831 655.144 274.645C663.616 289.725 665.416 307.55 666.914 323.897C668.461 340.784 669.552 358.379 668.42 374.723C667.969 381.259 670.528 388.782 672.49 395.251C675.513 405.203 679 415.054 682.243 424.957C688.838 445.083 695.192 465.732 695.914 486.67C696.437 501.786 693.606 517.546 682.666 530.122C671.572 542.867 654.375 548.522 638.026 555.589C609.762 567.796 575.397 584.282 569.426 612.522C568.519 616.804 569.011 620.919 568.788 625.197C568.676 627.396 568.318 629.9 565.672 631.016C558.802 633.912 546.24 625.976 540.978 623.306C526.435 615.927 512.604 607.631 498.341 599.898C487.017 593.757 474.433 585.972 461.009 583.597C444.718 580.714 433.127 599.549 421.656 606.173C401.766 617.656 390.433 595.9 380.949 585.174C370.061 572.858 350.198 562.691 333.352 573.732C326.911 577.956 323.072 583.153 314.665 585.039C301.518 587.989 286.495 585.758 273.499 583.365C253.963 579.759 234.638 574.052 216.982 566.295C204.341 560.737 184.519 551.517 186.006 538.015C186.998 528.925 190.623 519.685 193.827 510.834C198.622 497.582 204.088 484.497 209.766 471.482C222.836 441.437 237.246 411.723 253.097 382.593C263.917 362.718 308.13 307.275 309.708 303.104C314.407 290.665 313.58 276.523 312.852 263.699C311.884 246.64 309.378 229.667 307.056 212.708C305.957 204.635 304.613 196.521 304.071 188.405C303.687 182.629 303.357 175.043 307.454 169.983C315.449 160.107 333.74 171.11 341.478 175.66C365.203 189.6 385.747 207.233 406.753 223.767C417.067 231.88 427.364 240.118 438.505 247.483C443.003 250.454 452.036 257.9 458.197 254.643Z" stroke="url(#paint1_linear)" stroke-width="5"/>
<path fill-rule="evenodd" clip-rule="evenodd" d="M463.314 261.933C483.276 247.543 498.122 227.681 514.794 210.539C523.164 201.936 531.763 193.278 541.733 185.857C546.917 181.997 553.473 177.177 560.7 176.434C580.032 174.446 577.418 204.29 578.152 213.223C579.576 230.493 580.656 250.003 590.522 265.671C596.553 275.244 606.452 279.958 619.462 278.169C625.235 277.376 630.138 276.141 635.807 278.169C641.549 280.224 645.601 284.506 648.638 288.841C657.374 301.3 660.167 316.784 662.248 330.811C664.671 347.267 665.618 363.846 665.079 380.416C664.615 394.928 669.84 409.37 673.284 423.54C677.845 442.311 681.828 461.422 681.226 480.63C680.747 495.8 676.99 511.09 667.003 524.058C656.833 537.236 641.609 545.159 625.182 552.302C600.349 563.101 567.072 576.558 557.64 600.249C556.266 603.694 556.115 606.905 555.876 610.459C555.76 612.185 555.724 614.414 553.528 615.27C548.239 617.33 537.986 609.715 534.413 607.59C523.005 600.807 512.111 593.455 500.855 586.503C490.346 580.013 479.394 572.944 467.079 568.912C447.466 562.497 435.998 583.008 417.309 582.433C405.706 582.075 397.385 572.969 391.629 565.758C384.551 556.879 379.897 544.096 366.98 539.652C357.359 536.342 351.76 541.536 344.459 545.535C332.089 552.314 315.321 552.776 301.002 552.07C281.653 551.119 262.018 547.404 244.233 541.078C236.171 538.212 227.784 534.701 221.522 529.532C215.653 524.689 214.15 520.106 215.351 513.634C219.034 493.822 229.301 473.818 238.471 454.819C249.995 430.949 262.716 407.407 277.03 384.569C286.791 368.995 297.118 353.071 310.604 339.401C314.12 335.839 317.941 332.19 322.578 329.585C326.064 327.616 328.942 326.78 330.932 323.461C336.828 313.622 335.286 299.937 334.673 289.396C333.697 272.54 331.099 255.765 328.76 239.013C327.386 229.238 323.062 210.823 333.433 203.017C342.389 196.28 357.659 204.41 365.548 208.563C385.499 219.068 403.009 232.582 421.039 245.12C429.302 250.866 437.628 256.838 446.815 261.584C449.157 262.796 452.26 264.739 455.106 265.072C458.366 265.446 460.853 263.7 463.314 261.933Z" stroke="url(#paint2_linear)" stroke-width="5"/>
<path fill-rule="evenodd" clip-rule="evenodd" d="M458.666 263.17C476.317 249.873 490.817 233.853 507.334 219.578C514.739 213.177 522.508 206.713 531.542 201.836C536.4 199.213 542.516 196.427 548.554 197.151C565.885 199.226 564.32 223.772 565.335 233.689C566.826 248.424 568.328 265.352 577.673 278.381C583.794 286.916 592.834 290.116 604.492 288.523C616.998 286.812 626.076 290.637 633.053 299.341C641.793 310.254 645.355 324.029 647.886 336.699C650.921 351.965 652.266 367.424 651.905 382.888C651.553 397.927 654.629 412.498 656.629 427.438C659.278 447.246 660.585 467.69 655.154 487.275C650.425 504.327 640.005 519.729 623.889 531.275C607.07 543.335 585.879 549.305 567.272 559.098C555.665 565.206 540.312 573.723 535.801 585.136C534.296 588.942 536.326 595.879 528.923 592.839C524.69 591.101 520.976 587.849 517.515 585.28C511.922 581.129 506.484 576.84 500.968 572.618C489.21 563.621 477.202 553.986 463.28 547.243C445.751 538.747 432.26 551.377 414.486 549.837C404.921 549.01 397.287 543.561 391.29 537.796C387.405 534.066 384.041 529.984 380.902 525.817C377.623 521.465 375.125 516.315 370.886 512.52C364.853 507.111 357.711 509.459 349.913 510.473C336.207 512.258 322.284 512.65 308.461 511.641C291.518 510.406 274.09 507.509 258.693 501.409C252.699 499.035 246.344 496.029 242.325 491.564C238.306 487.099 238.581 482.481 239.791 477.365C243.368 462.191 251.689 447.048 259.576 432.653C269.45 414.636 280.484 396.974 293.036 380.107C301.702 368.464 311.063 356.782 322.813 347.042C326.232 344.209 329.894 341.513 333.982 339.334C336.785 337.837 340.402 337.035 342.51 334.867C349.087 328.083 347.123 314.464 346.741 306.508C345.979 290.63 342.356 275.002 341.475 259.145C340.994 250.491 339.783 236.936 348.776 230.581C357.23 224.604 370.545 230.017 378.69 233.59C394.706 240.61 408.976 250.042 423.864 258.496C429.99 261.971 436.4 265.78 443.396 268.032C449.63 270.033 454.141 266.578 458.666 263.17Z" stroke="url(#paint3_linear)" stroke-width="5"/>
<path fill-rule="evenodd" clip-rule="evenodd" d="M458.378 266.441C473.909 255.857 487.697 243.097 503.481 232.436C512.725 226.196 528.265 215.45 541.297 220.276C555.617 225.57 556.007 244.025 557.161 254.692C558.534 267.389 560.41 282.299 569.352 293.165C572.179 296.601 575.92 299.529 580.848 300.769C586.123 302.098 590.738 300.646 596.017 300.456C607.093 300.06 615.985 305.478 622.092 312.648C630.726 322.782 634.808 335.454 637.654 347.423C640.864 360.983 642.446 374.769 642.379 388.582C642.324 401.783 642.681 414.844 643.093 428.058C643.642 445.34 642.755 462.865 637.154 479.628C631.632 496.142 621.284 511.155 606.063 522.949C591.21 534.454 573.055 542.216 554.562 549.015C544.066 552.872 528.38 559.39 523.078 568.591C520.719 572.683 520.881 576.698 514.744 572.347C507.017 566.868 500.817 559.484 494.207 553.138C484.67 543.984 474.945 534.6 463.605 526.917C456.364 522.01 449.337 519.823 439.962 520.161C432.819 520.422 425.751 521.606 418.582 521.007C401.753 519.605 390.213 508.743 379.467 499.141C372.555 492.964 367.284 487.323 357.452 484.143C345.832 480.382 333.19 478.804 321.126 476.291C307.877 473.53 294.095 470.341 282.426 464.315C272.036 458.951 267.377 452.427 270.177 442.662C274.539 427.432 285.285 412.421 295.227 398.9C305.341 385.139 316.714 371.613 330.617 360.21C338.124 354.053 346.939 349.851 355.005 344.383C365.13 337.505 361.295 321.947 360.438 312.7C359.015 297.351 348.368 249.054 382.854 253.51C397.248 255.37 410.533 262.696 423.235 268.053C428.507 270.274 434.833 273.487 440.874 273.989C447.453 274.537 453.702 269.623 458.378 266.441Z" stroke="url(#paint4_linear)" stroke-width="5"/>
<path fill-rule="evenodd" clip-rule="evenodd" d="M457.059 272.029C471.134 263.941 484.431 254.261 499.632 247.321C509.477 242.819 522.632 238.398 533.048 244.205C544.803 250.761 547.544 265.215 549.041 275.835C550.583 286.778 551.881 299.841 560.794 308.785C563.633 311.63 567.462 313.976 572.046 314.413C576.444 314.833 580.841 313.645 585.318 314.039C595.372 314.921 603.656 319.916 609.664 326.357C627.438 345.408 631.391 373.763 631.855 396.749C632.086 408.254 630.874 420.095 630.005 431.674C628.879 446.7 626.46 461.749 620.63 476.079C608.24 506.548 580.761 526.97 546.568 541.233C535.805 545.721 524.16 549.157 515.51 556.191C511.044 559.818 507.837 559.025 503.763 555.318C497.398 549.521 492.533 542.451 487.22 536.017C479.665 526.866 471.997 517.52 462.946 509.427C456.707 503.849 450.696 499.889 441.341 498.687C434.67 497.829 427.873 498.03 421.161 497.514C408.411 496.533 395.757 493.172 385.181 487.222C376.799 482.495 369.18 476.867 361.916 471.05C352.458 463.489 342.85 457.094 331.625 451.351C316.767 443.738 289.359 433.041 296.612 415.108C304.616 395.33 324.952 376.793 344.655 364.103C351.271 359.842 359.384 356.344 364.263 350.597C371.555 341.993 371.299 333.263 371.269 323.03C371.227 307.709 367.168 274.37 395.18 274.01C406.278 273.868 416.772 277.803 427.447 279.687C439.403 281.812 447.467 277.553 457.059 272.029Z" stroke="#0F3460" stroke-width="5"/>
<path fill-rule="evenodd" clip-rule="evenodd" d="M455.804 278.053C474.148 270.053 504.291 252.113 524.69 265.758C535.47 272.965 539.521 285.713 541.935 296.408C543.888 305.014 544.621 315.392 552.899 321.895C558.986 326.674 567.843 324.553 575.462 326.384C584.907 328.657 592.636 333.873 598.445 340.283C614.68 358.196 619.662 383.102 620.722 404.65C621.821 427.03 616.682 451.688 606.797 472.748C594.468 499.005 571.123 518.677 541.559 532.435C536.102 534.973 530.501 537.279 524.978 539.716C521.273 541.354 517.689 543.782 513.791 545.072C507.293 547.221 501.981 544.69 497.746 540.631C491.649 534.793 487.309 527.621 482.734 520.966C476.472 511.864 470.322 502.56 462.975 494.093C458.031 488.404 452.706 482.448 444.128 480.412C438.278 479.023 432.082 478.734 426.023 478.784C413.032 478.892 402.527 478.333 390.629 473.365C371.095 465.189 353.531 452.616 338.917 439.334C327.448 428.91 309.631 412.416 317.299 397.229C324.165 383.602 340.601 375.631 353.888 366.653C360.348 362.288 366.248 357.385 370.843 351.624C376.635 344.36 379.066 337.522 380.013 328.916C381.609 314.431 382.024 292.59 403.227 288.112C411.052 286.459 419.157 287.403 427.083 286.536C437.564 285.403 446.551 282.089 455.804 278.053Z" stroke="url(#paint5_linear)" stroke-width="5"/>
<path fill-rule="evenodd" clip-rule="evenodd" d="M455.125 286.372C475.197 280.675 500.493 273.191 518.332 286.951C526.974 293.616 531.805 302.99 535.415 312.064C538.003 318.562 538.764 328.88 546.719 332.864C552.573 335.79 560.648 336.195 566.92 338.842C575.543 342.48 582.645 347.99 588.205 354.454C602.692 371.295 608.29 393.23 609.893 413.234C613.372 456.698 585.67 500.923 540.092 524.181C526.507 531.116 512.047 540.068 498.167 528.861C483.025 516.625 475.931 498.193 465.172 483.589C461.064 478.009 456.126 470.899 448.688 467.786C444.217 465.913 438.608 465.785 433.686 465.699C421.151 465.474 409.878 464.621 398.181 460.491C380.105 454.112 363.429 443.94 349.769 432.413C337.858 422.361 323.859 408.025 332.446 393.426C339.045 382.232 353.052 375.133 363.377 366.436C374.875 356.757 382.624 344.787 386.41 331.642C390.083 318.855 392.561 304.829 408.167 298.09C413.521 295.779 420.452 293.363 426.378 292.497C436.147 291.098 445.762 289.05 455.125 286.372Z" stroke="url(#paint6_linear)" stroke-width="5"/>
<path fill-rule="evenodd" clip-rule="evenodd" d="M454.983 295.648C475.252 293.012 496.386 292.719 512.361 304.965C519.813 310.68 525.108 317.904 529.905 325.209C533.434 330.584 536.412 336.134 542.198 340.148C547.556 343.867 553.777 346.695 559.275 350.285C566.561 355.022 572.868 360.689 577.955 367.069C590.68 383.063 596.631 402.519 598.696 421.132C599.699 430.143 600.222 439.917 597.486 448.867C594.847 457.51 590.674 466.057 585.808 474.004C575.475 490.899 560.342 505.541 541.209 516.155C528.085 523.433 515.324 527.369 502.011 517.944C487.004 507.318 478.724 490.657 468.984 476.925C462.304 467.507 455.756 456.951 441.56 455.192C430.264 453.791 419.543 452.653 408.866 449.029C393.117 443.635 378.851 435.703 366.913 425.705C356.038 416.562 346.81 404.995 352.619 391.916C357.229 381.554 367.557 373.514 374.94 364.461C383.187 354.371 387.734 343.286 391.391 331.613C394.689 321.123 399.758 311.245 410.521 304.465C412.72 303.077 415.114 301.619 417.575 300.549C420.714 299.184 423.826 299.29 427.345 299.022C436.631 298.324 445.81 296.839 454.983 295.648Z" stroke="#0F3460" stroke-width="5"/>
<path fill-rule="evenodd" clip-rule="evenodd" d="M456.64 305.875C475.892 306.101 494.087 309.894 509.09 320.285C515.508 324.728 520.795 330.033 526.676 334.921C531.418 338.856 535.823 342.576 539.73 347.102C548.982 357.837 560.954 366.562 569.192 377.971C580.206 393.2 586.293 410.646 588.728 427.956C589.917 436.408 590.333 445.14 588.989 453.691C587.835 461.036 583.785 468.07 579.641 474.595C571.524 487.384 559.987 499.801 545.391 508.105C513.212 526.413 489.816 490.318 476.115 471.792C469.812 463.272 462.513 450.253 450.029 446.763C441.111 444.268 432.041 442.749 423.398 439.536C400.186 430.905 372.886 413.386 376.521 390.039C378.073 380.049 384.382 370.944 388.616 361.618C392.978 352.015 395.409 342.103 398.077 332.122C400.569 322.794 404.115 315.359 413.623 309.334C418.163 306.454 423.599 306.708 429.169 306.452C438.319 306.033 447.521 305.774 456.64 305.875Z" stroke="url(#paint7_linear)" stroke-width="5"/>
<path fill-rule="evenodd" clip-rule="evenodd" d="M459.106 315.188C488.165 318.939 519.889 332.869 536.765 353.352C556.617 377.446 573.334 403.548 578.139 432.335C580.368 445.681 581.464 460.301 574.177 472.895C568.635 482.479 560.351 493.612 548.701 498.886C520.205 511.791 497.521 483.088 484.337 466.734C477.24 457.93 470.324 446.722 459.96 440.086C453.951 436.237 446.002 434.271 439.402 431.163C419.402 421.743 403.271 406.237 400.386 386.922C399.053 377.991 400.702 368.995 402.012 360.132C403.353 351.059 404.081 341.874 405.953 332.858C407.447 325.661 409.978 317.178 419.378 314.528C431.223 311.185 447.239 313.658 459.106 315.188Z" stroke="url(#paint8_linear)" stroke-width="5"/>
<path fill-rule="evenodd" clip-rule="evenodd" d="M463.774 324.321C491.094 329.791 517.744 341.374 534.054 360.848C542.702 371.174 548.672 383.162 554.571 394.671C561.256 407.717 566.445 421.347 569.019 435.269C572.225 452.603 575.116 480.676 551.013 489.732C527.088 498.721 505.914 476.007 493.847 462.575C486.117 453.963 479.022 444.747 470.572 436.519C465.99 432.058 460.697 428.621 455.323 424.845C440.435 414.41 428.649 399.534 422.357 384.371C416.258 369.676 413.558 351.496 415.573 335.983C416.439 329.29 419.363 324.506 427.673 322.481C439.225 319.676 452.488 322.059 463.774 324.321Z" stroke="#0F3460" stroke-width="5"/>
<path fill-rule="evenodd" clip-rule="evenodd" d="M471.132 333.395C495.187 338.829 517.158 350.551 531.595 367.648C547.779 386.813 556.772 411.491 561.346 434.173C563.775 446.229 570.361 472.356 551.512 478.502C532.663 484.647 514.088 466.882 503.862 456.657C491.471 444.247 479.507 430.867 468.388 417.503C458.722 405.892 448.838 393.502 441.373 380.926C437.139 373.833 433.681 366.444 431.041 358.847C429.102 353.222 426.211 346.068 427.654 340.17C431.299 325.294 459.631 330.796 471.132 333.395Z" stroke="url(#paint9_linear)" stroke-width="5"/>
<path fill-rule="evenodd" clip-rule="evenodd" d="M478.336 344.596C523.826 356.52 546.199 394.297 553.997 430.67C555.807 439.122 562.334 462.815 548.437 467.54C534.964 472.118 518.986 457.558 511.416 450.741C487.958 429.619 470.565 403.523 453.334 378.794C447.956 371.075 436.284 357.154 441.668 347.58C447.524 337.184 468.903 342.126 478.336 344.596Z" stroke="url(#paint10_linear)" stroke-width="5"/>
<path fill-rule="evenodd" clip-rule="evenodd" d="M487.091 356.81C520.591 367.179 539.805 397.338 546.139 425.067C547.689 431.859 552.514 449.107 543.166 454.251C534.518 459.012 521.987 447.652 517.008 443.401C505.92 433.94 496.786 422.726 488.006 411.648C479.883 401.406 471.557 391.052 464.687 380.275C461.071 374.598 453.355 363.951 458.938 357.5C464.945 350.555 479.652 354.507 487.091 356.81Z" stroke="url(#paint11_linear)" stroke-width="5"/>
<path fill-rule="evenodd" clip-rule="evenodd" d="M496.879 370.268C518.756 378.171 532.962 399.338 537.683 418.01C538.95 423.034 542.238 433.893 536.396 438.131C531.015 442.033 523.127 435.745 519.484 432.954C503.337 420.584 488.914 402.47 480.055 385.873C477.828 381.701 473.457 374.199 477.952 369.907C482.568 365.504 491.856 368.453 496.879 370.268Z" stroke="url(#paint12_linear)" stroke-width="5"/>
<path fill-rule="evenodd" clip-rule="evenodd" d="M506.068 384.546C516.932 388.999 525.128 400.638 527.737 410.28C529.571 417.065 527.986 425.222 518.53 419.308C509.146 413.433 500.576 402.533 496.776 393.295C493.878 386.246 496.737 380.721 506.068 384.546Z" stroke="#0F3460" stroke-width="5"/>
<path fill-rule="evenodd" clip-rule="evenodd" d="M93.9624 478.071C80.3803 459.728 69.169 438.992 57.7736 419.438C41.1229 390.862 24.9199 361.865 12.5163 331.839C5.86808 315.741 -3.71688 294.881 1.4918 277.607C3.39561 271.292 9.15373 265.532 12.8955 259.87C18.0547 252.062 22.9584 244.139 27.8732 236.229C37.7246 220.363 47.4772 204.447 57.9605 188.853C63.0098 181.345 69.3696 174.059 73.6772 166.242C76.1963 161.673 75.0178 156.207 74.8585 151.325C74.4876 140.018 73.7843 128.718 73.1854 117.418C72.4547 103.596 71.6772 89.743 71.9657 75.905C72.0975 69.664 70.7459 54.378 77.3062 50.943C80.8391 49.094 87.2099 53.451 90.1576 55.47C95.5751 59.179 100.457 63.441 105.289 67.647C116.465 77.373 127.107 87.703 139.591 96.349C146.008 100.791 153.849 106.611 162.609 103.711C171.458 100.784 179.12 95.714 187.939 92.62C198.087 89.058 208.647 87.581 219.408 85.899C227.361 84.654 234.407 81.754 241.74 79.028C249.844 76.015 258.017 72.895 266.563 70.803C272.209 69.421 282.365 67.189 285.939 72.026C291.022 78.897 286.906 91.783 285.409 99.615C283.343 110.441 280.711 121.187 278.445 131.983C276.797 139.82 274.989 147.685 274.797 155.653C274.486 168.498 275.56 181.385 276.56 194.196C278.412 217.918 280.923 241.47 280.923 265.271C280.923 286.124 251.481 334.313 246.297 345.593C235.948 368.108 226.138 391.222 212.369 412.528C208.641 418.292 203.674 427.163 196.002 430.195C191.274 432.066 188.54 431.206 185.494 435.619C181.337 441.64 179.705 449.353 177.845 456.018C174.851 466.75 172.315 477.567 169.604 488.349C164.134 510.157 157.947 531.816 151.994 553.534C150.195 560.1 149.796 568.043 146.626 574.302C144.59 578.337 142.027 577.918 138.934 574.795C133.506 569.317 130.492 561.64 127.396 555.169C122.86 545.688 118.814 536.051 114.825 526.411C110.836 516.77 106.97 507.079 102.973 497.434C100.341 491.062 98.2013 483.797 93.9624 478.071Z" stroke="url(#paint13_linear)" stroke-width="5"/>
<path fill-rule="evenodd" clip-rule="evenodd" d="M96.9501 462.977C83.3403 443.574 72.4982 422.036 61.9201 401.273C48.3736 374.699 35.6771 347.525 27.2092 319.526C22.2407 303.086 16.7549 283.69 22.4525 266.893C24.4856 260.9 29.0552 256.423 33.0883 251.286C37.691 245.431 41.9084 239.351 46.0599 233.271C54.6049 220.754 62.8582 208.106 70.82 195.325C75.054 188.555 80.724 181.104 82.1931 173.456C83.3624 167.376 81.6704 160.469 81.178 154.361C80.2921 143.363 79.3787 132.366 78.6029 121.363C77.7088 108.667 76.8835 95.934 77.0265 83.21C77.1063 76.119 75.7885 63.945 81.3816 58.929C86.2621 54.554 103.913 70.484 107.267 73.286C117.738 82.035 127.708 91.236 138.905 99.379C145.507 104.192 153.538 110.052 162.289 112.081C169.747 113.808 178.246 110.475 185.14 108.507C193.776 106.045 202.728 104.059 211.182 101.199C218.715 98.652 225.425 94.598 232.272 91.038C239.805 87.122 247.461 83.156 255.679 80.249C260.735 78.468 269.203 75.52 274.023 79.06C279.581 83.149 275.949 95.756 275.157 100.938C273.528 111.45 271.107 121.881 268.939 132.321C265.341 149.662 262.193 166.193 262.947 183.851C263.932 206.846 266.249 229.818 267.531 252.809C268.009 261.299 268.972 269.924 268.452 278.42C268.152 283.292 266.337 287.001 262.24 289.834C256.65 293.702 253.555 302.613 250.347 308.811C245.348 318.474 240.699 328.259 235.989 338.017C225.645 359.438 215.675 381.27 202.296 401.586C198.065 408.013 193.347 415.372 186.356 420.126C182.458 422.779 178.702 422.11 174.559 423.729C169.109 425.873 166.65 432.922 164.867 437.135C161.423 445.267 159.114 453.732 156.952 462.132C152.061 481.139 148.844 500.191 146.476 519.506C145.925 524.032 144.019 541.857 134.83 532.495C124.676 522.152 119.699 507.217 113.977 495.04C108.832 484.071 104.045 473.093 96.9501 462.977Z" stroke="url(#paint14_linear)" stroke-width="5"/>
<path fill-rule="evenodd" clip-rule="evenodd" d="M99.467 436.162C87.4937 417.924 78.5611 397.72 70.0157 378.077C59.6465 354.242 50.4035 329.809 45.2258 304.809C41.9763 289.105 39.4795 271.792 44.8797 256.193C48.5659 245.541 58.5313 237.301 65.3874 227.946C72.2434 218.59 78.6792 208.855 84.0437 198.83C87.3728 192.608 90.7267 185.915 90.2872 178.991C89.2214 162.158 86.6806 145.344 85.4473 128.493C84.6233 117.345 83.9448 106.174 84.1481 94.992C84.269 88.25 83.7745 78.986 88.1035 73.017C92.8912 66.418 133.769 101.553 138.37 104.873C149.907 113.199 165.217 123.281 181.624 121.671C197.308 120.131 209.018 113.458 221.307 105.911C228.298 101.627 246.973 87.891 256.065 92.982C261.262 95.89 259.463 105.475 259.109 110.029C258.411 119.004 256.911 127.929 255.609 136.857C253.722 149.874 250.808 163.249 249.954 176.322C249.36 185.425 250.154 194.583 250.171 203.702C250.193 216.777 250.072 229.853 249.929 242.928C249.808 253.907 249.929 264.979 248.643 275.919C247.852 282.721 246.075 287.883 241.054 292.762C236.687 297.007 234.129 303.412 231.352 308.822C226.768 317.759 222.518 326.812 218.2 335.837C209.158 354.731 200.305 373.841 189.005 391.926C183.849 400.182 176.63 414.062 164.13 415.999C159.622 416.698 157.675 417.212 155.112 420.819C151.475 425.938 149.835 432.07 148.41 437.815C145.086 451.206 145.583 464.985 142.298 478.353C140.944 483.798 138.021 490.906 131.33 484.69C123.504 477.438 119.203 466.881 114.368 458.192C111.957 453.855 109.699 449.386 106.754 445.268C104.485 442.105 101.576 439.397 99.467 436.162Z" stroke="url(#paint15_linear)" stroke-width="5"/>
<path fill-rule="evenodd" clip-rule="evenodd" d="M103.205 401.619C93.4804 384.769 86.4098 366.47 80.0357 348.499C72.9651 328.538 67.1087 308.096 64.6169 287.384C62.8905 273.082 62.3811 257.844 67.6648 243.963C71.0074 235.185 78.0368 229.234 83.9317 221.68C92.8416 210.279 99.9013 197.945 98.1832 184.248C96.2613 168.893 94.8195 153.488 93.8576 138.032C93.2767 128.709 92.8417 119.35 93.2464 110.016C93.4997 104.114 93.9265 96.511 97.1892 91.376C101.559 84.507 134.808 110.31 139.654 113.527C151.673 121.504 164.283 127.352 179.173 130.768C191.324 133.555 200.875 127.863 209.964 121.99C215.609 118.339 229.805 106.543 237.135 110.236C241.177 112.262 240.967 118.938 241.174 122.524C241.565 129.357 241.157 136.22 240.978 143.053C240.703 153.144 242.595 163.885 241.072 173.89C237.702 196.063 234.783 218.18 232.473 240.49C231.201 252.789 230.045 265.161 227.591 277.35C226.71 281.725 225.777 286.245 223.784 290.391C222.503 293.058 220.323 294.512 218.533 296.763C210.014 307.495 205.631 321.504 200.171 333.592C192.913 349.66 185.768 365.815 177.194 381.456C172.684 389.682 167.502 401.173 158.297 406.834C155.516 408.544 153.292 407.815 150.618 408.891C147.534 410.129 146.615 413.89 145.756 416.319C143.804 421.831 140.852 444.905 129.401 434.272C123.946 429.198 120.447 422.734 116.16 417.014C114.607 414.944 113.046 412.925 110.95 411.198C107.437 408.31 105.433 405.465 103.205 401.619Z" stroke="#0F3460" stroke-width="5"/>
<path fill-rule="evenodd" clip-rule="evenodd" d="M107.416 364.813C91.682 331.549 80.9628 292.565 83.0396 256.3C83.7327 244.24 86.046 231.264 93.9623 220.81C98.6384 214.646 103.917 209.72 105.606 202.315C106.824 196.969 105.441 191.214 104.94 185.836C104.214 178.048 103.565 170.256 103.039 162.456C102.398 152.787 101.903 143.086 102.167 133.399C102.357 126.477 102.143 116.918 106.681 110.905C112.094 103.726 137.488 122 142.013 124.571C152.98 130.803 163.606 135.172 176.822 136.751C180.673 137.215 184.62 138.781 188.501 138.578C192.465 138.366 195.994 136.365 199.111 134.518C203.195 132.102 212.883 123.721 217.864 126.121C220.615 127.447 220.962 132.425 221.545 135.005C222.645 139.845 223.236 144.755 224.111 149.625C225.602 157.887 230.457 166.09 230.319 174.381C229.956 196.676 221.517 219.294 216.882 241.143C214.118 254.132 211.609 267.209 207.866 280.041C206.68 284.101 205.454 288.282 203.443 292.141C202.04 294.834 199.54 296.564 197.969 299.059C191.937 308.624 188.276 319.624 184.216 329.896C178.935 343.23 173.813 356.61 168.191 369.851C164.667 378.152 161.567 388.824 155.032 395.977C150.259 401.2 148.832 397.63 144.387 394.874C142.12 393.466 139.887 393.791 137.32 393.18C133.657 392.307 131.019 389.839 128.648 387.525C125.372 384.334 122.673 380.082 118.657 377.473C117.244 376.552 115.489 376.595 114.256 375.851C110.667 373.686 108.895 367.941 107.416 364.813Z" stroke="url(#paint16_linear)" stroke-width="5"/>
<path fill-rule="evenodd" clip-rule="evenodd" d="M113.021 329.446C103.129 302.449 97.4969 272.41 100.111 243.873C101.022 233.944 103.137 223.954 107.785 214.705C109.893 210.498 112.242 207.339 112.369 202.728C112.661 192.029 111.64 181.296 111.395 170.599C111.219 162.945 111.156 155.251 111.907 147.614C112.407 142.508 113.007 135.603 116.829 131.42C122.396 125.341 141.318 136.314 146.546 138.548C155.216 142.249 164.855 145.921 174.887 144.453C177.955 144.003 180.665 143.206 183.794 143.102C186.482 143.003 188.964 143.28 191.534 142.499C194.72 141.533 199.665 137.237 202.598 138.714C204.601 139.721 204.695 142.706 205.336 144.692C206.376 147.913 207.74 151.058 209.414 154.094C211.186 157.291 213.924 160.013 215.387 163.325C217.759 168.702 217.982 174.72 217.971 180.371C217.927 202.919 212.498 225.753 206.822 247.73C203.867 259.174 200.716 270.681 196.234 281.803C194.872 285.181 193.504 289.008 190.989 291.978C189.424 293.831 187.462 295.087 186.284 297.192C176.23 315.174 172.496 335.964 165.235 355.054C163.344 360.023 153.794 387.561 144.81 373.163C139.351 364.416 136.869 355.174 129.401 347.192C127.131 344.761 125.252 343.14 121.788 342.19C119.482 341.564 120.651 343.07 118.241 340.967C115.343 338.416 114.174 332.592 113.021 329.446Z" stroke="#0F3460" stroke-width="5"/>
<path fill-rule="evenodd" clip-rule="evenodd" d="M118.87 301.376C110.796 269.768 110.412 236.296 117.57 204.189C119.372 196.095 118.942 187.672 119.4 179.479C119.839 171.518 118.925 157.365 126.396 151.583C131.811 147.39 143.32 151.939 149.378 153.513C157.095 155.518 165.068 157.27 172.563 153.978C176.953 152.05 181.131 149.408 185.479 147.34C187.556 146.352 190.739 144.315 192.706 145.164C195.951 146.568 197.318 153.138 198.848 156.326C203.74 166.515 204.988 177.304 204.953 188.198C204.89 208.318 201.532 228.543 196.977 248.279C194.881 257.36 192.645 266.567 189.002 275.324C186.942 280.28 182.966 283.935 180.61 288.667C173.016 303.904 168.958 320.275 162.014 335.774C160.003 340.26 153.309 357.016 145.416 348.575C137.776 340.402 138.684 328.481 131.496 319.983C130.673 319.022 129.688 317.832 128.357 317.274C127.562 316.945 126.047 317.525 125.595 317.274C120.676 314.664 119.894 305.388 118.87 301.376Z" stroke="url(#paint17_linear)" stroke-width="5"/>
</g>
<g clip-path="url(#clip1)">
<path fill-rule="evenodd" clip-rule="evenodd" d="M456.608 404.281C466.036 404.317 476.637 418.695 482.102 424.837C492.913 436.981 502.895 449.611 513.037 462.125C523.18 474.638 533.294 487.185 544.429 499.117C551.657 506.865 559.797 515.968 570.118 521.223C592.113 532.416 588.846 497.124 589.328 487.982C590.557 464.726 589.996 438.051 601.449 416.252C608.287 403.238 619.754 398.049 636.467 400.844C641.902 401.745 648.157 404.412 653.452 402.153C659.107 399.741 662.371 394.191 664.559 389.585C672.532 372.786 673.456 353.471 674.457 335.697C675.556 316.53 675.235 297.184 675.32 278.153C675.356 270.083 678.894 261.655 681.77 253.971C685.539 243.896 689.773 233.942 693.867 223.951C702.851 201.972 712.314 179.323 714.596 156.069C716.026 141.506 714.093 125.59 701.658 114.277C695.415 108.597 686.133 105.624 677.888 102.34C667.927 98.3653 657.87 94.5478 648.066 90.3159C616.491 76.6833 585.635 57.2197 584.085 25.6279C583.851 20.8487 584.613 16.1551 584.755 11.3984C584.843 8.36914 583.95 5.67324 580.082 4.54713C570.379 1.7161 555.063 10.6146 547.365 14.2632C530.515 22.2518 514.42 31.2607 497.908 39.6997C486.988 45.2829 472.065 54.9472 458.797 55.0485C446.975 55.1386 438.43 42.256 432.607 35.2426C427.155 28.6706 419.526 16.7632 408.435 16.0425C403.057 15.6934 398.601 18.5987 395.142 21.6325C389.094 26.9499 384.827 33.076 377.926 37.8597C366.605 45.7041 351.027 52.2581 335.771 51.1928C325.2 50.454 318.277 45.5127 311.66 39.2268C308.878 36.5849 306.909 34.4408 302.392 34.3012C295.219 34.076 287.628 36.3777 280.978 38.2741C257.177 45.0577 234.163 54.6927 212.674 65.411C201.936 70.7667 191.23 76.5527 182.069 83.6539C176.054 88.3047 168.895 94.5771 168.903 101.672C168.903 109.885 172.521 118.577 175.226 126.561C180.282 141.473 186.127 156.204 192.123 170.878C205.996 204.811 220.993 238.425 237.113 271.72C248.487 295.173 259.877 319.123 274.998 341.172C277.968 345.472 281.43 349.531 285.338 353.293C289.443 357.313 291.279 362.302 292.649 367.361C301.147 398.756 294.623 433.152 290.532 464.679C289.495 472.681 288.453 480.683 287.727 488.707C287.103 495.606 285.313 503.865 288.002 510.57C293.295 523.781 312.801 512.232 320.749 507.349C348.734 490.158 372.411 467.978 396.583 447.42C408.094 437.645 419.575 427.796 431.738 418.553C438.061 413.74 448.344 404.25 456.608 404.281Z" stroke="url(#paint18_linear)" stroke-width="5"/>
<path fill-rule="evenodd" clip-rule="evenodd" d="M458.197 398.357C468.173 403.626 475.546 412.871 482.485 420.545C492.474 431.588 501.908 442.979 511.615 454.198C520.793 464.806 530.076 475.437 540.5 485.262C546.856 491.252 554.457 498.768 563.858 501.606C584.235 507.761 581.144 474.649 581.677 466.474C582.996 446.152 583.298 423.112 594.027 404.311C600.727 392.571 611.837 387.748 627.262 390.252C632.599 391.118 637.155 392.677 642.464 390.703C648.609 388.42 652.44 383.169 655.144 378.355C663.616 363.275 665.416 345.45 666.914 329.103C668.461 312.216 669.552 294.621 668.42 278.277C667.969 271.741 670.528 264.218 672.49 257.749C675.513 247.797 679 237.946 682.243 228.043C688.838 207.917 695.192 187.268 695.914 166.33C696.437 151.214 693.606 135.454 682.666 122.878C671.572 110.133 654.375 104.478 638.026 97.4105C609.762 85.2042 575.397 68.7179 569.426 40.4784C568.519 36.1963 569.011 32.0809 568.788 27.8033C568.676 25.6036 568.318 23.0997 565.672 21.9841C558.802 19.088 546.24 27.0235 540.978 29.6942C526.435 37.073 512.604 45.369 498.341 53.1017C487.017 59.2432 474.433 67.0276 461.009 69.4031C444.718 72.2856 433.127 53.451 421.656 46.8272C401.766 35.3443 390.433 57.0999 380.949 67.8255C370.061 80.1422 350.198 90.3089 333.352 79.2678C326.911 75.0443 323.072 69.8471 314.665 67.9607C301.518 65.0105 286.495 67.2418 273.499 69.6352C253.963 73.2413 234.638 78.9478 216.982 86.7052C204.341 92.263 184.519 101.483 186.006 114.985C186.998 124.075 190.623 133.315 193.827 142.166C198.622 155.418 204.088 168.503 209.766 181.518C222.836 211.563 237.246 241.277 253.097 270.407C263.917 290.282 308.13 345.725 309.708 349.896C314.407 362.335 313.58 376.477 312.852 389.301C311.884 406.36 309.378 423.333 307.056 440.292C305.957 448.365 304.613 456.479 304.071 464.595C303.687 470.371 303.357 477.957 307.454 483.017C315.449 492.893 333.74 481.89 341.478 477.34C365.203 463.4 385.747 445.767 406.753 429.233C417.067 421.12 427.364 412.882 438.505 405.517C443.003 402.546 452.036 395.1 458.197 398.357Z" stroke="url(#paint19_linear)" stroke-width="5"/>
<path fill-rule="evenodd" clip-rule="evenodd" d="M463.314 391.067C483.276 405.457 498.122 425.319 514.794 442.461C523.164 451.064 531.763 459.722 541.733 467.143C546.917 471.003 553.473 475.823 560.7 476.566C580.032 478.554 577.418 448.71 578.152 439.777C579.576 422.507 580.656 402.997 590.522 387.329C596.553 377.756 606.452 373.042 619.462 374.831C625.235 375.624 630.138 376.859 635.807 374.831C641.549 372.776 645.601 368.494 648.638 364.159C657.374 351.7 660.167 336.216 662.248 322.189C664.671 305.733 665.618 289.154 665.079 272.584C664.615 258.072 669.84 243.63 673.284 229.46C677.845 210.689 681.828 191.578 681.226 172.37C680.747 157.2 676.99 141.91 667.003 128.942C656.833 115.764 641.609 107.841 625.182 100.697C600.349 89.8991 567.072 76.4416 557.64 52.7514C556.266 49.3059 556.115 46.0947 555.876 42.5411C555.76 40.815 555.724 38.5863 553.528 37.73C548.239 35.6704 537.986 43.2847 534.413 45.4097C523.005 52.1925 512.111 59.5454 500.855 66.4973C490.346 72.9871 479.394 80.0561 467.079 84.0875C447.466 90.503 435.998 69.9923 417.309 70.5669C405.706 70.9252 397.385 80.0313 391.629 87.2423C384.551 96.1208 379.897 108.904 366.98 113.348C357.359 116.658 351.76 111.464 344.459 107.465C332.089 100.686 315.321 100.224 301.002 100.93C281.653 101.881 262.018 105.596 244.233 111.922C236.171 114.788 227.784 118.299 221.522 123.468C215.653 128.311 214.15 132.894 215.351 139.366C219.034 159.178 229.301 179.182 238.471 198.181C249.995 222.051 262.716 245.593 277.03 268.431C286.791 284.005 297.118 299.929 310.604 313.599C314.12 317.161 317.941 320.81 322.578 323.415C326.064 325.384 328.942 326.22 330.932 329.539C336.828 339.378 335.286 353.063 334.673 363.604C333.697 380.46 331.099 397.235 328.76 413.987C327.386 423.762 323.062 442.177 333.433 449.983C342.389 456.72 357.659 448.59 365.548 444.437C385.499 433.932 403.009 420.418 421.039 407.88C429.302 402.134 437.628 396.162 446.815 391.416C449.157 390.204 452.26 388.261 455.106 387.928C458.366 387.554 460.853 389.3 463.314 391.067Z" stroke="url(#paint20_linear)" stroke-width="5"/>
<path fill-rule="evenodd" clip-rule="evenodd" d="M458.666 389.83C476.317 403.127 490.817 419.147 507.334 433.422C514.739 439.823 522.508 446.287 531.542 451.164C536.4 453.787 542.516 456.573 548.554 455.849C565.885 453.774 564.32 429.228 565.335 419.311C566.826 404.576 568.328 387.648 577.673 374.619C583.794 366.084 592.834 362.884 604.492 364.477C616.998 366.188 626.076 362.363 633.053 353.659C641.793 342.746 645.355 328.971 647.886 316.301C650.921 301.035 652.266 285.576 651.905 270.112C651.553 255.073 654.629 240.502 656.629 225.562C659.278 205.754 660.585 185.31 655.154 165.725C650.425 148.673 640.005 133.271 623.889 121.725C607.07 109.665 585.879 103.695 567.272 93.9019C555.665 87.7942 540.312 79.2773 535.801 67.8642C534.296 64.0576 536.326 57.1205 528.923 60.1609C524.69 61.8985 520.976 65.1507 517.515 67.72C511.922 71.8714 506.484 76.1603 500.968 80.3816C489.21 89.3786 477.202 99.0135 463.28 105.757C445.751 114.253 432.26 101.623 414.486 103.163C404.921 103.99 397.287 109.439 391.29 115.204C387.405 118.934 384.041 123.016 380.902 127.183C377.623 131.535 375.125 136.685 370.886 140.48C364.853 145.889 357.711 143.541 349.913 142.527C336.207 140.742 322.284 140.35 308.461 141.359C291.518 142.594 274.09 145.491 258.693 151.591C252.699 153.965 246.344 156.971 242.325 161.436C238.306 165.901 238.581 170.519 239.791 175.635C243.368 190.809 251.689 205.952 259.576 220.347C269.45 238.364 280.484 256.026 293.036 272.893C301.702 284.536 311.063 296.218 322.813 305.958C326.232 308.791 329.894 311.487 333.982 313.666C336.785 315.163 340.402 315.965 342.51 318.133C349.087 324.917 347.123 338.536 346.741 346.492C345.979 362.37 342.356 377.998 341.475 393.855C340.994 402.509 339.783 416.064 348.776 422.419C357.23 428.396 370.545 422.983 378.69 419.41C394.706 412.39 408.976 402.958 423.864 394.504C429.99 391.029 436.4 387.22 443.396 384.968C449.63 382.967 454.141 386.422 458.666 389.83Z" stroke="url(#paint21_linear)" stroke-width="5"/>
<path fill-rule="evenodd" clip-rule="evenodd" d="M458.378 386.559C473.909 397.143 487.697 409.903 503.481 420.564C512.725 426.804 528.265 437.55 541.297 432.724C555.617 427.43 556.007 408.975 557.161 398.308C558.534 385.611 560.41 370.701 569.352 359.835C572.179 356.399 575.92 353.471 580.848 352.231C586.123 350.902 590.738 352.354 596.017 352.544C607.093 352.94 615.985 347.522 622.092 340.352C630.726 330.218 634.808 317.546 637.654 305.577C640.864 292.017 642.446 278.231 642.379 264.418C642.324 251.217 642.681 238.156 643.093 224.942C643.642 207.66 642.755 190.135 637.154 173.372C631.632 156.858 621.284 141.845 606.063 130.051C591.21 118.546 573.055 110.784 554.562 103.985C544.066 100.127 528.38 93.6104 523.078 84.4089C520.719 80.3171 520.881 76.3019 514.744 80.6527C507.017 86.1316 500.817 93.5158 494.207 99.8618C484.67 109.016 474.945 118.4 463.605 126.083C456.364 130.99 449.337 133.177 439.962 132.839C432.819 132.578 425.751 131.394 418.582 131.993C401.753 133.395 390.213 144.257 379.467 153.859C372.555 160.036 367.284 165.677 357.452 168.857C345.832 172.618 333.19 174.196 321.126 176.709C307.877 179.47 294.095 182.659 282.426 188.685C272.036 194.049 267.377 200.573 270.177 210.338C274.539 225.568 285.285 240.579 295.227 254.1C305.341 267.861 316.714 281.387 330.617 292.79C338.124 298.947 346.939 303.149 355.005 308.617C365.13 315.495 361.295 331.053 360.438 340.3C359.015 355.649 348.368 403.946 382.854 399.49C397.248 397.63 410.533 390.304 423.235 384.947C428.507 382.726 434.833 379.513 440.874 379.011C447.453 378.463 453.702 383.377 458.378 386.559Z" stroke="url(#paint22_linear)" stroke-width="5"/>
<path fill-rule="evenodd" clip-rule="evenodd" d="M457.059 380.971C471.134 389.059 484.431 398.739 499.632 405.679C509.477 410.181 522.632 414.602 533.048 408.795C544.803 402.239 547.544 387.785 549.041 377.165C550.583 366.222 551.881 353.159 560.794 344.215C563.633 341.37 567.462 339.024 572.046 338.587C576.444 338.167 580.841 339.355 585.318 338.961C595.372 338.079 603.656 333.084 609.664 326.643C627.438 307.592 631.391 279.237 631.855 256.251C632.086 244.746 630.874 232.905 630.005 221.326C628.879 206.3 626.46 191.251 620.63 176.921C608.24 146.452 580.761 126.03 546.568 111.767C535.805 107.279 524.16 103.843 515.51 96.8087C511.044 93.1822 507.837 93.9746 503.763 97.6821C497.398 103.479 492.533 110.549 487.22 116.983C479.665 126.134 471.997 135.48 462.946 143.573C456.707 149.151 450.696 153.111 441.341 154.313C434.67 155.171 427.873 154.97 421.161 155.486C408.411 156.467 395.757 159.828 385.181 165.778C376.799 170.505 369.18 176.133 361.916 181.95C352.458 189.511 342.85 195.906 331.625 201.649C316.767 209.262 289.359 219.959 296.612 237.892C304.616 257.67 324.952 276.207 344.655 288.897C351.271 293.158 359.384 296.656 364.263 302.403C371.555 311.007 371.299 319.737 371.269 329.97C371.227 345.291 367.168 378.63 395.18 378.99C406.278 379.132 416.772 375.197 427.447 373.313C439.403 371.188 447.467 375.447 457.059 380.971Z" stroke="#0F3460" stroke-width="5"/>
<path fill-rule="evenodd" clip-rule="evenodd" d="M455.804 374.947C474.148 382.947 504.291 400.887 524.69 387.242C535.47 380.035 539.521 367.287 541.935 356.592C543.888 347.986 544.621 337.608 552.899 331.105C558.986 326.326 567.843 328.447 575.462 326.616C584.907 324.343 592.636 319.127 598.445 312.717C614.68 294.804 619.662 269.898 620.722 248.35C621.821 225.97 616.682 201.312 606.797 180.252C594.468 153.995 571.123 134.323 541.559 120.565C536.102 118.027 530.501 115.721 524.978 113.284C521.273 111.646 517.689 109.218 513.791 107.928C507.293 105.779 501.981 108.31 497.746 112.369C491.649 118.207 487.309 125.379 482.734 132.034C476.472 141.136 470.322 150.44 462.975 158.907C458.031 164.596 452.706 170.552 444.128 172.588C438.278 173.977 432.082 174.266 426.023 174.216C413.032 174.108 402.527 174.667 390.629 179.635C371.095 187.811 353.531 200.384 338.917 213.666C327.448 224.09 309.631 240.584 317.299 255.771C324.165 269.398 340.601 277.369 353.888 286.347C360.348 290.712 366.248 295.615 370.843 301.376C376.635 308.64 379.066 315.478 380.013 324.084C381.609 338.569 382.024 360.41 403.227 364.888C411.052 366.541 419.157 365.597 427.083 366.464C437.564 367.597 446.551 370.911 455.804 374.947Z" stroke="url(#paint23_linear)" stroke-width="5"/>
<path fill-rule="evenodd" clip-rule="evenodd" d="M455.125 366.628C475.197 372.325 500.493 379.809 518.332 366.049C526.974 359.384 531.805 350.01 535.415 340.936C538.003 334.438 538.764 324.12 546.719 320.136C552.573 317.21 560.648 316.805 566.92 314.158C575.543 310.52 582.645 305.01 588.205 298.546C602.692 281.705 608.29 259.77 609.893 239.766C613.372 196.302 585.67 152.077 540.092 128.819C526.507 121.884 512.047 112.932 498.167 124.139C483.025 136.375 475.931 154.807 465.172 169.411C461.064 174.991 456.126 182.101 448.688 185.214C444.217 187.087 438.608 187.215 433.686 187.301C421.151 187.526 409.878 188.379 398.181 192.509C380.105 198.888 363.429 209.06 349.769 220.587C337.858 230.639 323.859 244.975 332.446 259.574C339.045 270.768 353.052 277.867 363.377 286.564C374.875 296.243 382.624 308.213 386.41 321.358C390.083 334.145 392.561 348.171 408.167 354.91C413.521 357.221 420.452 359.637 426.378 360.503C436.147 361.902 445.762 363.95 455.125 366.628Z" stroke="url(#paint24_linear)" stroke-width="5"/>
<path fill-rule="evenodd" clip-rule="evenodd" d="M454.983 357.352C475.252 359.988 496.386 360.281 512.361 348.035C519.813 342.32 525.108 335.096 529.905 327.791C533.434 322.416 536.412 316.866 542.198 312.852C547.556 309.133 553.777 306.305 559.275 302.715C566.561 297.978 572.868 292.311 577.955 285.931C590.68 269.937 596.631 250.481 598.696 231.868C599.699 222.857 600.222 213.083 597.486 204.133C594.847 195.49 590.674 186.943 585.808 178.996C575.475 162.101 560.342 147.459 541.209 136.845C528.085 129.567 515.324 125.631 502.011 135.056C487.004 145.682 478.724 162.343 468.984 176.075C462.304 185.493 455.756 196.049 441.56 197.808C430.264 199.209 419.543 200.347 408.866 203.971C393.117 209.365 378.851 217.297 366.913 227.295C356.038 236.438 346.81 248.005 352.619 261.084C357.229 271.446 367.557 279.486 374.94 288.539C383.187 298.629 387.734 309.714 391.391 321.387C394.689 331.877 399.758 341.755 410.521 348.535C412.72 349.923 415.114 351.381 417.575 352.451C420.714 353.816 423.826 353.71 427.345 353.978C436.631 354.676 445.81 356.161 454.983 357.352Z" stroke="#0F3460" stroke-width="5"/>
<path fill-rule="evenodd" clip-rule="evenodd" d="M456.64 347.125C475.892 346.899 494.087 343.106 509.09 332.715C515.508 328.272 520.795 322.967 526.676 318.079C531.418 314.144 535.823 310.424 539.73 305.898C548.982 295.163 560.954 286.438 569.192 275.029C580.206 259.8 586.293 242.354 588.728 225.044C589.917 216.592 590.333 207.86 588.989 199.309C587.835 191.964 583.785 184.93 579.641 178.405C571.524 165.616 559.987 153.199 545.391 144.895C513.212 126.587 489.816 162.682 476.115 181.208C469.812 189.728 462.513 202.747 450.029 206.237C441.111 208.732 432.041 210.251 423.398 213.464C400.186 222.095 372.886 239.614 376.521 262.961C378.073 272.951 384.382 282.056 388.616 291.382C392.978 300.985 395.409 310.897 398.077 320.878C400.569 330.206 404.115 337.641 413.623 343.666C418.163 346.546 423.599 346.292 429.169 346.548C438.319 346.967 447.521 347.226 456.64 347.125Z" stroke="url(#paint25_linear)" stroke-width="5"/>
<path fill-rule="evenodd" clip-rule="evenodd" d="M459.106 337.812C488.165 334.061 519.889 320.131 536.765 299.648C556.617 275.554 573.334 249.452 578.139 220.665C580.368 207.319 581.464 192.699 574.177 180.105C568.635 170.521 560.351 159.388 548.701 154.114C520.205 141.209 497.521 169.912 484.337 186.266C477.24 195.07 470.324 206.278 459.96 212.914C453.951 216.763 446.002 218.729 439.402 221.837C419.402 231.257 403.271 246.763 400.386 266.078C399.053 275.009 400.702 284.005 402.012 292.868C403.353 301.941 404.081 311.126 405.953 320.142C407.447 327.339 409.978 335.822 419.378 338.472C431.223 341.815 447.239 339.342 459.106 337.812Z" stroke="url(#paint26_linear)" stroke-width="5"/>
<path fill-rule="evenodd" clip-rule="evenodd" d="M463.774 328.679C491.094 323.209 517.744 311.626 534.054 292.152C542.702 281.826 548.672 269.838 554.571 258.329C561.256 245.283 566.445 231.653 569.019 217.731C572.225 200.397 575.116 172.324 551.013 163.268C527.088 154.279 505.914 176.993 493.847 190.425C486.117 199.037 479.022 208.253 470.572 216.481C465.99 220.942 460.697 224.379 455.323 228.155C440.435 238.59 428.649 253.466 422.357 268.629C416.258 283.324 413.558 301.504 415.573 317.017C416.439 323.71 419.363 328.494 427.673 330.519C439.225 333.324 452.488 330.941 463.774 328.679Z" stroke="#0F3460" stroke-width="5"/>
<path fill-rule="evenodd" clip-rule="evenodd" d="M471.132 319.605C495.187 314.171 517.158 302.449 531.595 285.352C547.779 266.187 556.772 241.509 561.346 218.827C563.775 206.771 570.361 180.644 551.512 174.498C532.663 168.353 514.088 186.118 503.862 196.343C491.471 208.753 479.507 222.133 468.388 235.497C458.722 247.108 448.838 259.498 441.373 272.074C437.139 279.167 433.681 286.556 431.041 294.153C429.102 299.778 426.211 306.932 427.654 312.83C431.299 327.706 459.631 322.204 471.132 319.605Z" stroke="url(#paint27_linear)" stroke-width="5"/>
<path fill-rule="evenodd" clip-rule="evenodd" d="M478.336 308.404C523.826 296.48 546.199 258.703 553.997 222.33C555.807 213.878 562.334 190.185 548.437 185.46C534.964 180.882 518.986 195.442 511.416 202.259C487.958 223.381 470.565 249.477 453.334 274.206C447.956 281.925 436.284 295.846 441.668 305.42C447.524 315.816 468.903 310.874 478.336 308.404Z" stroke="url(#paint28_linear)" stroke-width="5"/>
<path fill-rule="evenodd" clip-rule="evenodd" d="M487.091 296.19C520.591 285.821 539.805 255.662 546.139 227.933C547.689 221.141 552.514 203.893 543.166 198.749C534.518 193.988 521.987 205.348 517.008 209.599C505.92 219.06 496.786 230.274 488.006 241.352C479.883 251.594 471.557 261.948 464.687 272.725C461.071 278.402 453.355 289.049 458.938 295.5C464.945 302.445 479.652 298.493 487.091 296.19Z" stroke="url(#paint29_linear)" stroke-width="5"/>
<path fill-rule="evenodd" clip-rule="evenodd" d="M496.879 282.732C518.756 274.829 532.962 253.662 537.683 234.99C538.95 229.966 542.238 219.107 536.396 214.869C531.015 210.967 523.127 217.255 519.484 220.046C503.337 232.416 488.914 250.53 480.055 267.127C477.828 271.299 473.457 278.801 477.952 283.093C482.568 287.496 491.856 284.547 496.879 282.732Z" stroke="url(#paint30_linear)" stroke-width="5"/>
<path fill-rule="evenodd" clip-rule="evenodd" d="M506.068 268.454C516.932 264.001 525.128 252.362 527.737 242.72C529.571 235.935 527.986 227.778 518.53 233.692C509.146 239.567 500.576 250.467 496.776 259.705C493.878 266.754 496.737 272.279 506.068 268.454Z" stroke="#0F3460" stroke-width="5"/>
<path fill-rule="evenodd" clip-rule="evenodd" d="M93.9624 174.929C80.3803 193.272 69.169 214.008 57.7736 233.562C41.1229 262.138 24.9199 291.135 12.5163 321.161C5.86811 337.259 -3.71685 358.119 1.49183 375.393C3.39564 381.708 9.15376 387.468 12.8955 393.13C18.0547 400.938 22.9584 408.861 27.8732 416.771C37.7246 432.637 47.4772 448.553 57.9605 464.147C63.0098 471.655 69.3696 478.941 73.6772 486.758C76.1963 491.327 75.0178 496.793 74.8585 501.675C74.4876 512.982 73.7843 524.282 73.1854 535.582C72.4547 549.404 71.6772 563.257 71.9657 577.095C72.0975 583.336 70.7459 598.622 77.3062 602.057C80.8391 603.906 87.2099 599.549 90.1576 597.53C95.5751 593.821 100.457 589.559 105.289 585.353C116.465 575.627 127.107 565.297 139.591 556.651C146.008 552.209 153.849 546.389 162.609 549.289C171.458 552.216 179.12 557.286 187.939 560.38C198.087 563.942 208.647 565.419 219.408 567.101C227.361 568.346 234.407 571.246 241.74 573.972C249.844 576.985 258.017 580.105 266.563 582.197C272.209 583.579 282.365 585.811 285.939 580.974C291.022 574.103 286.906 561.217 285.409 553.385C283.343 542.559 280.711 531.813 278.445 521.017C276.797 513.18 274.989 505.315 274.797 497.347C274.486 484.502 275.56 471.615 276.56 458.804C278.412 435.082 280.923 411.53 280.923 387.729C280.923 366.876 251.481 318.687 246.297 307.407C235.948 284.892 226.138 261.778 212.369 240.472C208.641 234.708 203.674 225.837 196.002 222.805C191.274 220.934 188.54 221.794 185.494 217.381C181.337 211.36 179.705 203.647 177.845 196.982C174.851 186.25 172.315 175.433 169.604 164.651C164.134 142.843 157.947 121.184 151.994 99.4658C150.195 92.9004 149.796 84.9571 146.626 78.698C144.59 74.6633 142.027 75.0821 138.934 78.2049C133.506 83.6828 130.492 91.3604 127.396 97.8312C122.86 107.312 118.814 116.949 114.825 126.589C110.836 136.23 106.97 145.921 102.973 155.566C100.341 161.938 98.2013 169.203 93.9624 174.929Z" stroke="url(#paint31_linear)" stroke-width="5"/>
<path fill-rule="evenodd" clip-rule="evenodd" d="M96.9501 190.023C83.3403 209.426 72.4982 230.964 61.9201 251.727C48.3736 278.301 35.6771 305.475 27.2092 333.474C22.2407 349.914 16.7549 369.31 22.4525 386.107C24.4856 392.1 29.0552 396.577 33.0883 401.714C37.691 407.569 41.9084 413.649 46.0599 419.729C54.6049 432.246 62.8582 444.894 70.82 457.675C75.054 464.445 80.724 471.896 82.1931 479.544C83.3624 485.624 81.6704 492.531 81.178 498.639C80.2921 509.637 79.3787 520.634 78.6029 531.637C77.7088 544.333 76.8835 557.066 77.0265 569.79C77.1063 576.881 75.7885 589.055 81.3816 594.071C86.2621 598.446 103.913 582.516 107.267 579.714C117.738 570.965 127.708 561.764 138.905 553.621C145.507 548.808 153.538 542.948 162.289 540.919C169.747 539.192 178.246 542.525 185.14 544.493C193.776 546.955 202.728 548.941 211.182 551.801C218.715 554.348 225.425 558.402 232.272 561.962C239.805 565.878 247.461 569.844 255.679 572.751C260.735 574.532 269.203 577.48 274.023 573.94C279.581 569.851 275.949 557.244 275.157 552.062C273.528 541.55 271.107 531.119 268.939 520.679C265.341 503.338 262.193 486.807 262.947 469.149C263.932 446.154 266.249 423.182 267.531 400.191C268.009 391.701 268.972 383.076 268.452 374.58C268.152 369.708 266.337 365.999 262.24 363.166C256.65 359.298 253.555 350.387 250.347 344.189C245.348 334.526 240.699 324.741 235.989 314.983C225.645 293.562 215.675 271.73 202.296 251.414C198.065 244.987 193.347 237.628 186.356 232.874C182.458 230.221 178.702 230.89 174.559 229.271C169.109 227.127 166.65 220.078 164.867 215.865C161.423 207.733 159.114 199.268 156.952 190.868C152.061 171.861 148.844 152.809 146.476 133.494C145.925 128.968 144.019 111.143 134.83 120.505C124.676 130.848 119.699 145.783 113.977 157.96C108.832 168.929 104.045 179.907 96.9501 190.023Z" stroke="url(#paint32_linear)" stroke-width="5"/>
<path fill-rule="evenodd" clip-rule="evenodd" d="M99.467 216.838C87.4937 235.076 78.5611 255.28 70.0157 274.923C59.6465 298.758 50.4035 323.191 45.2258 348.191C41.9763 363.895 39.4795 381.208 44.8797 396.807C48.5659 407.459 58.5313 415.699 65.3874 425.054C72.2434 434.41 78.6792 444.145 84.0437 454.17C87.3728 460.392 90.7267 467.085 90.2872 474.009C89.2214 490.842 86.6806 507.656 85.4473 524.507C84.6233 535.655 83.9448 546.826 84.1481 558.008C84.269 564.75 83.7745 574.014 88.1035 579.983C92.8912 586.582 133.769 551.447 138.37 548.127C149.907 539.801 165.217 529.719 181.624 531.329C197.308 532.869 209.018 539.542 221.307 547.089C228.298 551.373 246.973 565.109 256.065 560.018C261.262 557.11 259.463 547.525 259.109 542.971C258.411 533.996 256.911 525.071 255.609 516.143C253.722 503.126 250.808 489.751 249.954 476.678C249.36 467.575 250.154 458.417 250.171 449.298C250.193 436.223 250.072 423.147 249.929 410.072C249.808 399.093 249.929 388.021 248.643 377.081C247.852 370.279 246.075 365.117 241.054 360.238C236.687 355.993 234.129 349.588 231.352 344.178C226.768 335.241 222.518 326.188 218.2 317.163C209.158 298.269 200.305 279.159 189.005 261.074C183.849 252.818 176.63 238.938 164.13 237.001C159.622 236.302 157.675 235.788 155.112 232.181C151.475 227.062 149.835 220.93 148.41 215.185C145.086 201.794 145.583 188.015 142.298 174.647C140.944 169.202 138.021 162.094 131.33 168.31C123.504 175.562 119.203 186.119 114.368 194.808C111.957 199.145 109.699 203.614 106.754 207.732C104.485 210.895 101.576 213.603 99.467 216.838Z" stroke="url(#paint33_linear)" stroke-width="5"/>
<path fill-rule="evenodd" clip-rule="evenodd" d="M103.205 251.381C93.4804 268.231 86.4098 286.53 80.0357 304.501C72.9651 324.462 67.1087 344.904 64.6169 365.616C62.8905 379.918 62.3811 395.156 67.6648 409.037C71.0074 417.815 78.0368 423.766 83.9317 431.32C92.8416 442.721 99.9013 455.055 98.1832 468.752C96.2613 484.107 94.8195 499.512 93.8576 514.968C93.2767 524.291 92.8417 533.65 93.2464 542.984C93.4997 548.886 93.9265 556.489 97.1892 561.624C101.559 568.493 134.808 542.69 139.654 539.473C151.673 531.496 164.283 525.648 179.173 522.232C191.324 519.445 200.875 525.137 209.964 531.01C215.609 534.661 229.805 546.457 237.135 542.764C241.177 540.738 240.967 534.062 241.174 530.476C241.565 523.643 241.157 516.78 240.978 509.947C240.703 499.856 242.595 489.115 241.072 479.11C237.702 456.937 234.783 434.82 232.473 412.51C231.201 400.211 230.045 387.839 227.591 375.65C226.71 371.275 225.777 366.755 223.784 362.609C222.503 359.942 220.323 358.488 218.533 356.237C210.014 345.505 205.631 331.496 200.171 319.408C192.913 303.34 185.768 287.185 177.194 271.544C172.684 263.318 167.502 251.827 158.297 246.166C155.516 244.456 153.292 245.185 150.618 244.109C147.534 242.871 146.615 239.11 145.756 236.681C143.804 231.169 140.852 208.095 129.401 218.728C123.946 223.802 120.447 230.266 116.16 235.986C114.607 238.056 113.046 240.075 110.95 241.802C107.437 244.69 105.433 247.535 103.205 251.381Z" stroke="#0F3460" stroke-width="5"/>
<path fill-rule="evenodd" clip-rule="evenodd" d="M107.416 288.187C91.682 321.451 80.9628 360.435 83.0396 396.7C83.7327 408.76 86.046 421.736 93.9623 432.19C98.6384 438.354 103.917 443.28 105.606 450.685C106.824 456.031 105.441 461.786 104.94 467.164C104.214 474.952 103.565 482.744 103.039 490.544C102.398 500.213 101.903 509.914 102.167 519.601C102.357 526.523 102.143 536.082 106.681 542.095C112.094 549.274 137.488 531 142.013 528.429C152.98 522.197 163.606 517.828 176.822 516.249C180.673 515.785 184.62 514.219 188.501 514.422C192.465 514.634 195.994 516.635 199.111 518.482C203.195 520.898 212.883 529.279 217.864 526.879C220.615 525.553 220.962 520.575 221.545 517.995C222.645 513.155 223.236 508.245 224.111 503.375C225.602 495.113 230.457 486.91 230.319 478.619C229.956 456.324 221.517 433.706 216.882 411.857C214.118 398.868 211.609 385.791 207.866 372.959C206.68 368.899 205.454 364.718 203.443 360.859C202.04 358.166 199.54 356.436 197.969 353.941C191.937 344.376 188.276 333.376 184.216 323.104C178.935 309.77 173.813 296.39 168.191 283.149C164.667 274.848 161.567 264.176 155.032 257.023C150.259 251.8 148.832 255.37 144.387 258.126C142.12 259.534 139.887 259.209 137.32 259.82C133.657 260.693 131.019 263.161 128.648 265.475C125.372 268.666 122.673 272.918 118.657 275.527C117.244 276.448 115.489 276.405 114.256 277.149C110.667 279.314 108.895 285.059 107.416 288.187Z" stroke="url(#paint34_linear)" stroke-width="5"/>
<path fill-rule="evenodd" clip-rule="evenodd" d="M113.021 323.554C103.129 350.551 97.4969 380.59 100.111 409.127C101.022 419.056 103.137 429.046 107.785 438.295C109.893 442.502 112.242 445.661 112.369 450.272C112.661 460.971 111.64 471.704 111.395 482.401C111.219 490.055 111.156 497.749 111.907 505.386C112.407 510.492 113.007 517.397 116.829 521.58C122.396 527.659 141.318 516.686 146.546 514.452C155.216 510.751 164.855 507.079 174.887 508.547C177.955 508.997 180.665 509.794 183.794 509.898C186.482 509.997 188.964 509.72 191.534 510.501C194.72 511.467 199.665 515.763 202.598 514.286C204.601 513.279 204.695 510.294 205.336 508.308C206.376 505.087 207.74 501.942 209.414 498.906C211.186 495.709 213.924 492.987 215.387 489.675C217.759 484.298 217.982 478.28 217.971 472.629C217.927 450.081 212.498 427.247 206.822 405.27C203.867 393.826 200.716 382.319 196.234 371.197C194.872 367.819 193.504 363.992 190.989 361.022C189.424 359.169 187.462 357.913 186.284 355.808C176.23 337.826 172.496 317.036 165.235 297.946C163.344 292.977 153.794 265.439 144.81 279.837C139.351 288.584 136.869 297.826 129.401 305.808C127.131 308.239 125.252 309.86 121.788 310.81C119.482 311.436 120.651 309.93 118.241 312.033C115.343 314.584 114.174 320.408 113.021 323.554Z" stroke="#0F3460" stroke-width="5"/>
<path fill-rule="evenodd" clip-rule="evenodd" d="M118.87 351.624C110.796 383.232 110.412 416.704 117.57 448.811C119.372 456.905 118.942 465.328 119.4 473.521C119.839 481.482 118.925 495.635 126.396 501.417C131.811 505.61 143.32 501.061 149.378 499.487C157.095 497.482 165.068 495.73 172.563 499.022C176.953 500.95 181.131 503.592 185.479 505.66C187.556 506.648 190.739 508.685 192.706 507.836C195.951 506.432 197.318 499.862 198.848 496.674C203.74 486.485 204.988 475.696 204.953 464.802C204.89 444.682 201.532 424.457 196.977 404.721C194.881 395.64 192.645 386.433 189.002 377.676C186.942 372.72 182.966 369.065 180.61 364.333C173.016 349.096 168.958 332.725 162.014 317.226C160.003 312.74 153.309 295.984 145.416 304.425C137.776 312.598 138.684 324.519 131.496 333.017C130.673 333.978 129.688 335.168 128.357 335.726C127.562 336.055 126.047 335.475 125.595 335.726C120.676 338.336 119.894 347.612 118.87 351.624Z" stroke="url(#paint35_linear)" stroke-width="5"/>
</g>
</g>
<defs>
<linearGradient id="paint0_linear" x1="168.903" y1="389.303" x2="715" y2="389.303" gradientUnits="userSpaceOnUse">
<stop stop-color="#FF415B"/>
<stop offset="1" stop-color="#41C6FF"/>
</linearGradient>
<linearGradient id="paint1_linear" x1="185.927" y1="391.139" x2="695.973" y2="391.139" gradientUnits="userSpaceOnUse">
<stop stop-color="#1D0808"/>
<stop offset="1" stop-color="#C9C9C9" stop-opacity="0"/>
</linearGradient>
<linearGradient id="paint2_linear" x1="214.968" y1="395.98" x2="681.287" y2="395.98" gradientUnits="userSpaceOnUse">
<stop stop-color="#FF415B"/>
<stop offset="1" stop-color="#41C6FF"/>
</linearGradient>
<linearGradient id="paint3_linear" x1="239.001" y1="395.312" x2="658.922" y2="395.312" gradientUnits="userSpaceOnUse">
<stop stop-color="#1D0808"/>
<stop offset="1" stop-color="#C9C9C9" stop-opacity="0"/>
</linearGradient>
<linearGradient id="paint4_linear" x1="269.377" y1="396.647" x2="643.233" y2="396.647" gradientUnits="userSpaceOnUse">
<stop stop-color="#DE2E6D"/>
<stop offset="1" stop-color="#C4A9D9"/>
</linearGradient>
<linearGradient id="paint5_linear" x1="315.441" y1="403.323" x2="620.868" y2="403.323" gradientUnits="userSpaceOnUse">
<stop stop-color="#FF415B"/>
<stop offset="1" stop-color="#41C6FF"/>
</linearGradient>
<linearGradient id="paint6_linear" x1="329.794" y1="406.661" x2="610.186" y2="406.661" gradientUnits="userSpaceOnUse">
<stop stop-color="#DE2E6D"/>
<stop offset="1" stop-color="#C4A9D9"/>
</linearGradient>
<linearGradient id="paint7_linear" x1="376.193" y1="409.498" x2="589.825" y2="409.498" gradientUnits="userSpaceOnUse">
<stop stop-color="#FF415B"/>
<stop offset="1" stop-color="#41C6FF"/>
</linearGradient>
<linearGradient id="paint8_linear" x1="399.893" y1="407.495" x2="579.811" y2="407.495" gradientUnits="userSpaceOnUse">
<stop stop-color="#1D0808"/>
<stop offset="1" stop-color="#C9C9C9" stop-opacity="0"/>
</linearGradient>
<linearGradient id="paint9_linear" x1="427.265" y1="404.992" x2="564.457" y2="404.992" gradientUnits="userSpaceOnUse">
<stop stop-color="#DE2E6D"/>
<stop offset="1" stop-color="#C4A9D9"/>
</linearGradient>
<linearGradient id="paint10_linear" x1="440.282" y1="404.825" x2="557.113" y2="404.825" gradientUnits="userSpaceOnUse">
<stop stop-color="#1D0808"/>
<stop offset="1" stop-color="#C9C9C9" stop-opacity="0"/>
</linearGradient>
<linearGradient id="paint11_linear" x1="456.972" y1="404.491" x2="548.768" y2="404.491" gradientUnits="userSpaceOnUse">
<stop stop-color="#1D0808"/>
<stop offset="1" stop-color="#C9C9C9" stop-opacity="0"/>
</linearGradient>
<linearGradient id="paint12_linear" x1="475.999" y1="403.49" x2="539.755" y2="403.49" gradientUnits="userSpaceOnUse">
<stop stop-color="#FF415B"/>
<stop offset="1" stop-color="#41C6FF"/>
</linearGradient>
<linearGradient id="paint13_linear" x1="-1.15122e-05" y1="313.864" x2="288.403" y2="313.864" gradientUnits="userSpaceOnUse">
<stop stop-color="#DE2E6D"/>
<stop offset="1" stop-color="#C4A9D9"/>
</linearGradient>
<linearGradient id="paint14_linear" x1="20.0281" y1="296.674" x2="277.054" y2="296.674" gradientUnits="userSpaceOnUse">
<stop stop-color="#FF415B"/>
<stop offset="1" stop-color="#41C6FF"/>
</linearGradient>
<linearGradient id="paint15_linear" x1="41.7251" y1="279.65" x2="259.697" y2="279.65" gradientUnits="userSpaceOnUse">
<stop stop-color="#1D0808"/>
<stop offset="1" stop-color="#C9C9C9" stop-opacity="0"/>
</linearGradient>
<linearGradient id="paint16_linear" x1="82.7825" y1="253.947" x2="230.322" y2="253.947" gradientUnits="userSpaceOnUse">
<stop stop-color="#DE2E6D"/>
<stop offset="1" stop-color="#C4A9D9"/>
</linearGradient>
<linearGradient id="paint17_linear" x1="112.49" y1="247.939" x2="204.954" y2="247.939" gradientUnits="userSpaceOnUse">
<stop stop-color="#1D0808"/>
<stop offset="1" stop-color="#C9C9C9" stop-opacity="0"/>
</linearGradient>
<linearGradient id="paint18_linear" x1="168.903" y1="263.697" x2="715" y2="263.697" gradientUnits="userSpaceOnUse">
<stop stop-color="#FF415B"/>
<stop offset="1" stop-color="#41C6FF"/>
</linearGradient>
<linearGradient id="paint19_linear" x1="185.927" y1="261.861" x2="695.973" y2="261.861" gradientUnits="userSpaceOnUse">
<stop stop-color="#1D0808"/>
<stop offset="1" stop-color="#C9C9C9" stop-opacity="0"/>
</linearGradient>
<linearGradient id="paint20_linear" x1="214.968" y1="257.02" x2="681.287" y2="257.02" gradientUnits="userSpaceOnUse">
<stop stop-color="#FF415B"/>
<stop offset="1" stop-color="#41C6FF"/>
</linearGradient>
<linearGradient id="paint21_linear" x1="239.001" y1="257.688" x2="658.922" y2="257.688" gradientUnits="userSpaceOnUse">
<stop stop-color="#1D0808"/>
<stop offset="1" stop-color="#C9C9C9" stop-opacity="0"/>
</linearGradient>
<linearGradient id="paint22_linear" x1="269.377" y1="256.353" x2="643.233" y2="256.353" gradientUnits="userSpaceOnUse">
<stop stop-color="#DE2E6D"/>
<stop offset="1" stop-color="#C4A9D9"/>
</linearGradient>
<linearGradient id="paint23_linear" x1="315.441" y1="249.677" x2="620.868" y2="249.677" gradientUnits="userSpaceOnUse">
<stop stop-color="#FF415B"/>
<stop offset="1" stop-color="#41C6FF"/>
</linearGradient>
<linearGradient id="paint24_linear" x1="329.794" y1="246.339" x2="610.186" y2="246.339" gradientUnits="userSpaceOnUse">
<stop stop-color="#DE2E6D"/>
<stop offset="1" stop-color="#C4A9D9"/>
</linearGradient>
<linearGradient id="paint25_linear" x1="376.193" y1="243.502" x2="589.825" y2="243.502" gradientUnits="userSpaceOnUse">
<stop stop-color="#FF415B"/>
<stop offset="1" stop-color="#41C6FF"/>
</linearGradient>
<linearGradient id="paint26_linear" x1="399.893" y1="245.505" x2="579.811" y2="245.505" gradientUnits="userSpaceOnUse">
<stop stop-color="#1D0808"/>
<stop offset="1" stop-color="#C9C9C9" stop-opacity="0"/>
</linearGradient>
<linearGradient id="paint27_linear" x1="427.265" y1="248.008" x2="564.457" y2="248.008" gradientUnits="userSpaceOnUse">
<stop stop-color="#DE2E6D"/>
<stop offset="1" stop-color="#C4A9D9"/>
</linearGradient>
<linearGradient id="paint28_linear" x1="440.282" y1="248.175" x2="557.113" y2="248.175" gradientUnits="userSpaceOnUse">
<stop stop-color="#1D0808"/>
<stop offset="1" stop-color="#C9C9C9" stop-opacity="0"/>
</linearGradient>
<linearGradient id="paint29_linear" x1="456.972" y1="248.509" x2="548.768" y2="248.509" gradientUnits="userSpaceOnUse">
<stop stop-color="#1D0808"/>
<stop offset="1" stop-color="#C9C9C9" stop-opacity="0"/>
</linearGradient>
<linearGradient id="paint30_linear" x1="475.999" y1="249.51" x2="539.755" y2="249.51" gradientUnits="userSpaceOnUse">
<stop stop-color="#FF415B"/>
<stop offset="1" stop-color="#41C6FF"/>
</linearGradient>
<linearGradient id="paint31_linear" x1="1.15122e-05" y1="339.136" x2="288.403" y2="339.136" gradientUnits="userSpaceOnUse">
<stop stop-color="#DE2E6D"/>
<stop offset="1" stop-color="#C4A9D9"/>
</linearGradient>
<linearGradient id="paint32_linear" x1="20.0281" y1="356.326" x2="277.054" y2="356.326" gradientUnits="userSpaceOnUse">
<stop stop-color="#FF415B"/>
<stop offset="1" stop-color="#41C6FF"/>
</linearGradient>
<linearGradient id="paint33_linear" x1="41.7251" y1="373.35" x2="259.697" y2="373.35" gradientUnits="userSpaceOnUse">
<stop stop-color="#1D0808"/>
<stop offset="1" stop-color="#C9C9C9" stop-opacity="0"/>
</linearGradient>
<linearGradient id="paint34_linear" x1="82.7825" y1="399.053" x2="230.322" y2="399.052" gradientUnits="userSpaceOnUse">
<stop stop-color="#DE2E6D"/>
<stop offset="1" stop-color="#C4A9D9"/>
</linearGradient>
<linearGradient id="paint35_linear" x1="112.49" y1="405.061" x2="204.954" y2="405.061" gradientUnits="userSpaceOnUse">
<stop stop-color="#1D0808"/>
<stop offset="1" stop-color="#C9C9C9" stop-opacity="0"/>
</linearGradient>
<clipPath id="clip0">
<rect width="326" height="718" fill="white" transform="translate(0 652) rotate(-90)"/>
</clipPath>
<clipPath id="clip1">
<rect width="326" height="718" fill="white" transform="matrix(4.37114e-08 1 1 -4.37114e-08 0 1)"/>
</clipPath>
</defs>
</svg>
