<svg width="336" height="721" viewBox="0 0 336 721" fill="none" xmlns="http://www.w3.org/2000/svg">
<g clip-path="url(#clip0)" filter="url(#filter0_f)">
<path fill-rule="evenodd" clip-rule="evenodd" d="M413.281 452.608C413.317 462.036 427.695 472.637 433.837 478.102C445.981 488.913 458.611 498.895 471.125 509.037C483.638 519.18 496.185 529.294 508.117 540.429C515.865 547.657 524.968 555.797 530.223 566.118C541.416 588.113 506.124 584.846 496.982 585.328C473.726 586.557 447.051 585.996 425.252 597.449C412.238 604.287 407.049 615.754 409.844 632.467C410.745 637.902 413.412 644.157 411.153 649.452C408.741 655.107 403.191 658.371 398.585 660.559C381.786 668.532 362.471 669.456 344.697 670.457C325.53 671.556 306.184 671.235 287.153 671.32C279.083 671.356 270.655 674.894 262.971 677.77C252.896 681.539 242.942 685.773 232.951 689.867C210.972 698.851 188.323 708.314 165.069 710.596C150.506 712.026 134.59 710.093 123.277 697.658C117.597 691.415 114.624 682.133 111.34 673.888C107.365 663.927 103.548 653.87 99.3158 644.066C85.6832 612.491 66.2196 581.635 34.6278 580.085C29.8486 579.851 25.155 580.613 20.3983 580.755C17.3691 580.843 14.6732 579.95 13.5471 576.082C10.7161 566.379 19.6145 551.063 23.2631 543.365C31.2517 526.515 40.2606 510.42 48.6996 493.908C54.2828 482.988 63.9471 468.065 64.0484 454.797C64.1385 442.975 51.2559 434.43 44.2425 428.607C37.6705 423.155 25.7631 415.526 25.0424 404.435C24.6933 399.057 27.5986 394.601 30.6324 391.142C35.9498 385.094 42.0759 380.827 46.8596 373.926C54.704 362.605 61.258 347.027 60.1927 331.771C59.4539 321.2 54.5126 314.277 48.2267 307.66C45.5848 304.878 43.4407 302.909 43.3011 298.392C43.0759 291.219 45.3776 283.628 47.274 276.978C54.0576 253.177 63.6926 230.163 74.4109 208.674C79.7666 197.936 85.5526 187.23 92.6538 178.069C97.3046 172.054 103.577 164.895 110.672 164.903C118.885 164.903 127.577 168.521 135.561 171.226C150.473 176.282 165.204 182.127 179.878 188.123C213.811 201.996 247.425 216.993 280.72 233.113C304.173 244.487 328.123 255.877 350.172 270.998C354.472 273.968 358.531 277.43 362.293 281.338C366.313 285.443 371.302 287.279 376.361 288.649C407.756 297.147 442.152 290.623 473.679 286.532C481.681 285.495 489.683 284.453 497.707 283.727C504.606 283.103 512.865 281.313 519.57 284.002C532.781 289.295 521.232 308.801 516.349 316.749C499.158 344.734 476.978 368.411 456.42 392.583C446.645 404.094 436.796 415.575 427.553 427.738C422.74 434.061 413.25 444.344 413.281 452.608Z" stroke="url(#paint0_linear)" stroke-width="5"/>
<path fill-rule="evenodd" clip-rule="evenodd" d="M407.357 454.197C412.626 464.173 421.871 471.546 429.545 478.485C440.588 488.474 451.979 497.908 463.198 507.615C473.806 516.793 484.437 526.076 494.262 536.5C500.252 542.856 507.768 550.457 510.606 559.858C516.761 580.235 483.649 577.144 475.474 577.677C455.152 578.996 432.112 579.298 413.311 590.027C401.571 596.727 396.748 607.837 399.252 623.262C400.118 628.599 401.677 633.155 399.703 638.464C397.42 644.609 392.169 648.44 387.355 651.144C372.275 659.616 354.45 661.416 338.103 662.914C321.216 664.461 303.621 665.552 287.277 664.42C280.741 663.969 273.218 666.528 266.749 668.49C256.797 671.513 246.946 675 237.043 678.243C216.917 684.838 196.268 691.192 175.33 691.914C160.214 692.437 144.454 689.606 131.878 678.666C119.133 667.572 113.478 650.375 106.411 634.026C94.2042 605.762 77.7179 571.397 49.4784 565.426C45.1963 564.519 41.0809 565.011 36.8033 564.788C34.6036 564.676 32.0997 564.318 30.9841 561.672C28.088 554.802 36.0235 542.24 38.6942 536.978C46.073 522.435 54.369 508.604 62.1017 494.341C68.2432 483.017 76.0276 470.433 78.4031 457.009C81.2856 440.718 62.451 429.127 55.8272 417.656C44.3443 397.766 66.0999 386.433 76.8255 376.949C89.1422 366.061 99.3089 346.198 88.2678 329.352C84.0443 322.911 78.8471 319.072 76.9607 310.665C74.0105 297.518 76.2418 282.495 78.6352 269.499C82.2413 249.963 87.9478 230.638 95.7052 212.982C101.263 200.341 110.483 180.519 123.985 182.006C133.075 182.998 142.315 186.623 151.166 189.827C164.418 194.622 177.503 200.088 190.518 205.766C220.563 218.836 250.277 233.246 279.407 249.097C299.282 259.917 354.725 304.13 358.896 305.708C371.335 310.407 385.477 309.58 398.301 308.852C415.36 307.884 432.333 305.378 449.292 303.056C457.365 301.957 465.479 300.613 473.595 300.071C479.371 299.687 486.957 299.357 492.017 303.454C501.893 311.449 490.89 329.74 486.34 337.478C472.4 361.203 454.767 381.747 438.233 402.753C430.12 413.067 421.882 423.364 414.517 434.505C411.546 439.003 404.1 448.036 407.357 454.197Z" stroke="url(#paint1_linear)" stroke-width="5"/>
<path fill-rule="evenodd" clip-rule="evenodd" d="M400.067 459.314C414.457 479.276 434.319 494.122 451.461 510.794C460.064 519.164 468.722 527.763 476.143 537.733C480.003 542.917 484.823 549.473 485.566 556.7C487.554 576.032 457.71 573.418 448.777 574.152C431.507 575.576 411.997 576.656 396.329 586.522C386.756 592.553 382.042 602.452 383.831 615.462C384.624 621.235 385.859 626.138 383.831 631.807C381.776 637.549 377.494 641.601 373.159 644.638C360.7 653.374 345.216 656.167 331.189 658.248C314.733 660.671 298.154 661.618 281.584 661.079C267.072 660.615 252.63 665.84 238.46 669.284C219.689 673.845 200.578 677.828 181.37 677.226C166.2 676.747 150.91 672.99 137.942 663.003C124.764 652.833 116.841 637.609 109.698 621.182C98.8992 596.349 85.4417 563.072 61.7515 553.64C58.306 552.266 55.0948 552.115 51.5412 551.876C49.8151 551.76 47.5864 551.724 46.7301 549.528C44.6705 544.239 52.2848 533.986 54.4098 530.413C61.1926 519.005 68.5455 508.111 75.4974 496.855C81.9872 486.346 89.0562 475.394 93.0876 463.079C99.5031 443.466 78.9924 431.998 79.567 413.309C79.9253 401.706 89.0314 393.385 96.2424 387.629C105.121 380.551 117.904 375.897 122.348 362.98C125.658 353.359 120.464 347.76 116.465 340.459C109.686 328.089 109.224 311.321 109.93 297.002C110.881 277.653 114.596 258.018 120.922 240.233C123.788 232.171 127.299 223.784 132.468 217.522C137.311 211.653 141.894 210.15 148.366 211.351C168.178 215.034 188.182 225.301 207.181 234.471C231.051 245.995 254.593 258.716 277.431 273.03C293.005 282.791 308.929 293.118 322.599 306.604C326.161 310.12 329.81 313.941 332.415 318.578C334.384 322.064 335.22 324.942 338.539 326.932C348.378 332.828 362.063 331.286 372.604 330.673C389.46 329.697 406.235 327.099 422.987 324.76C432.762 323.386 451.177 319.062 458.983 329.433C465.72 338.389 457.59 353.659 453.437 361.548C442.932 381.499 429.418 399.009 416.88 417.039C411.134 425.302 405.162 433.628 400.416 442.815C399.204 445.157 397.261 448.26 396.928 451.106C396.554 454.366 398.3 456.853 400.067 459.314Z" stroke="url(#paint2_linear)" stroke-width="5"/>
<path fill-rule="evenodd" clip-rule="evenodd" d="M398.83 454.666C412.127 472.317 428.147 486.817 442.422 503.334C448.823 510.739 455.287 518.508 460.164 527.542C462.787 532.4 465.573 538.516 464.849 544.554C462.774 561.885 438.228 560.32 428.311 561.335C413.576 562.826 396.648 564.328 383.619 573.673C375.084 579.794 371.884 588.834 373.477 600.492C375.188 612.998 371.363 622.076 362.659 629.053C351.746 637.793 337.971 641.355 325.301 643.886C310.035 646.921 294.576 648.266 279.112 647.905C264.073 647.553 249.502 650.629 234.562 652.629C214.754 655.278 194.31 656.585 174.725 651.154C157.673 646.425 142.271 636.005 130.725 619.889C118.665 603.07 112.695 581.879 102.902 563.272C96.7942 551.665 88.2773 536.312 76.8642 531.801C73.0576 530.296 66.1205 532.326 69.1609 524.923C70.8985 520.69 74.1507 516.976 76.72 513.515C80.8714 507.922 85.1603 502.484 89.3816 496.968C98.3786 485.21 108.014 473.202 114.757 459.28C123.253 441.751 110.623 428.26 112.163 410.486C112.99 400.921 118.439 393.287 124.204 387.29C127.934 383.405 132.016 380.041 136.183 376.902C140.535 373.623 145.685 371.125 149.48 366.886C154.889 360.853 152.541 353.711 151.527 345.913C149.742 332.207 149.35 318.284 150.359 304.461C151.594 287.518 154.491 270.09 160.591 254.693C162.965 248.699 165.971 242.344 170.436 238.325C174.901 234.306 179.519 234.581 184.635 235.791C199.809 239.368 214.952 247.689 229.347 255.576C247.364 265.45 265.026 276.484 281.893 289.036C293.536 297.702 305.218 307.063 314.958 318.813C317.791 322.232 320.487 325.894 322.666 329.982C324.163 332.785 324.965 336.402 327.133 338.51C333.917 345.087 347.536 343.123 355.492 342.741C371.37 341.979 386.998 338.356 402.855 337.475C411.509 336.994 425.064 335.783 431.419 344.776C437.396 353.23 431.983 366.545 428.41 374.69C421.39 390.706 411.958 404.976 403.504 419.864C400.029 425.99 396.22 432.4 393.968 439.396C391.967 445.63 395.422 450.141 398.83 454.666Z" stroke="url(#paint3_linear)" stroke-width="5"/>
<path fill-rule="evenodd" clip-rule="evenodd" d="M395.559 454.378C406.143 469.909 418.903 483.697 429.564 499.481C435.804 508.725 446.55 524.265 441.724 537.297C436.43 551.617 417.975 552.007 407.308 553.161C394.611 554.534 379.701 556.41 368.835 565.352C365.399 568.179 362.471 571.92 361.231 576.848C359.902 582.123 361.354 586.738 361.544 592.017C361.94 603.093 356.522 611.985 349.352 618.092C339.218 626.726 326.546 630.808 314.577 633.654C301.017 636.864 287.231 638.446 273.418 638.379C260.217 638.324 247.156 638.681 233.942 639.093C216.66 639.642 199.135 638.755 182.372 633.154C165.858 627.632 150.845 617.284 139.051 602.063C127.546 587.21 119.784 569.055 112.985 550.562C109.128 540.066 102.61 524.38 93.4089 519.078C89.3171 516.719 85.3019 516.881 89.6527 510.744C95.1316 503.017 102.516 496.817 108.862 490.207C118.016 480.67 127.4 470.945 135.083 459.605C139.99 452.364 142.177 445.337 141.839 435.962C141.578 428.819 140.394 421.751 140.993 414.582C142.395 397.753 153.257 386.213 162.859 375.467C169.036 368.555 174.677 363.284 177.857 353.452C181.618 341.832 183.196 329.19 185.709 317.126C188.47 303.877 191.659 290.095 197.685 278.426C203.049 268.036 209.573 263.377 219.338 266.177C234.568 270.539 249.579 281.285 263.1 291.227C276.861 301.341 290.387 312.714 301.79 326.617C307.947 334.124 312.149 342.939 317.617 351.005C324.495 361.13 340.053 357.295 349.3 356.438C364.649 355.015 412.946 344.368 408.49 378.854C406.63 393.248 399.304 406.533 393.947 419.235C391.726 424.507 388.513 430.833 388.011 436.874C387.463 443.453 392.377 449.702 395.559 454.378Z" stroke="url(#paint4_linear)" stroke-width="5"/>
<path fill-rule="evenodd" clip-rule="evenodd" d="M389.971 453.059C398.059 467.134 407.739 480.431 414.679 495.632C419.181 505.477 423.602 518.632 417.795 529.048C411.239 540.803 396.785 543.544 386.165 545.041C375.222 546.583 362.159 547.881 353.215 556.794C350.37 559.633 348.024 563.462 347.587 568.046C347.167 572.444 348.355 576.841 347.961 581.318C347.079 591.372 342.084 599.656 335.643 605.664C316.592 623.438 288.237 627.391 265.251 627.855C253.746 628.086 241.905 626.874 230.326 626.005C215.3 624.879 200.251 622.46 185.921 616.63C155.452 604.24 135.03 576.761 120.767 542.568C116.279 531.805 112.843 520.16 105.809 511.51C102.182 507.044 102.975 503.837 106.682 499.763C112.479 493.398 119.549 488.533 125.983 483.22C135.134 475.665 144.48 467.997 152.573 458.946C158.151 452.707 162.111 446.696 163.313 437.341C164.171 430.67 163.97 423.873 164.486 417.161C165.467 404.411 168.828 391.757 174.778 381.181C179.505 372.799 185.133 365.18 190.95 357.916C198.511 348.458 204.906 338.85 210.649 327.625C218.262 312.767 228.959 285.359 246.892 292.612C266.67 300.616 285.207 320.952 297.897 340.655C302.158 347.271 305.656 355.384 311.403 360.263C320.007 367.555 328.737 367.299 338.97 367.269C354.291 367.227 387.63 363.168 387.99 391.18C388.132 402.278 384.197 412.772 382.313 423.447C380.188 435.403 384.447 443.467 389.971 453.059Z" stroke="#0F3460" stroke-width="5"/>
<path fill-rule="evenodd" clip-rule="evenodd" d="M383.947 451.804C391.947 470.148 409.887 500.291 396.242 520.69C389.035 531.47 376.287 535.521 365.592 537.935C356.986 539.888 346.608 540.621 340.105 548.899C335.326 554.986 337.447 563.843 335.616 571.462C333.343 580.907 328.127 588.636 321.717 594.445C303.804 610.68 278.898 615.662 257.35 616.722C234.97 617.821 210.312 612.682 189.252 602.797C162.995 590.468 143.323 567.123 129.565 537.559C127.027 532.102 124.721 526.501 122.284 520.978C120.646 517.273 118.218 513.689 116.928 509.791C114.779 503.293 117.31 497.981 121.369 493.746C127.207 487.649 134.379 483.309 141.034 478.734C150.136 472.472 159.44 466.322 167.907 458.975C173.596 454.031 179.552 448.706 181.588 440.128C182.977 434.278 183.266 428.082 183.216 422.023C183.108 409.032 183.667 398.527 188.635 386.629C196.811 367.095 209.384 349.531 222.666 334.917C233.09 323.448 249.584 305.631 264.771 313.299C278.398 320.165 286.369 336.601 295.347 349.888C299.712 356.348 304.615 362.248 310.376 366.843C317.64 372.635 324.478 375.066 333.084 376.013C347.569 377.609 369.41 378.024 373.888 399.227C375.541 407.052 374.597 415.157 375.464 423.083C376.597 433.564 379.911 442.551 383.947 451.804Z" stroke="url(#paint5_linear)" stroke-width="5"/>
<path fill-rule="evenodd" clip-rule="evenodd" d="M375.628 451.125C381.325 471.197 388.809 496.493 375.049 514.332C368.384 522.974 359.01 527.805 349.936 531.415C343.438 534.003 333.12 534.764 329.136 542.719C326.21 548.573 325.805 556.648 323.158 562.92C319.52 571.543 314.01 578.645 307.546 584.205C290.705 598.692 268.77 604.29 248.766 605.893C205.302 609.372 161.077 581.67 137.819 536.092C130.884 522.507 121.932 508.047 133.139 494.167C145.375 479.025 163.807 471.931 178.411 461.172C183.991 457.064 191.101 452.126 194.214 444.688C196.087 440.217 196.215 434.608 196.301 429.686C196.526 417.151 197.379 405.878 201.509 394.181C207.888 376.105 218.06 359.429 229.587 345.769C239.639 333.858 253.975 319.859 268.574 328.446C279.768 335.045 286.867 349.052 295.564 359.377C305.243 370.875 317.213 378.624 330.358 382.41C343.145 386.083 357.171 388.561 363.91 404.167C366.221 409.521 368.637 416.452 369.503 422.378C370.902 432.147 372.95 441.762 375.628 451.125Z" stroke="url(#paint6_linear)" stroke-width="5"/>
<path fill-rule="evenodd" clip-rule="evenodd" d="M366.352 450.983C368.988 471.252 369.281 492.386 357.035 508.361C351.32 515.813 344.096 521.108 336.791 525.905C331.416 529.434 325.866 532.412 321.852 538.198C318.133 543.556 315.305 549.777 311.715 555.275C306.978 562.561 301.311 568.868 294.931 573.955C278.937 586.68 259.481 592.631 240.868 594.696C231.857 595.699 222.083 596.222 213.133 593.486C204.49 590.847 195.943 586.674 187.996 581.808C171.101 571.475 156.459 556.342 145.845 537.209C138.567 524.085 134.631 511.324 144.056 498.011C154.682 483.004 171.343 474.724 185.075 464.984C194.493 458.304 205.049 451.756 206.808 437.56C208.209 426.264 209.347 415.543 212.971 404.866C218.365 389.117 226.297 374.851 236.295 362.913C245.438 352.038 257.005 342.81 270.084 348.619C280.446 353.229 288.486 363.557 297.539 370.94C307.629 379.187 318.714 383.734 330.387 387.391C340.877 390.689 350.755 395.758 357.535 406.521C358.923 408.72 360.381 411.114 361.451 413.575C362.816 416.714 362.71 419.826 362.978 423.345C363.676 432.631 365.161 441.81 366.352 450.983Z" stroke="#0F3460" stroke-width="5"/>
<path fill-rule="evenodd" clip-rule="evenodd" d="M356.125 452.64C355.899 471.892 352.106 490.087 341.715 505.09C337.272 511.508 331.967 516.795 327.079 522.676C323.144 527.418 319.424 531.823 314.898 535.73C304.163 544.982 295.438 556.954 284.029 565.192C268.8 576.206 251.354 582.293 234.044 584.728C225.592 585.917 216.86 586.333 208.309 584.989C200.964 583.835 193.93 579.785 187.405 575.641C174.616 567.524 162.199 555.987 153.895 541.391C135.587 509.212 171.682 485.816 190.208 472.115C198.728 465.812 211.747 458.513 215.237 446.029C217.732 437.111 219.251 428.041 222.464 419.398C231.095 396.186 248.614 368.886 271.961 372.521C281.951 374.073 291.056 380.382 300.382 384.616C309.985 388.978 319.897 391.409 329.878 394.077C339.206 396.569 346.641 400.115 352.666 409.623C355.546 414.163 355.292 419.599 355.548 425.169C355.967 434.319 356.226 443.521 356.125 452.64Z" stroke="url(#paint7_linear)" stroke-width="5"/>
<path fill-rule="evenodd" clip-rule="evenodd" d="M346.812 455.106C343.061 484.165 329.131 515.889 308.648 532.765C284.554 552.617 258.452 569.334 229.665 574.139C216.319 576.368 201.699 577.464 189.105 570.177C179.521 564.635 168.388 556.351 163.114 544.701C150.209 516.205 178.912 493.521 195.266 480.337C204.07 473.24 215.278 466.324 221.914 455.96C225.763 449.951 227.729 442.002 230.837 435.402C240.257 415.402 255.763 399.271 275.078 396.386C284.009 395.053 293.005 396.702 301.868 398.012C310.941 399.353 320.126 400.081 329.142 401.953C336.339 403.447 344.822 405.978 347.472 415.378C350.815 427.223 348.342 443.239 346.812 455.106Z" stroke="url(#paint8_linear)" stroke-width="5"/>
<path fill-rule="evenodd" clip-rule="evenodd" d="M337.679 459.774C332.209 487.094 320.626 513.744 301.152 530.054C290.826 538.702 278.838 544.672 267.329 550.571C254.283 557.256 240.653 562.445 226.731 565.019C209.397 568.225 181.324 571.116 172.268 547.013C163.279 523.088 185.993 501.914 199.425 489.847C208.037 482.117 217.253 475.022 225.481 466.572C229.942 461.99 233.379 456.697 237.155 451.323C247.59 436.435 262.466 424.649 277.629 418.357C292.324 412.258 310.504 409.558 326.017 411.573C332.71 412.439 337.494 415.363 339.519 423.673C342.324 435.225 339.941 448.488 337.679 459.774Z" stroke="#0F3460" stroke-width="5"/>
<path fill-rule="evenodd" clip-rule="evenodd" d="M328.605 467.132C323.171 491.187 311.449 513.158 294.352 527.595C275.187 543.779 250.509 552.772 227.827 557.346C215.771 559.775 189.644 566.361 183.498 547.512C177.353 528.663 195.118 510.088 205.343 499.862C217.753 487.471 231.133 475.507 244.497 464.388C256.108 454.722 268.498 444.838 281.074 437.373C288.167 433.139 295.556 429.681 303.153 427.041C308.778 425.102 315.932 422.211 321.83 423.654C336.706 427.299 331.204 455.631 328.605 467.132Z" stroke="url(#paint9_linear)" stroke-width="5"/>
<path fill-rule="evenodd" clip-rule="evenodd" d="M317.404 474.336C305.48 519.826 267.703 542.199 231.33 549.997C222.878 551.807 199.185 558.334 194.46 544.437C189.882 530.964 204.442 514.986 211.259 507.416C232.381 483.958 258.477 466.565 283.206 449.334C290.925 443.956 304.846 432.284 314.42 437.668C324.816 443.524 319.874 464.903 317.404 474.336Z" stroke="url(#paint10_linear)" stroke-width="5"/>
<path fill-rule="evenodd" clip-rule="evenodd" d="M305.19 483.091C294.821 516.591 264.662 535.805 236.933 542.139C230.141 543.689 212.893 548.514 207.749 539.166C202.988 530.518 214.348 517.987 218.599 513.008C228.06 501.92 239.274 492.786 250.352 484.006C260.594 475.883 270.948 467.557 281.725 460.687C287.402 457.071 298.049 449.355 304.5 454.938C311.445 460.945 307.493 475.652 305.19 483.091Z" stroke="url(#paint11_linear)" stroke-width="5"/>
<path fill-rule="evenodd" clip-rule="evenodd" d="M291.732 492.879C283.829 514.756 262.662 528.962 243.99 533.683C238.966 534.95 228.107 538.238 223.869 532.396C219.967 527.015 226.255 519.127 229.046 515.484C241.416 499.337 259.53 484.914 276.127 476.055C280.299 473.828 287.801 469.457 292.093 473.952C296.496 478.568 293.547 487.856 291.732 492.879Z" stroke="url(#paint12_linear)" stroke-width="5"/>
<path fill-rule="evenodd" clip-rule="evenodd" d="M277.454 502.068C273.001 512.932 261.362 521.128 251.72 523.737C244.935 525.571 236.778 523.986 242.692 514.53C248.567 505.146 259.467 496.576 268.705 492.776C275.754 489.878 281.279 492.737 277.454 502.068Z" stroke="#0F3460" stroke-width="5"/>
<path fill-rule="evenodd" clip-rule="evenodd" d="M183.929 89.9624C202.272 76.3803 223.008 65.169 242.562 53.7736C271.138 37.1229 300.135 20.9199 330.161 8.5163C346.259 1.86812 367.119 -7.71684 384.393 -2.50815C390.708 -0.604345 396.468 5.15377 402.13 8.8955C409.938 14.0547 417.861 18.9584 425.771 23.8732C441.637 33.7246 457.553 43.4772 473.147 53.9605C480.655 59.0098 487.941 65.3696 495.758 69.6772C500.327 72.1963 505.793 71.0178 510.675 70.8585C521.982 70.4876 533.282 69.7843 544.582 69.1854C558.404 68.4547 572.257 67.6772 586.095 67.9657C592.336 68.0975 607.622 66.7459 611.057 73.3062C612.906 76.8391 608.549 83.2099 606.53 86.1576C602.821 91.5751 598.559 96.457 594.353 101.289C584.627 112.465 574.297 123.107 565.651 135.591C561.209 142.008 555.389 149.849 558.289 158.609C561.216 167.458 566.286 175.12 569.38 183.939C572.942 194.087 574.419 204.647 576.101 215.408C577.346 223.361 580.246 230.407 582.972 237.74C585.985 245.844 589.105 254.017 591.197 262.563C592.579 268.209 594.811 278.365 589.974 281.939C583.103 287.022 570.217 282.906 562.385 281.409C551.559 279.343 540.813 276.711 530.017 274.445C522.18 272.797 514.315 270.989 506.347 270.797C493.502 270.486 480.615 271.56 467.804 272.56C444.082 274.412 420.53 276.923 396.729 276.923C375.876 276.923 327.687 247.481 316.407 242.297C293.892 231.948 270.778 222.138 249.472 208.369C243.708 204.641 234.837 199.674 231.805 192.002C229.934 187.274 230.794 184.54 226.381 181.494C220.36 177.337 212.647 175.705 205.982 173.845C195.25 170.851 184.433 168.315 173.651 165.604C151.843 160.134 130.184 153.947 108.466 147.994C101.9 146.195 93.9571 145.796 87.698 142.626C83.6633 140.59 84.0821 138.027 87.2049 134.934C92.6828 129.506 100.36 126.492 106.831 123.396C116.312 118.86 125.949 114.814 135.589 110.825C145.23 106.836 154.921 102.97 164.566 98.973C170.938 96.341 178.203 94.2013 183.929 89.9624Z" stroke="url(#paint13_linear)" stroke-width="5"/>
<path fill-rule="evenodd" clip-rule="evenodd" d="M199.023 92.95C218.426 79.3402 239.964 68.4981 260.727 57.92C287.301 44.3735 314.475 31.677 342.474 23.2091C358.914 18.2406 378.31 12.7548 395.107 18.4524C401.1 20.4855 405.577 25.0551 410.714 29.0882C416.569 33.6909 422.649 37.9083 428.729 42.0598C441.246 50.6048 453.894 58.8581 466.675 66.8199C473.445 71.0539 480.896 76.7239 488.544 78.193C494.624 79.3623 501.531 77.6703 507.639 77.1779C518.637 76.292 529.634 75.3786 540.637 74.6028C553.333 73.7087 566.066 72.8834 578.79 73.0264C585.881 73.1062 598.055 71.7884 603.071 77.3815C607.446 82.262 591.516 99.913 588.714 103.267C579.965 113.738 570.764 123.708 562.621 134.905C557.808 141.507 551.948 149.538 549.919 158.289C548.192 165.747 551.525 174.246 553.493 181.14C555.955 189.776 557.941 198.728 560.801 207.182C563.348 214.715 567.402 221.425 570.962 228.272C574.878 235.805 578.844 243.461 581.751 251.679C583.532 256.735 586.48 265.203 582.94 270.023C578.851 275.581 566.244 271.949 561.062 271.157C550.55 269.528 540.119 267.107 529.679 264.939C512.338 261.341 495.807 258.193 478.149 258.947C455.154 259.932 432.182 262.249 409.191 263.531C400.701 264.009 392.076 264.972 383.58 264.452C378.708 264.152 374.999 262.337 372.166 258.24C368.298 252.65 359.387 249.555 353.189 246.347C343.526 241.348 333.741 236.699 323.983 231.989C302.562 221.645 280.73 211.675 260.414 198.296C253.987 194.065 246.628 189.347 241.874 182.356C239.221 178.458 239.89 174.702 238.271 170.559C236.127 165.109 229.078 162.65 224.865 160.867C216.733 157.423 208.268 155.114 199.868 152.952C180.861 148.061 161.809 144.844 142.494 142.476C137.968 141.925 120.143 140.019 129.505 130.83C139.848 120.676 154.783 115.699 166.96 109.977C177.929 104.832 188.907 100.045 199.023 92.95Z" stroke="url(#paint14_linear)" stroke-width="5"/>
<path fill-rule="evenodd" clip-rule="evenodd" d="M225.838 95.4669C244.076 83.4936 264.28 74.561 283.923 66.0156C307.758 55.6464 332.191 46.4034 357.191 41.2257C372.895 37.9762 390.208 35.4794 405.807 40.8796C416.459 44.5658 424.699 54.5312 434.054 61.3873C443.41 68.2433 453.145 74.6791 463.17 80.0436C469.392 83.3727 476.085 86.7266 483.009 86.2871C499.842 85.2213 516.656 82.6805 533.507 81.4472C544.655 80.6232 555.826 79.9447 567.008 80.148C573.75 80.2689 583.014 79.7744 588.983 84.1034C595.582 88.8911 560.447 129.769 557.127 134.37C548.801 145.907 538.719 161.217 540.329 177.624C541.869 193.308 548.542 205.018 556.089 217.307C560.373 224.298 574.109 242.973 569.018 252.065C566.11 257.262 556.525 255.463 551.971 255.109C542.996 254.411 534.071 252.911 525.143 251.609C512.126 249.722 498.751 246.808 485.678 245.954C476.575 245.36 467.417 246.154 458.298 246.171C445.223 246.193 432.147 246.072 419.072 245.929C408.093 245.808 397.021 245.929 386.081 244.643C379.279 243.852 374.117 242.075 369.238 237.054C364.993 232.687 358.588 230.129 353.178 227.352C344.241 222.768 335.188 218.518 326.163 214.2C307.269 205.158 288.159 196.305 270.074 185.005C261.818 179.849 247.938 172.63 246.001 160.13C245.302 155.622 244.788 153.675 241.181 151.112C236.062 147.475 229.93 145.835 224.185 144.41C210.794 141.086 197.015 141.583 183.647 138.298C178.202 136.944 171.094 134.021 177.31 127.33C184.562 119.504 195.119 115.203 203.808 110.368C208.145 107.957 212.614 105.699 216.732 102.754C219.895 100.485 222.603 97.576 225.838 95.4669Z" stroke="url(#paint15_linear)" stroke-width="5"/>
<path fill-rule="evenodd" clip-rule="evenodd" d="M260.381 99.205C277.231 89.4803 295.53 82.4097 313.501 76.0356C333.462 68.965 353.904 63.1086 374.616 60.6168C388.918 58.8904 404.156 58.381 418.037 63.6647C426.815 67.0073 432.766 74.0367 440.32 79.9316C451.721 88.8415 464.055 95.9012 477.752 94.1831C493.107 92.2612 508.512 90.8194 523.968 89.8575C533.291 89.2766 542.65 88.8416 551.984 89.2463C557.886 89.4996 565.489 89.9264 570.624 93.1891C577.493 97.559 551.69 130.808 548.473 135.654C540.496 147.673 534.648 160.283 531.232 175.173C528.445 187.324 534.137 196.875 540.01 205.964C543.661 211.609 555.457 225.805 551.764 233.135C549.738 237.177 543.062 236.967 539.476 237.174C532.643 237.565 525.78 237.157 518.947 236.978C508.856 236.703 498.115 238.595 488.11 237.072C465.937 233.702 443.82 230.783 421.51 228.473C409.211 227.201 396.839 226.045 384.65 223.591C380.275 222.71 375.755 221.777 371.609 219.784C368.942 218.503 367.488 216.323 365.237 214.533C354.505 206.014 340.496 201.631 328.408 196.171C312.34 188.913 296.185 181.768 280.544 173.194C272.318 168.684 260.827 163.502 255.166 154.297C253.456 151.516 254.185 149.292 253.109 146.618C251.871 143.534 248.11 142.615 245.681 141.756C240.169 139.804 217.095 136.852 227.728 125.401C232.802 119.946 239.266 116.447 244.986 112.16C247.056 110.607 249.075 109.046 250.802 106.95C253.69 103.437 256.535 101.433 260.381 99.205Z" stroke="#0F3460" stroke-width="5"/>
<path fill-rule="evenodd" clip-rule="evenodd" d="M297.187 103.416C330.451 87.682 369.435 76.9628 405.7 79.0396C417.76 79.7327 430.736 82.046 441.19 89.9623C447.354 94.6384 452.28 99.917 459.685 101.606C465.031 102.824 470.786 101.441 476.164 100.94C483.952 100.214 491.744 99.565 499.544 99.039C509.213 98.398 518.914 97.903 528.601 98.167C535.523 98.357 545.082 98.143 551.095 102.681C558.274 108.094 540 133.488 537.429 138.013C531.197 148.98 526.828 159.606 525.249 172.822C524.785 176.673 523.219 180.62 523.422 184.501C523.634 188.465 525.635 191.994 527.482 195.111C529.898 199.195 538.279 208.883 535.879 213.864C534.553 216.615 529.575 216.962 526.995 217.545C522.155 218.645 517.245 219.236 512.375 220.111C504.113 221.602 495.91 226.457 487.619 226.319C465.324 225.956 442.706 217.517 420.857 212.882C407.868 210.118 394.791 207.609 381.959 203.866C377.899 202.68 373.718 201.454 369.859 199.443C367.166 198.04 365.436 195.54 362.941 193.969C353.376 187.937 342.376 184.276 332.104 180.216C318.77 174.935 305.39 169.813 292.149 164.191C283.848 160.667 273.176 157.567 266.023 151.032C260.8 146.259 264.37 144.832 267.126 140.387C268.534 138.12 268.209 135.887 268.82 133.32C269.693 129.657 272.161 127.019 274.475 124.648C277.666 121.372 281.918 118.673 284.527 114.657C285.448 113.244 285.405 111.489 286.149 110.256C288.314 106.667 294.059 104.895 297.187 103.416Z" stroke="url(#paint16_linear)" stroke-width="5"/>
<path fill-rule="evenodd" clip-rule="evenodd" d="M332.554 109.021C359.551 99.129 389.59 93.4968 418.127 96.111C428.056 97.022 438.046 99.137 447.295 103.785C451.502 105.893 454.661 108.242 459.272 108.369C469.971 108.661 480.704 107.64 491.401 107.395C499.055 107.219 506.749 107.156 514.386 107.907C519.492 108.407 526.397 109.007 530.58 112.829C536.659 118.396 525.686 137.318 523.452 142.546C519.751 151.216 516.079 160.855 517.547 170.887C517.997 173.955 518.794 176.665 518.898 179.794C518.997 182.482 518.72 184.964 519.501 187.534C520.467 190.72 524.763 195.665 523.286 198.598C522.279 200.601 519.294 200.695 517.308 201.336C514.087 202.376 510.942 203.74 507.906 205.414C504.709 207.186 501.987 209.924 498.675 211.387C493.298 213.759 487.28 213.982 481.629 213.971C459.081 213.927 436.247 208.498 414.27 202.822C402.826 199.867 391.319 196.716 380.197 192.234C376.819 190.872 372.992 189.504 370.022 186.989C368.169 185.424 366.913 183.462 364.808 182.284C346.826 172.23 326.036 168.496 306.946 161.235C301.977 159.344 274.439 149.794 288.837 140.81C297.584 135.351 306.826 132.869 314.808 125.401C317.239 123.131 318.86 121.252 319.81 117.788C320.436 115.482 318.93 116.651 321.033 114.241C323.584 111.343 329.408 110.174 332.554 109.021Z" stroke="#0F3460" stroke-width="5"/>
<path fill-rule="evenodd" clip-rule="evenodd" d="M360.624 114.87C392.232 106.796 425.704 106.412 457.811 113.57C465.905 115.372 474.328 114.942 482.521 115.4C490.482 115.839 504.635 114.925 510.417 122.396C514.61 127.811 510.061 139.32 508.487 145.378C506.482 153.095 504.73 161.068 508.022 168.563C509.95 172.953 512.592 177.131 514.66 181.479C515.648 183.556 517.685 186.739 516.836 188.706C515.432 191.951 508.862 193.318 505.674 194.848C495.485 199.74 484.696 200.988 473.802 200.953C453.682 200.89 433.457 197.532 413.721 192.977C404.64 190.881 395.433 188.645 386.676 185.002C381.72 182.942 378.065 178.966 373.333 176.61C358.096 169.016 341.725 164.958 326.226 158.014C321.74 156.003 304.984 149.309 313.425 141.416C321.598 133.776 333.519 134.684 342.017 127.496C342.978 126.673 344.168 125.688 344.726 124.357C345.055 123.562 344.475 122.047 344.726 121.595C347.336 116.676 356.612 115.894 360.624 114.87Z" stroke="url(#paint17_linear)" stroke-width="5"/>
</g>
<defs>
<filter id="filter0_f" x="0" y="-14" width="346" height="738" filterUnits="userSpaceOnUse" color-interpolation-filters="sRGB">
<feFlood flood-opacity="0" result="BackgroundImageFix"/>
<feBlend mode="normal" in="SourceGraphic" in2="BackgroundImageFix" result="shape"/>
<feGaussianBlur stdDeviation="5" result="effect1_foregroundBlur"/>
</filter>
<linearGradient id="paint0_linear" x1="272.697" y1="164.903" x2="272.697" y2="711" gradientUnits="userSpaceOnUse">
<stop stop-color="#FF415B"/>
<stop offset="1" stop-color="#41C6FF"/>
</linearGradient>
<linearGradient id="paint1_linear" x1="270.861" y1="181.927" x2="270.861" y2="691.973" gradientUnits="userSpaceOnUse">
<stop stop-color="#1D0808"/>
<stop offset="1" stop-color="#C9C9C9" stop-opacity="0"/>
</linearGradient>
<linearGradient id="paint2_linear" x1="266.02" y1="210.967" x2="266.02" y2="677.286" gradientUnits="userSpaceOnUse">
<stop stop-color="#FF415B"/>
<stop offset="1" stop-color="#41C6FF"/>
</linearGradient>
<linearGradient id="paint3_linear" x1="266.688" y1="235.001" x2="266.688" y2="654.922" gradientUnits="userSpaceOnUse">
<stop stop-color="#1D0808"/>
<stop offset="1" stop-color="#C9C9C9" stop-opacity="0"/>
</linearGradient>
<linearGradient id="paint4_linear" x1="265.353" y1="265.377" x2="265.353" y2="639.233" gradientUnits="userSpaceOnUse">
<stop stop-color="#DE2E6D"/>
<stop offset="1" stop-color="#C4A9D9"/>
</linearGradient>
<linearGradient id="paint5_linear" x1="258.677" y1="311.441" x2="258.677" y2="616.868" gradientUnits="userSpaceOnUse">
<stop stop-color="#FF415B"/>
<stop offset="1" stop-color="#41C6FF"/>
</linearGradient>
<linearGradient id="paint6_linear" x1="255.339" y1="325.794" x2="255.339" y2="606.186" gradientUnits="userSpaceOnUse">
<stop stop-color="#DE2E6D"/>
<stop offset="1" stop-color="#C4A9D9"/>
</linearGradient>
<linearGradient id="paint7_linear" x1="252.502" y1="372.193" x2="252.502" y2="585.825" gradientUnits="userSpaceOnUse">
<stop stop-color="#FF415B"/>
<stop offset="1" stop-color="#41C6FF"/>
</linearGradient>
<linearGradient id="paint8_linear" x1="254.505" y1="395.893" x2="254.505" y2="575.811" gradientUnits="userSpaceOnUse">
<stop stop-color="#1D0808"/>
<stop offset="1" stop-color="#C9C9C9" stop-opacity="0"/>
</linearGradient>
<linearGradient id="paint9_linear" x1="257.008" y1="423.265" x2="257.008" y2="560.457" gradientUnits="userSpaceOnUse">
<stop stop-color="#DE2E6D"/>
<stop offset="1" stop-color="#C4A9D9"/>
</linearGradient>
<linearGradient id="paint10_linear" x1="257.175" y1="436.282" x2="257.175" y2="553.113" gradientUnits="userSpaceOnUse">
<stop stop-color="#1D0808"/>
<stop offset="1" stop-color="#C9C9C9" stop-opacity="0"/>
</linearGradient>
<linearGradient id="paint11_linear" x1="257.509" y1="452.972" x2="257.509" y2="544.768" gradientUnits="userSpaceOnUse">
<stop stop-color="#1D0808"/>
<stop offset="1" stop-color="#C9C9C9" stop-opacity="0"/>
</linearGradient>
<linearGradient id="paint12_linear" x1="258.51" y1="471.999" x2="258.51" y2="535.755" gradientUnits="userSpaceOnUse">
<stop stop-color="#FF415B"/>
<stop offset="1" stop-color="#41C6FF"/>
</linearGradient>
<linearGradient id="paint13_linear" x1="348.136" y1="-3.99997" x2="348.136" y2="284.403" gradientUnits="userSpaceOnUse">
<stop stop-color="#DE2E6D"/>
<stop offset="1" stop-color="#C4A9D9"/>
</linearGradient>
<linearGradient id="paint14_linear" x1="365.326" y1="16.028" x2="365.326" y2="273.054" gradientUnits="userSpaceOnUse">
<stop stop-color="#FF415B"/>
<stop offset="1" stop-color="#41C6FF"/>
</linearGradient>
<linearGradient id="paint15_linear" x1="382.35" y1="37.725" x2="382.35" y2="255.697" gradientUnits="userSpaceOnUse">
<stop stop-color="#1D0808"/>
<stop offset="1" stop-color="#C9C9C9" stop-opacity="0"/>
</linearGradient>
<linearGradient id="paint16_linear" x1="408.053" y1="78.7825" x2="408.053" y2="226.322" gradientUnits="userSpaceOnUse">
<stop stop-color="#DE2E6D"/>
<stop offset="1" stop-color="#C4A9D9"/>
</linearGradient>
<linearGradient id="paint17_linear" x1="414.061" y1="108.491" x2="414.061" y2="200.954" gradientUnits="userSpaceOnUse">
<stop stop-color="#1D0808"/>
<stop offset="1" stop-color="#C9C9C9" stop-opacity="0"/>
</linearGradient>
<clipPath id="clip0">
<rect width="326" height="718" fill="white" transform="translate(10 -4)"/>
</clipPath>
</defs>
</svg>
