<svg width="326" height="714" viewBox="0 0 326 714" fill="none" xmlns="http://www.w3.org/2000/svg">
<g clip-path="url(#clip0)">
<path fill-rule="evenodd" clip-rule="evenodd" d="M403.281 452.608C403.317 462.036 417.695 472.637 423.837 478.102C435.981 488.913 448.611 498.895 461.125 509.037C473.638 519.18 486.185 529.294 498.117 540.429C505.865 547.657 514.968 555.797 520.223 566.118C531.416 588.113 496.124 584.846 486.982 585.328C463.726 586.557 437.051 585.996 415.252 597.449C402.238 604.287 397.049 615.754 399.844 632.467C400.745 637.902 403.412 644.157 401.153 649.452C398.741 655.107 393.191 658.371 388.585 660.559C371.786 668.532 352.471 669.456 334.697 670.457C315.53 671.556 296.184 671.235 277.153 671.32C269.083 671.356 260.655 674.894 252.971 677.77C242.896 681.539 232.942 685.773 222.951 689.867C200.972 698.851 178.323 708.314 155.069 710.596C140.506 712.026 124.59 710.093 113.277 697.658C107.597 691.415 104.624 682.133 101.34 673.888C97.3652 663.927 93.5477 653.87 89.3158 644.066C75.6832 612.491 56.2196 581.635 24.6278 580.085C19.8486 579.851 15.155 580.613 10.3983 580.755C7.3691 580.843 4.6732 579.95 3.54709 576.082C0.71606 566.379 9.61455 551.063 13.2631 543.365C21.2517 526.515 30.2606 510.42 38.6996 493.908C44.2828 482.988 53.9471 468.065 54.0484 454.797C54.1385 442.975 41.2559 434.43 34.2425 428.607C27.6705 423.155 15.7631 415.526 15.0424 404.435C14.6933 399.057 17.5986 394.601 20.6324 391.142C25.9498 385.094 32.0759 380.827 36.8596 373.926C44.704 362.605 51.258 347.027 50.1927 331.771C49.4539 321.2 44.5126 314.277 38.2267 307.66C35.5848 304.878 33.4407 302.909 33.3011 298.392C33.0759 291.219 35.3776 283.628 37.274 276.978C44.0576 253.177 53.6926 230.163 64.4109 208.674C69.7666 197.936 75.5526 187.23 82.6538 178.069C87.3046 172.054 93.577 164.895 100.672 164.903C108.885 164.903 117.577 168.521 125.561 171.226C140.473 176.282 155.204 182.127 169.878 188.123C203.811 201.996 237.425 216.993 270.72 233.113C294.173 244.487 318.123 255.877 340.172 270.998C344.472 273.968 348.531 277.43 352.293 281.338C356.313 285.443 361.302 287.279 366.361 288.649C397.756 297.147 432.152 290.623 463.679 286.532C471.681 285.495 479.683 284.453 487.707 283.727C494.606 283.103 502.865 281.313 509.57 284.002C522.781 289.295 511.232 308.801 506.349 316.749C489.158 344.734 466.978 368.411 446.42 392.583C436.645 404.094 426.796 415.575 417.553 427.738C412.74 434.061 403.25 444.344 403.281 452.608Z" stroke="url(#paint0_linear)" stroke-width="5"/>
<path fill-rule="evenodd" clip-rule="evenodd" d="M397.357 454.197C402.626 464.173 411.871 471.546 419.545 478.485C430.588 488.474 441.979 497.908 453.198 507.615C463.806 516.793 474.437 526.076 484.262 536.5C490.252 542.856 497.768 550.457 500.606 559.858C506.761 580.235 473.649 577.144 465.474 577.677C445.152 578.996 422.112 579.298 403.311 590.027C391.571 596.727 386.748 607.837 389.252 623.262C390.118 628.599 391.677 633.155 389.703 638.464C387.42 644.609 382.169 648.44 377.355 651.144C362.275 659.616 344.45 661.416 328.103 662.914C311.216 664.461 293.621 665.552 277.277 664.42C270.741 663.969 263.218 666.528 256.749 668.49C246.797 671.513 236.946 675 227.043 678.243C206.917 684.838 186.268 691.192 165.33 691.914C150.214 692.437 134.454 689.606 121.878 678.666C109.133 667.572 103.478 650.375 96.4105 634.026C84.2042 605.762 67.7179 571.397 39.4784 565.426C35.1963 564.519 31.0809 565.011 26.8033 564.788C24.6036 564.676 22.0997 564.318 20.9841 561.672C18.088 554.802 26.0235 542.24 28.6942 536.978C36.073 522.435 44.369 508.604 52.1017 494.341C58.2432 483.017 66.0276 470.433 68.4031 457.009C71.2856 440.718 52.451 429.127 45.8272 417.656C34.3443 397.766 56.0999 386.433 66.8255 376.949C79.1422 366.061 89.3089 346.198 78.2678 329.352C74.0443 322.911 68.8471 319.072 66.9607 310.665C64.0105 297.518 66.2418 282.495 68.6352 269.499C72.2413 249.963 77.9478 230.638 85.7052 212.982C91.263 200.341 100.483 180.519 113.985 182.006C123.075 182.998 132.315 186.623 141.166 189.827C154.418 194.622 167.503 200.088 180.518 205.766C210.563 218.836 240.277 233.246 269.407 249.097C289.282 259.917 344.725 304.13 348.896 305.708C361.335 310.407 375.477 309.58 388.301 308.852C405.36 307.884 422.333 305.378 439.292 303.056C447.365 301.957 455.479 300.613 463.595 300.071C469.371 299.687 476.957 299.357 482.017 303.454C491.893 311.449 480.89 329.74 476.34 337.478C462.4 361.203 444.767 381.747 428.233 402.753C420.12 413.067 411.882 423.364 404.517 434.505C401.546 439.003 394.1 448.036 397.357 454.197Z" stroke="url(#paint1_linear)" stroke-width="5"/>
<path fill-rule="evenodd" clip-rule="evenodd" d="M390.067 459.314C404.457 479.276 424.319 494.122 441.461 510.794C450.064 519.164 458.722 527.763 466.143 537.733C470.003 542.917 474.823 549.473 475.566 556.7C477.554 576.032 447.71 573.418 438.777 574.152C421.507 575.576 401.997 576.656 386.329 586.522C376.756 592.553 372.042 602.452 373.831 615.462C374.624 621.235 375.859 626.138 373.831 631.807C371.776 637.549 367.494 641.601 363.159 644.638C350.7 653.374 335.216 656.167 321.189 658.248C304.733 660.671 288.154 661.618 271.584 661.079C257.072 660.615 242.63 665.84 228.46 669.284C209.689 673.845 190.578 677.828 171.37 677.226C156.2 676.747 140.91 672.99 127.942 663.003C114.764 652.833 106.841 637.609 99.6976 621.182C88.8992 596.349 75.4417 563.072 51.7515 553.64C48.306 552.266 45.0948 552.115 41.5412 551.876C39.8151 551.76 37.5864 551.724 36.7301 549.528C34.6705 544.239 42.2848 533.986 44.4098 530.413C51.1926 519.005 58.5455 508.111 65.4974 496.855C71.9872 486.346 79.0562 475.394 83.0876 463.079C89.5031 443.466 68.9924 431.998 69.567 413.309C69.9253 401.706 79.0314 393.385 86.2424 387.629C95.1209 380.551 107.904 375.897 112.348 362.98C115.658 353.359 110.464 347.76 106.465 340.459C99.6862 328.089 99.2244 311.321 99.9297 297.002C100.881 277.653 104.596 258.018 110.922 240.233C113.788 232.171 117.299 223.784 122.468 217.522C127.311 211.653 131.894 210.15 138.366 211.351C158.178 215.034 178.182 225.301 197.181 234.471C221.051 245.995 244.593 258.716 267.431 273.03C283.005 282.791 298.929 293.118 312.599 306.604C316.161 310.12 319.81 313.941 322.415 318.578C324.384 322.064 325.22 324.942 328.539 326.932C338.378 332.828 352.063 331.286 362.604 330.673C379.46 329.697 396.235 327.099 412.987 324.76C422.762 323.386 441.177 319.062 448.983 329.433C455.72 338.389 447.59 353.659 443.437 361.548C432.932 381.499 419.418 399.009 406.88 417.039C401.134 425.302 395.162 433.628 390.416 442.815C389.204 445.157 387.261 448.26 386.928 451.106C386.554 454.366 388.3 456.853 390.067 459.314Z" stroke="url(#paint2_linear)" stroke-width="5"/>
<path fill-rule="evenodd" clip-rule="evenodd" d="M388.83 454.666C402.127 472.317 418.147 486.817 432.422 503.334C438.823 510.739 445.287 518.508 450.164 527.542C452.787 532.4 455.573 538.516 454.849 544.554C452.774 561.885 428.228 560.32 418.311 561.335C403.576 562.826 386.648 564.328 373.619 573.673C365.084 579.794 361.884 588.834 363.477 600.492C365.188 612.998 361.363 622.076 352.659 629.053C341.746 637.793 327.971 641.355 315.301 643.886C300.035 646.921 284.576 648.266 269.112 647.905C254.073 647.553 239.502 650.629 224.562 652.629C204.754 655.278 184.31 656.585 164.725 651.154C147.673 646.425 132.271 636.005 120.725 619.889C108.665 603.07 102.695 581.879 92.9019 563.272C86.7942 551.665 78.2773 536.312 66.8642 531.801C63.0576 530.296 56.1205 532.326 59.1609 524.923C60.8985 520.69 64.1507 516.976 66.72 513.515C70.8714 507.922 75.1603 502.484 79.3816 496.968C88.3786 485.21 98.0135 473.202 104.757 459.28C113.253 441.751 100.623 428.26 102.163 410.486C102.99 400.921 108.439 393.287 114.204 387.29C117.934 383.405 122.016 380.041 126.183 376.902C130.535 373.623 135.685 371.125 139.48 366.886C144.889 360.853 142.541 353.711 141.527 345.913C139.742 332.207 139.35 318.284 140.359 304.461C141.594 287.518 144.491 270.09 150.591 254.693C152.965 248.699 155.971 242.344 160.436 238.325C164.901 234.306 169.519 234.581 174.635 235.791C189.809 239.368 204.952 247.689 219.347 255.576C237.364 265.45 255.026 276.484 271.893 289.036C283.536 297.702 295.218 307.063 304.958 318.813C307.791 322.232 310.487 325.894 312.666 329.982C314.163 332.785 314.965 336.402 317.133 338.51C323.917 345.087 337.536 343.123 345.492 342.741C361.37 341.979 376.998 338.356 392.855 337.475C401.509 336.994 415.064 335.783 421.419 344.776C427.396 353.23 421.983 366.545 418.41 374.69C411.39 390.706 401.958 404.976 393.504 419.864C390.029 425.99 386.22 432.4 383.968 439.396C381.967 445.63 385.422 450.141 388.83 454.666Z" stroke="url(#paint3_linear)" stroke-width="5"/>
<path fill-rule="evenodd" clip-rule="evenodd" d="M385.559 454.378C396.143 469.909 408.903 483.697 419.564 499.481C425.804 508.725 436.55 524.265 431.724 537.297C426.43 551.617 407.975 552.007 397.308 553.161C384.611 554.534 369.701 556.41 358.835 565.352C355.399 568.179 352.471 571.92 351.231 576.848C349.902 582.123 351.354 586.738 351.544 592.017C351.94 603.093 346.522 611.985 339.352 618.092C329.218 626.726 316.546 630.808 304.577 633.654C291.017 636.864 277.231 638.446 263.418 638.379C250.217 638.324 237.156 638.681 223.942 639.093C206.66 639.642 189.135 638.755 172.372 633.154C155.858 627.632 140.845 617.284 129.051 602.063C117.546 587.21 109.784 569.055 102.985 550.562C99.1275 540.066 92.6104 524.38 83.4089 519.078C79.3171 516.719 75.3019 516.881 79.6527 510.744C85.1316 503.017 92.5158 496.817 98.8618 490.207C108.016 480.67 117.4 470.945 125.083 459.605C129.99 452.364 132.177 445.337 131.839 435.962C131.578 428.819 130.394 421.751 130.993 414.582C132.395 397.753 143.257 386.213 152.859 375.467C159.036 368.555 164.677 363.284 167.857 353.452C171.618 341.832 173.196 329.19 175.709 317.126C178.47 303.877 181.659 290.095 187.685 278.426C193.049 268.036 199.573 263.377 209.338 266.177C224.568 270.539 239.579 281.285 253.1 291.227C266.861 301.341 280.387 312.714 291.79 326.617C297.947 334.124 302.149 342.939 307.617 351.005C314.495 361.13 330.053 357.295 339.3 356.438C354.649 355.015 402.946 344.368 398.49 378.854C396.63 393.248 389.304 406.533 383.947 419.235C381.726 424.507 378.513 430.833 378.011 436.874C377.463 443.453 382.377 449.702 385.559 454.378Z" stroke="url(#paint4_linear)" stroke-width="5"/>
<path fill-rule="evenodd" clip-rule="evenodd" d="M379.971 453.059C388.059 467.134 397.739 480.431 404.679 495.632C409.181 505.477 413.602 518.632 407.795 529.048C401.239 540.803 386.785 543.544 376.165 545.041C365.222 546.583 352.159 547.881 343.215 556.794C340.37 559.633 338.024 563.462 337.587 568.046C337.167 572.444 338.355 576.841 337.961 581.318C337.079 591.372 332.084 599.656 325.643 605.664C306.592 623.438 278.237 627.391 255.251 627.855C243.746 628.086 231.905 626.874 220.326 626.005C205.3 624.879 190.251 622.46 175.921 616.63C145.452 604.24 125.03 576.761 110.767 542.568C106.279 531.805 102.843 520.16 95.8087 511.51C92.1822 507.044 92.9746 503.837 96.6821 499.763C102.479 493.398 109.549 488.533 115.983 483.22C125.134 475.665 134.48 467.997 142.573 458.946C148.151 452.707 152.111 446.696 153.313 437.341C154.171 430.67 153.97 423.873 154.486 417.161C155.467 404.411 158.828 391.757 164.778 381.181C169.505 372.799 175.133 365.18 180.95 357.916C188.511 348.458 194.906 338.85 200.649 327.625C208.262 312.767 218.959 285.359 236.892 292.612C256.67 300.616 275.207 320.952 287.897 340.655C292.158 347.271 295.656 355.384 301.403 360.263C310.007 367.555 318.737 367.299 328.97 367.269C344.291 367.227 377.63 363.168 377.99 391.18C378.132 402.278 374.197 412.772 372.313 423.447C370.188 435.403 374.447 443.467 379.971 453.059Z" stroke="#0F3460" stroke-width="5"/>
<path fill-rule="evenodd" clip-rule="evenodd" d="M373.947 451.804C381.947 470.148 399.887 500.291 386.242 520.69C379.035 531.47 366.287 535.521 355.592 537.935C346.986 539.888 336.608 540.621 330.105 548.899C325.326 554.986 327.447 563.843 325.616 571.462C323.343 580.907 318.127 588.636 311.717 594.445C293.804 610.68 268.898 615.662 247.35 616.722C224.97 617.821 200.312 612.682 179.252 602.797C152.995 590.468 133.323 567.123 119.565 537.559C117.027 532.102 114.721 526.501 112.284 520.978C110.646 517.273 108.218 513.689 106.928 509.791C104.779 503.293 107.31 497.981 111.369 493.746C117.207 487.649 124.379 483.309 131.034 478.734C140.136 472.472 149.44 466.322 157.907 458.975C163.596 454.031 169.552 448.706 171.588 440.128C172.977 434.278 173.266 428.082 173.216 422.023C173.108 409.032 173.667 398.527 178.635 386.629C186.811 367.095 199.384 349.531 212.666 334.917C223.09 323.448 239.584 305.631 254.771 313.299C268.398 320.165 276.369 336.601 285.347 349.888C289.712 356.348 294.615 362.248 300.376 366.843C307.64 372.635 314.478 375.066 323.084 376.013C337.569 377.609 359.41 378.024 363.888 399.227C365.541 407.052 364.597 415.157 365.464 423.083C366.597 433.564 369.911 442.551 373.947 451.804Z" stroke="url(#paint5_linear)" stroke-width="5"/>
<path fill-rule="evenodd" clip-rule="evenodd" d="M365.628 451.125C371.325 471.197 378.809 496.493 365.049 514.332C358.384 522.974 349.01 527.805 339.936 531.415C333.438 534.003 323.12 534.764 319.136 542.719C316.21 548.573 315.805 556.648 313.158 562.92C309.52 571.543 304.01 578.645 297.546 584.205C280.705 598.692 258.77 604.29 238.766 605.893C195.302 609.372 151.077 581.67 127.819 536.092C120.884 522.507 111.932 508.047 123.139 494.167C135.375 479.025 153.807 471.931 168.411 461.172C173.991 457.064 181.101 452.126 184.214 444.688C186.087 440.217 186.215 434.608 186.301 429.686C186.526 417.151 187.379 405.878 191.509 394.181C197.888 376.105 208.06 359.429 219.587 345.769C229.639 333.858 243.975 319.859 258.574 328.446C269.768 335.045 276.867 349.052 285.564 359.377C295.243 370.875 307.213 378.624 320.358 382.41C333.145 386.083 347.171 388.561 353.91 404.167C356.221 409.521 358.637 416.452 359.503 422.378C360.902 432.147 362.95 441.762 365.628 451.125Z" stroke="url(#paint6_linear)" stroke-width="5"/>
<path fill-rule="evenodd" clip-rule="evenodd" d="M356.352 450.983C358.988 471.252 359.281 492.386 347.035 508.361C341.32 515.813 334.096 521.108 326.791 525.905C321.416 529.434 315.866 532.412 311.852 538.198C308.133 543.556 305.305 549.777 301.715 555.275C296.978 562.561 291.311 568.868 284.931 573.955C268.937 586.68 249.481 592.631 230.868 594.696C221.857 595.699 212.083 596.222 203.133 593.486C194.49 590.847 185.943 586.674 177.996 581.808C161.101 571.475 146.459 556.342 135.845 537.209C128.567 524.085 124.631 511.324 134.056 498.011C144.682 483.004 161.343 474.724 175.075 464.984C184.493 458.304 195.049 451.756 196.808 437.56C198.209 426.264 199.347 415.543 202.971 404.866C208.365 389.117 216.297 374.851 226.295 362.913C235.438 352.038 247.005 342.81 260.084 348.619C270.446 353.229 278.486 363.557 287.539 370.94C297.629 379.187 308.714 383.734 320.387 387.391C330.877 390.689 340.755 395.758 347.535 406.521C348.923 408.72 350.381 411.114 351.451 413.575C352.816 416.714 352.71 419.826 352.978 423.345C353.676 432.631 355.161 441.81 356.352 450.983Z" stroke="#0F3460" stroke-width="5"/>
<path fill-rule="evenodd" clip-rule="evenodd" d="M346.125 452.64C345.899 471.892 342.106 490.087 331.715 505.09C327.272 511.508 321.967 516.795 317.079 522.676C313.144 527.418 309.424 531.823 304.898 535.73C294.163 544.982 285.438 556.954 274.029 565.192C258.8 576.206 241.354 582.293 224.044 584.728C215.592 585.917 206.86 586.333 198.309 584.989C190.964 583.835 183.93 579.785 177.405 575.641C164.616 567.524 152.199 555.987 143.895 541.391C125.587 509.212 161.682 485.816 180.208 472.115C188.728 465.812 201.747 458.513 205.237 446.029C207.732 437.111 209.251 428.041 212.464 419.398C221.095 396.186 238.614 368.886 261.961 372.521C271.951 374.073 281.056 380.382 290.382 384.616C299.985 388.978 309.897 391.409 319.878 394.077C329.206 396.569 336.641 400.115 342.666 409.623C345.546 414.163 345.292 419.599 345.548 425.169C345.967 434.319 346.226 443.521 346.125 452.64Z" stroke="url(#paint7_linear)" stroke-width="5"/>
<path fill-rule="evenodd" clip-rule="evenodd" d="M336.812 455.106C333.061 484.165 319.131 515.889 298.648 532.765C274.554 552.617 248.452 569.334 219.665 574.139C206.319 576.368 191.699 577.464 179.105 570.177C169.521 564.635 158.388 556.351 153.114 544.701C140.209 516.205 168.912 493.521 185.266 480.337C194.07 473.24 205.278 466.324 211.914 455.96C215.763 449.951 217.729 442.002 220.837 435.402C230.257 415.402 245.763 399.271 265.078 396.386C274.009 395.053 283.005 396.702 291.868 398.012C300.941 399.353 310.126 400.081 319.142 401.953C326.339 403.447 334.822 405.978 337.472 415.378C340.815 427.223 338.342 443.239 336.812 455.106Z" stroke="url(#paint8_linear)" stroke-width="5"/>
<path fill-rule="evenodd" clip-rule="evenodd" d="M327.679 459.774C322.209 487.094 310.626 513.744 291.152 530.054C280.826 538.702 268.838 544.672 257.329 550.571C244.283 557.256 230.653 562.445 216.731 565.019C199.397 568.225 171.324 571.116 162.268 547.013C153.279 523.088 175.993 501.914 189.425 489.847C198.037 482.117 207.253 475.022 215.481 466.572C219.942 461.99 223.379 456.697 227.155 451.323C237.59 436.435 252.466 424.649 267.629 418.357C282.324 412.258 300.504 409.558 316.017 411.573C322.71 412.439 327.494 415.363 329.519 423.673C332.324 435.225 329.941 448.488 327.679 459.774Z" stroke="#0F3460" stroke-width="5"/>
<path fill-rule="evenodd" clip-rule="evenodd" d="M318.605 467.132C313.171 491.187 301.449 513.158 284.352 527.595C265.187 543.779 240.509 552.772 217.827 557.346C205.771 559.775 179.644 566.361 173.498 547.512C167.353 528.663 185.118 510.088 195.343 499.862C207.753 487.471 221.133 475.507 234.497 464.388C246.108 454.722 258.498 444.838 271.074 437.373C278.167 433.139 285.556 429.681 293.153 427.041C298.778 425.102 305.932 422.211 311.83 423.654C326.706 427.299 321.204 455.631 318.605 467.132Z" stroke="url(#paint9_linear)" stroke-width="5"/>
<path fill-rule="evenodd" clip-rule="evenodd" d="M307.404 474.336C295.48 519.826 257.703 542.199 221.33 549.997C212.878 551.807 189.185 558.334 184.46 544.437C179.882 530.964 194.442 514.986 201.259 507.416C222.381 483.958 248.477 466.565 273.206 449.334C280.925 443.956 294.846 432.284 304.42 437.668C314.816 443.524 309.874 464.903 307.404 474.336Z" stroke="url(#paint10_linear)" stroke-width="5"/>
<path fill-rule="evenodd" clip-rule="evenodd" d="M295.19 483.091C284.821 516.591 254.662 535.805 226.933 542.139C220.141 543.689 202.893 548.514 197.749 539.166C192.988 530.518 204.348 517.987 208.599 513.008C218.06 501.92 229.274 492.786 240.352 484.006C250.594 475.883 260.948 467.557 271.725 460.687C277.402 457.071 288.049 449.355 294.5 454.938C301.445 460.945 297.493 475.652 295.19 483.091Z" stroke="url(#paint11_linear)" stroke-width="5"/>
<path fill-rule="evenodd" clip-rule="evenodd" d="M281.732 492.879C273.829 514.756 252.662 528.962 233.99 533.683C228.966 534.95 218.107 538.238 213.869 532.396C209.967 527.015 216.255 519.127 219.046 515.484C231.416 499.337 249.53 484.914 266.127 476.055C270.299 473.828 277.801 469.457 282.093 473.952C286.496 478.568 283.547 487.856 281.732 492.879Z" stroke="url(#paint12_linear)" stroke-width="5"/>
<path fill-rule="evenodd" clip-rule="evenodd" d="M267.454 502.068C263.001 512.932 251.362 521.128 241.72 523.737C234.935 525.571 226.778 523.986 232.692 514.53C238.567 505.146 249.467 496.576 258.705 492.776C265.754 489.878 271.279 492.737 267.454 502.068Z" stroke="#0F3460" stroke-width="5"/>
<path fill-rule="evenodd" clip-rule="evenodd" d="M173.929 89.9624C192.272 76.3803 213.008 65.169 232.562 53.7736C261.138 37.1229 290.135 20.9199 320.161 8.5163C336.259 1.86812 357.119 -7.71684 374.393 -2.50815C380.708 -0.604345 386.468 5.15377 392.13 8.8955C399.938 14.0547 407.861 18.9584 415.771 23.8732C431.637 33.7246 447.553 43.4772 463.147 53.9605C470.655 59.0098 477.941 65.3696 485.758 69.6772C490.327 72.1963 495.793 71.0178 500.675 70.8585C511.982 70.4876 523.282 69.7843 534.582 69.1854C548.404 68.4547 562.257 67.6772 576.095 67.9657C582.336 68.0975 597.622 66.7459 601.057 73.3062C602.906 76.8391 598.549 83.2099 596.53 86.1576C592.821 91.5751 588.559 96.457 584.353 101.289C574.627 112.465 564.297 123.107 555.651 135.591C551.209 142.008 545.389 149.849 548.289 158.609C551.216 167.458 556.286 175.12 559.38 183.939C562.942 194.087 564.419 204.647 566.101 215.408C567.346 223.361 570.246 230.407 572.972 237.74C575.985 245.844 579.105 254.017 581.197 262.563C582.579 268.209 584.811 278.365 579.974 281.939C573.103 287.022 560.217 282.906 552.385 281.409C541.559 279.343 530.813 276.711 520.017 274.445C512.18 272.797 504.315 270.989 496.347 270.797C483.502 270.486 470.615 271.56 457.804 272.56C434.082 274.412 410.53 276.923 386.729 276.923C365.876 276.923 317.687 247.481 306.407 242.297C283.892 231.948 260.778 222.138 239.472 208.369C233.708 204.641 224.837 199.674 221.805 192.002C219.934 187.274 220.794 184.54 216.381 181.494C210.36 177.337 202.647 175.705 195.982 173.845C185.25 170.851 174.433 168.315 163.651 165.604C141.843 160.134 120.184 153.947 98.4658 147.994C91.9004 146.195 83.9571 145.796 77.698 142.626C73.6633 140.59 74.0821 138.027 77.2049 134.934C82.6828 129.506 90.3604 126.492 96.8312 123.396C106.312 118.86 115.949 114.814 125.589 110.825C135.23 106.836 144.921 102.97 154.566 98.973C160.938 96.341 168.203 94.2013 173.929 89.9624Z" stroke="url(#paint13_linear)" stroke-width="5"/>
<path fill-rule="evenodd" clip-rule="evenodd" d="M189.023 92.95C208.426 79.3402 229.964 68.4981 250.727 57.92C277.301 44.3735 304.475 31.677 332.474 23.2091C348.914 18.2406 368.31 12.7548 385.107 18.4524C391.1 20.4855 395.577 25.0551 400.714 29.0882C406.569 33.6909 412.649 37.9083 418.729 42.0598C431.246 50.6048 443.894 58.8581 456.675 66.8199C463.445 71.0539 470.896 76.7239 478.544 78.193C484.624 79.3623 491.531 77.6703 497.639 77.1779C508.637 76.292 519.634 75.3786 530.637 74.6028C543.333 73.7087 556.066 72.8834 568.79 73.0264C575.881 73.1062 588.055 71.7884 593.071 77.3815C597.446 82.262 581.516 99.913 578.714 103.267C569.965 113.738 560.764 123.708 552.621 134.905C547.808 141.507 541.948 149.538 539.919 158.289C538.192 165.747 541.525 174.246 543.493 181.14C545.955 189.776 547.941 198.728 550.801 207.182C553.348 214.715 557.402 221.425 560.962 228.272C564.878 235.805 568.844 243.461 571.751 251.679C573.532 256.735 576.48 265.203 572.94 270.023C568.851 275.581 556.244 271.949 551.062 271.157C540.55 269.528 530.119 267.107 519.679 264.939C502.338 261.341 485.807 258.193 468.149 258.947C445.154 259.932 422.182 262.249 399.191 263.531C390.701 264.009 382.076 264.972 373.58 264.452C368.708 264.152 364.999 262.337 362.166 258.24C358.298 252.65 349.387 249.555 343.189 246.347C333.526 241.348 323.741 236.699 313.983 231.989C292.562 221.645 270.73 211.675 250.414 198.296C243.987 194.065 236.628 189.347 231.874 182.356C229.221 178.458 229.89 174.702 228.271 170.559C226.127 165.109 219.078 162.65 214.865 160.867C206.733 157.423 198.268 155.114 189.868 152.952C170.861 148.061 151.809 144.844 132.494 142.476C127.968 141.925 110.143 140.019 119.505 130.83C129.848 120.676 144.783 115.699 156.96 109.977C167.929 104.832 178.907 100.045 189.023 92.95Z" stroke="url(#paint14_linear)" stroke-width="5"/>
<path fill-rule="evenodd" clip-rule="evenodd" d="M215.838 95.4669C234.076 83.4936 254.28 74.561 273.923 66.0156C297.758 55.6464 322.191 46.4034 347.191 41.2257C362.895 37.9762 380.208 35.4794 395.807 40.8796C406.459 44.5658 414.699 54.5312 424.054 61.3873C433.41 68.2433 443.145 74.6791 453.17 80.0436C459.392 83.3727 466.085 86.7266 473.009 86.2871C489.842 85.2213 506.656 82.6805 523.507 81.4472C534.655 80.6232 545.826 79.9447 557.008 80.148C563.75 80.2689 573.014 79.7744 578.983 84.1034C585.582 88.8911 550.447 129.769 547.127 134.37C538.801 145.907 528.719 161.217 530.329 177.624C531.869 193.308 538.542 205.018 546.089 217.307C550.373 224.298 564.109 242.973 559.018 252.065C556.11 257.262 546.525 255.463 541.971 255.109C532.996 254.411 524.071 252.911 515.143 251.609C502.126 249.722 488.751 246.808 475.678 245.954C466.575 245.36 457.417 246.154 448.298 246.171C435.223 246.193 422.147 246.072 409.072 245.929C398.093 245.808 387.021 245.929 376.081 244.643C369.279 243.852 364.117 242.075 359.238 237.054C354.993 232.687 348.588 230.129 343.178 227.352C334.241 222.768 325.188 218.518 316.163 214.2C297.269 205.158 278.159 196.305 260.074 185.005C251.818 179.849 237.938 172.63 236.001 160.13C235.302 155.622 234.788 153.675 231.181 151.112C226.062 147.475 219.93 145.835 214.185 144.41C200.794 141.086 187.015 141.583 173.647 138.298C168.202 136.944 161.094 134.021 167.31 127.33C174.562 119.504 185.119 115.203 193.808 110.368C198.145 107.957 202.614 105.699 206.732 102.754C209.895 100.485 212.603 97.576 215.838 95.4669Z" stroke="url(#paint15_linear)" stroke-width="5"/>
<path fill-rule="evenodd" clip-rule="evenodd" d="M250.381 99.205C267.231 89.4803 285.53 82.4097 303.501 76.0356C323.462 68.965 343.904 63.1086 364.616 60.6168C378.918 58.8904 394.156 58.381 408.037 63.6647C416.815 67.0073 422.766 74.0367 430.32 79.9316C441.721 88.8415 454.055 95.9012 467.752 94.1831C483.107 92.2612 498.512 90.8194 513.968 89.8575C523.291 89.2766 532.65 88.8416 541.984 89.2463C547.886 89.4996 555.489 89.9264 560.624 93.1891C567.493 97.559 541.69 130.808 538.473 135.654C530.496 147.673 524.648 160.283 521.232 175.173C518.445 187.324 524.137 196.875 530.01 205.964C533.661 211.609 545.457 225.805 541.764 233.135C539.738 237.177 533.062 236.967 529.476 237.174C522.643 237.565 515.78 237.157 508.947 236.978C498.856 236.703 488.115 238.595 478.11 237.072C455.937 233.702 433.82 230.783 411.51 228.473C399.211 227.201 386.839 226.045 374.65 223.591C370.275 222.71 365.755 221.777 361.609 219.784C358.942 218.503 357.488 216.323 355.237 214.533C344.505 206.014 330.496 201.631 318.408 196.171C302.34 188.913 286.185 181.768 270.544 173.194C262.318 168.684 250.827 163.502 245.166 154.297C243.456 151.516 244.185 149.292 243.109 146.618C241.871 143.534 238.11 142.615 235.681 141.756C230.169 139.804 207.095 136.852 217.728 125.401C222.802 119.946 229.266 116.447 234.986 112.16C237.056 110.607 239.075 109.046 240.802 106.95C243.69 103.437 246.535 101.433 250.381 99.205Z" stroke="#0F3460" stroke-width="5"/>
<path fill-rule="evenodd" clip-rule="evenodd" d="M287.187 103.416C320.451 87.682 359.435 76.9628 395.7 79.0396C407.76 79.7327 420.736 82.046 431.19 89.9623C437.354 94.6384 442.28 99.917 449.685 101.606C455.031 102.824 460.786 101.441 466.164 100.94C473.952 100.214 481.744 99.565 489.544 99.039C499.213 98.398 508.914 97.903 518.601 98.167C525.523 98.357 535.082 98.143 541.095 102.681C548.274 108.094 530 133.488 527.429 138.013C521.197 148.98 516.828 159.606 515.249 172.822C514.785 176.673 513.219 180.62 513.422 184.501C513.634 188.465 515.635 191.994 517.482 195.111C519.898 199.195 528.279 208.883 525.879 213.864C524.553 216.615 519.575 216.962 516.995 217.545C512.155 218.645 507.245 219.236 502.375 220.111C494.113 221.602 485.91 226.457 477.619 226.319C455.324 225.956 432.706 217.517 410.857 212.882C397.868 210.118 384.791 207.609 371.959 203.866C367.899 202.68 363.718 201.454 359.859 199.443C357.166 198.04 355.436 195.54 352.941 193.969C343.376 187.937 332.376 184.276 322.104 180.216C308.77 174.935 295.39 169.813 282.149 164.191C273.848 160.667 263.176 157.567 256.023 151.032C250.8 146.259 254.37 144.832 257.126 140.387C258.534 138.12 258.209 135.887 258.82 133.32C259.693 129.657 262.161 127.019 264.475 124.648C267.666 121.372 271.918 118.673 274.527 114.657C275.448 113.244 275.405 111.489 276.149 110.256C278.314 106.667 284.059 104.895 287.187 103.416Z" stroke="url(#paint16_linear)" stroke-width="5"/>
<path fill-rule="evenodd" clip-rule="evenodd" d="M322.554 109.021C349.551 99.129 379.59 93.4968 408.127 96.111C418.056 97.022 428.046 99.137 437.295 103.785C441.502 105.893 444.661 108.242 449.272 108.369C459.971 108.661 470.704 107.64 481.401 107.395C489.055 107.219 496.749 107.156 504.386 107.907C509.492 108.407 516.397 109.007 520.58 112.829C526.659 118.396 515.686 137.318 513.452 142.546C509.751 151.216 506.079 160.855 507.547 170.887C507.997 173.955 508.794 176.665 508.898 179.794C508.997 182.482 508.72 184.964 509.501 187.534C510.467 190.72 514.763 195.665 513.286 198.598C512.279 200.601 509.294 200.695 507.308 201.336C504.087 202.376 500.942 203.74 497.906 205.414C494.709 207.186 491.987 209.924 488.675 211.387C483.298 213.759 477.28 213.982 471.629 213.971C449.081 213.927 426.247 208.498 404.27 202.822C392.826 199.867 381.319 196.716 370.197 192.234C366.819 190.872 362.992 189.504 360.022 186.989C358.169 185.424 356.913 183.462 354.808 182.284C336.826 172.23 316.036 168.496 296.946 161.235C291.977 159.344 264.439 149.794 278.837 140.81C287.584 135.351 296.826 132.869 304.808 125.401C307.239 123.131 308.86 121.252 309.81 117.788C310.436 115.482 308.93 116.651 311.033 114.241C313.584 111.343 319.408 110.174 322.554 109.021Z" stroke="#0F3460" stroke-width="5"/>
<path fill-rule="evenodd" clip-rule="evenodd" d="M350.624 114.87C382.232 106.796 415.704 106.412 447.811 113.57C455.905 115.372 464.328 114.942 472.521 115.4C480.482 115.839 494.635 114.925 500.417 122.396C504.61 127.811 500.061 139.32 498.487 145.378C496.482 153.095 494.73 161.068 498.022 168.563C499.95 172.953 502.592 177.131 504.66 181.479C505.648 183.556 507.685 186.739 506.836 188.706C505.432 191.951 498.862 193.318 495.674 194.848C485.485 199.74 474.696 200.988 463.802 200.953C443.682 200.89 423.457 197.532 403.721 192.977C394.64 190.881 385.433 188.645 376.676 185.002C371.72 182.942 368.065 178.966 363.333 176.61C348.096 169.016 331.725 164.958 316.226 158.014C311.74 156.003 294.984 149.309 303.425 141.416C311.598 133.776 323.519 134.684 332.017 127.496C332.978 126.673 334.168 125.688 334.726 124.357C335.055 123.562 334.475 122.047 334.726 121.595C337.336 116.676 346.612 115.894 350.624 114.87Z" stroke="url(#paint17_linear)" stroke-width="5"/>
</g>
<defs>
<linearGradient id="paint0_linear" x1="262.697" y1="164.903" x2="262.697" y2="711" gradientUnits="userSpaceOnUse">
<stop stop-color="#FF415B"/>
<stop offset="1" stop-color="#41C6FF"/>
</linearGradient>
<linearGradient id="paint1_linear" x1="260.861" y1="181.927" x2="260.861" y2="691.973" gradientUnits="userSpaceOnUse">
<stop stop-color="#1D0808"/>
<stop offset="1" stop-color="#C9C9C9" stop-opacity="0"/>
</linearGradient>
<linearGradient id="paint2_linear" x1="256.02" y1="210.967" x2="256.02" y2="677.286" gradientUnits="userSpaceOnUse">
<stop stop-color="#FF415B"/>
<stop offset="1" stop-color="#41C6FF"/>
</linearGradient>
<linearGradient id="paint3_linear" x1="256.688" y1="235.001" x2="256.688" y2="654.922" gradientUnits="userSpaceOnUse">
<stop stop-color="#1D0808"/>
<stop offset="1" stop-color="#C9C9C9" stop-opacity="0"/>
</linearGradient>
<linearGradient id="paint4_linear" x1="255.353" y1="265.377" x2="255.353" y2="639.233" gradientUnits="userSpaceOnUse">
<stop stop-color="#DE2E6D"/>
<stop offset="1" stop-color="#C4A9D9"/>
</linearGradient>
<linearGradient id="paint5_linear" x1="248.677" y1="311.441" x2="248.677" y2="616.868" gradientUnits="userSpaceOnUse">
<stop stop-color="#FF415B"/>
<stop offset="1" stop-color="#41C6FF"/>
</linearGradient>
<linearGradient id="paint6_linear" x1="245.339" y1="325.794" x2="245.339" y2="606.186" gradientUnits="userSpaceOnUse">
<stop stop-color="#DE2E6D"/>
<stop offset="1" stop-color="#C4A9D9"/>
</linearGradient>
<linearGradient id="paint7_linear" x1="242.502" y1="372.193" x2="242.502" y2="585.825" gradientUnits="userSpaceOnUse">
<stop stop-color="#FF415B"/>
<stop offset="1" stop-color="#41C6FF"/>
</linearGradient>
<linearGradient id="paint8_linear" x1="244.505" y1="395.893" x2="244.505" y2="575.811" gradientUnits="userSpaceOnUse">
<stop stop-color="#1D0808"/>
<stop offset="1" stop-color="#C9C9C9" stop-opacity="0"/>
</linearGradient>
<linearGradient id="paint9_linear" x1="247.008" y1="423.265" x2="247.008" y2="560.457" gradientUnits="userSpaceOnUse">
<stop stop-color="#DE2E6D"/>
<stop offset="1" stop-color="#C4A9D9"/>
</linearGradient>
<linearGradient id="paint10_linear" x1="247.175" y1="436.282" x2="247.175" y2="553.113" gradientUnits="userSpaceOnUse">
<stop stop-color="#1D0808"/>
<stop offset="1" stop-color="#C9C9C9" stop-opacity="0"/>
</linearGradient>
<linearGradient id="paint11_linear" x1="247.509" y1="452.972" x2="247.509" y2="544.768" gradientUnits="userSpaceOnUse">
<stop stop-color="#1D0808"/>
<stop offset="1" stop-color="#C9C9C9" stop-opacity="0"/>
</linearGradient>
<linearGradient id="paint12_linear" x1="248.51" y1="471.999" x2="248.51" y2="535.755" gradientUnits="userSpaceOnUse">
<stop stop-color="#FF415B"/>
<stop offset="1" stop-color="#41C6FF"/>
</linearGradient>
<linearGradient id="paint13_linear" x1="338.136" y1="-3.99997" x2="338.136" y2="284.403" gradientUnits="userSpaceOnUse">
<stop stop-color="#DE2E6D"/>
<stop offset="1" stop-color="#C4A9D9"/>
</linearGradient>
<linearGradient id="paint14_linear" x1="355.326" y1="16.028" x2="355.326" y2="273.054" gradientUnits="userSpaceOnUse">
<stop stop-color="#FF415B"/>
<stop offset="1" stop-color="#41C6FF"/>
</linearGradient>
<linearGradient id="paint15_linear" x1="372.35" y1="37.725" x2="372.35" y2="255.697" gradientUnits="userSpaceOnUse">
<stop stop-color="#1D0808"/>
<stop offset="1" stop-color="#C9C9C9" stop-opacity="0"/>
</linearGradient>
<linearGradient id="paint16_linear" x1="398.053" y1="78.7825" x2="398.053" y2="226.322" gradientUnits="userSpaceOnUse">
<stop stop-color="#DE2E6D"/>
<stop offset="1" stop-color="#C4A9D9"/>
</linearGradient>
<linearGradient id="paint17_linear" x1="404.061" y1="108.491" x2="404.061" y2="200.954" gradientUnits="userSpaceOnUse">
<stop stop-color="#1D0808"/>
<stop offset="1" stop-color="#C9C9C9" stop-opacity="0"/>
</linearGradient>
<clipPath id="clip0">
<rect width="326" height="718" fill="white" transform="translate(0 -4)"/>
</clipPath>
</defs>
</svg>
