<svg width="164" height="164" viewBox="0 0 164 164" fill="none" xmlns="http://www.w3.org/2000/svg">
<circle cx="82" cy="82" r="82" fill="#EFF2FF"/>
<path d="M147 82.5C147 118.122 118.122 147 82.5 147C46.8776 147 18 118.122 18 82.5C18 46.8776 46.8776 18 82.5 18C118.122 18 147 46.8776 147 82.5ZM34.653 82.5C34.653 108.925 56.0748 130.347 82.5 130.347C108.925 130.347 130.347 108.925 130.347 82.5C130.347 56.0748 108.925 34.653 82.5 34.653C56.0748 34.653 34.653 56.0748 34.653 82.5Z" fill="#FF415B"/>
<g filter="url(#filter0_d)">
<rect x="53" y="53" width="59" height="12.73" rx="4" fill="#33363A"/>
<rect x="87.8636" y="53" width="59" height="12.73" rx="4" transform="rotate(90 87.8636 53)" fill="#33363A"/>
</g>
<defs>
<filter id="filter0_d" x="49" y="53" width="67" height="67" filterUnits="userSpaceOnUse" color-interpolation-filters="sRGB">
<feFlood flood-opacity="0" result="BackgroundImageFix"/>
<feColorMatrix in="SourceAlpha" type="matrix" values="0 0 0 0 0 0 0 0 0 0 0 0 0 0 0 0 0 0 127 0"/>
<feOffset dy="4"/>
<feGaussianBlur stdDeviation="2"/>
<feColorMatrix type="matrix" values="0 0 0 0 0 0 0 0 0 0 0 0 0 0 0 0 0 0 0.25 0"/>
<feBlend mode="normal" in2="BackgroundImageFix" result="effect1_dropShadow"/>
<feBlend mode="normal" in="SourceGraphic" in2="effect1_dropShadow" result="shape"/>
</filter>
</defs>
</svg>
