<svg width="81" height="81" viewBox="0 0 81 81" fill="none" xmlns="http://www.w3.org/2000/svg">
<g filter="url(#filter0_d)">
<circle cx="36.5" cy="36.5" r="22.5" fill="#EFF2FF"/>
</g>
<path d="M54.3354 36.6372C54.3354 46.4116 46.4116 54.3354 36.6372 54.3354C26.8628 54.3354 18.939 46.4116 18.939 36.6372C18.939 26.8628 26.8628 18.939 36.6372 18.939C46.4116 18.939 54.3354 26.8628 54.3354 36.6372ZM23.5085 36.6372C23.5085 43.888 29.3864 49.7659 36.6372 49.7659C43.888 49.7659 49.7659 43.888 49.7659 36.6372C49.7659 29.3864 43.888 23.5085 36.6372 23.5085C29.3864 23.5085 23.5085 29.3864 23.5085 36.6372Z" fill="#E94560"/>
<g filter="url(#filter1_d)">
<rect x="28.5427" y="28.5427" width="16.189" height="3.49299" rx="1.74649" fill="#0F3460"/>
<rect x="38.1089" y="28.5427" width="16.189" height="3.49299" rx="1.74649" transform="rotate(90 38.1089 28.5427)" fill="#0F3460"/>
</g>
<defs>
<filter id="filter0_d" x="0" y="0" width="81" height="81" filterUnits="userSpaceOnUse" color-interpolation-filters="sRGB">
<feFlood flood-opacity="0" result="BackgroundImageFix"/>
<feColorMatrix in="SourceAlpha" type="matrix" values="0 0 0 0 0 0 0 0 0 0 0 0 0 0 0 0 0 0 127 0"/>
<feMorphology radius="2" operator="dilate" in="SourceAlpha" result="effect1_dropShadow"/>
<feOffset dx="4" dy="4"/>
<feGaussianBlur stdDeviation="8"/>
<feColorMatrix type="matrix" values="0 0 0 0 0.34875 0 0 0 0 0.452109 0 0 0 0 0.9 0 0 0 0.24 0"/>
<feBlend mode="normal" in2="BackgroundImageFix" result="effect1_dropShadow"/>
<feBlend mode="normal" in="SourceGraphic" in2="effect1_dropShadow" result="shape"/>
</filter>
<filter id="filter1_d" x="24.5427" y="28.5427" width="24.189" height="24.189" filterUnits="userSpaceOnUse" color-interpolation-filters="sRGB">
<feFlood flood-opacity="0" result="BackgroundImageFix"/>
<feColorMatrix in="SourceAlpha" type="matrix" values="0 0 0 0 0 0 0 0 0 0 0 0 0 0 0 0 0 0 127 0"/>
<feOffset dy="4"/>
<feGaussianBlur stdDeviation="2"/>
<feColorMatrix type="matrix" values="0 0 0 0 0 0 0 0 0 0 0 0 0 0 0 0 0 0 0.25 0"/>
<feBlend mode="normal" in2="BackgroundImageFix" result="effect1_dropShadow"/>
<feBlend mode="normal" in="SourceGraphic" in2="effect1_dropShadow" result="shape"/>
</filter>
</defs>
</svg>
