<svg width="632" height="356" viewBox="0 0 632 356" fill="none" xmlns="http://www.w3.org/2000/svg">
<rect width="632" height="356" rx="16" fill="#DFDFDF"/>
<rect x="366" y="46" width="160" height="33" rx="16" fill="#C4C4C4"/>
<rect x="291" y="112" width="300" height="13" rx="6.5" fill="#C4C4C4"/>
<rect x="291" y="159" width="300" height="13" rx="6.5" fill="#C4C4C4"/>
<rect x="291" y="136" width="300" height="13" rx="6.5" fill="#C4C4C4"/>
<rect x="291" y="206" width="300" height="13" rx="6.5" fill="#C4C4C4"/>
<rect x="291" y="182" width="300" height="13" rx="6.5" fill="#C4C4C4"/>
<rect x="291" y="253" width="300" height="13" rx="6.5" fill="#C4C4C4"/>
<rect x="291" y="230" width="300" height="13" rx="6.5" fill="#C4C4C4"/>
<rect x="291" y="299" width="300" height="14" rx="7" fill="#C4C4C4"/>
<rect x="291" y="275" width="300" height="14" rx="7" fill="#C4C4C4"/>
<circle cx="151.5" cy="171.5" r="94.5" fill="#C4C4C4"/>
<rect x="65" y="285" width="33" height="24" rx="8" fill="#C4C4C4"/>
<rect x="129" y="285" width="33" height="24" rx="8" fill="#C4C4C4"/>
<rect x="193" y="285" width="33" height="24" rx="8" fill="#C4C4C4"/>
</svg>
